<svg xmlns="http://www.w3.org/2000/svg" viewBox="0 0 301.55 287.95"><title>lequizio-mode-ascension</title><g id="a6e8b1f8-1ace-42f2-b147-30bffa3ee41e" data-name="Calque 1"><path d="M246.27,397.77a5.17,5.17,0,0,1-1.56-.46,5.27,5.27,0,0,1-2.51-7l10-21.07-15-10.13a5.27,5.27,0,0,1,5.89-8.74L261.83,363a5.26,5.26,0,0,1,1.82,6.63L251.73,394.8A5.26,5.26,0,0,1,246.27,397.77Z" transform="translate(-184.72 -171)" style="fill:#965028;stroke:#000;stroke-miterlimit:10;stroke-width:3px"/><path d="M268.7,350.28l-12.44-15.23a4.39,4.39,0,0,1,6.8-5.56l10.71,13.11,12.86-3a4.39,4.39,0,0,1,2,8.56l-15.52,3.6A4.4,4.4,0,0,1,268.7,350.28Z" transform="translate(-184.72 -171)" style="fill:#faad93;stroke:#000;stroke-miterlimit:10;stroke-width:3px"/><path d="M270.66,338.8l-7.6-9.31a4.39,4.39,0,0,0-6.8,5.56l8.16,10Z" transform="translate(-184.72 -171)" style="fill:#1c9585;stroke:#000;stroke-miterlimit:10;stroke-width:3px"/><path d="M239.51,400.4a3.52,3.52,0,0,1,0-5c23-22.57,39.63-47.12,49.56-63.74a270,270,0,0,0,16.15-30.86,3.52,3.52,0,1,1,6.49,2.71,273.41,273.41,0,0,1-16.6,31.75c-10.15,17-27.17,42.06-50.67,65.15A3.51,3.51,0,0,1,239.51,400.4Z" transform="translate(-184.72 -171)" style="fill:#87afb9;stroke:#000;stroke-miterlimit:10;stroke-width:3px"/><path d="M235.85,396.56l.4-22.54-11.58-22a5.27,5.27,0,0,1,9.32-4.92l12.22,23.17a5.43,5.43,0,0,1,.61,2.56l-.43,23.88a5.27,5.27,0,1,1-10.54-.18Z" transform="translate(-184.72 -171)" style="fill:#a56941;stroke:#000;stroke-miterlimit:10;stroke-width:3px"/><path d="M225.86,345.61l23.79-20.74a6.16,6.16,0,0,1,8.68.6l7.21,8.26a6.15,6.15,0,0,1-.6,8.68l-22.9,20Z" transform="translate(-184.72 -171)" style="fill:#39ae96;stroke:#000;stroke-miterlimit:10;stroke-width:3px"/><circle cx="86.16" cy="150.86" r="9.11" style="fill:#ffb69e;stroke:#000;stroke-miterlimit:10;stroke-width:3px"/><path d="M296.34,328.77,283.4,340.63a4.39,4.39,0,0,1-4,1l-20.77-5.14a4.39,4.39,0,1,1,2.11-8.53l18.48,4.58,11.21-10.27a4.39,4.39,0,0,1,5.93,6.48Z" transform="translate(-184.72 -171)" style="fill:#ffb69e;stroke:#000;stroke-miterlimit:10;stroke-width:3px"/><path d="M260.72,328a4.39,4.39,0,1,0-2.11,8.53l9.25,2.29,1.91-8.58Z" transform="translate(-184.72 -171)" style="fill:#55c7a6;stroke:#000;stroke-miterlimit:10;stroke-width:3px"/></g><g id="b56163c7-1188-4731-b49e-ff74af34aac5" data-name="Calque 3"><path d="M439,369l-12.08-25.49a5.34,5.34,0,0,1,1.84-6.72L447.82,324a5.34,5.34,0,0,1,6,8.86l-15.24,10.26,10.11,21.34A5.34,5.34,0,1,1,439,369Z" transform="translate(-184.72 -171)" style="fill:#7f7e7d;stroke:#000;stroke-miterlimit:10;stroke-width:3px"/><path d="M417.37,325.45l-15.73-3.65a4.45,4.45,0,1,1,2-8.67l13,3,10.85-13.28a4.45,4.45,0,1,1,6.89,5.64l-12.6,15.42A4.45,4.45,0,0,1,417.37,325.45Z" transform="translate(-184.72 -171)" style="fill:#faad93;stroke:#000;stroke-miterlimit:10;stroke-width:3px"/><path d="M426.15,318.63l8.27-10.12a4.45,4.45,0,1,0-6.89-5.64l-7.7,9.43Z" transform="translate(-184.72 -171)" style="fill:#0d7899;stroke:#000;stroke-miterlimit:10;stroke-width:3px"/><path d="M446.36,374.75c-23.81-23.39-41.06-48.81-51.33-66a278.16,278.16,0,0,1-16.83-32.17,3.56,3.56,0,0,1,6.58-2.74,273.66,273.66,0,0,0,16.36,31.25c10.06,16.84,26.94,41.72,50.21,64.58a3.56,3.56,0,0,1-5,5.08Z" transform="translate(-184.72 -171)" style="fill:#87afb9;stroke:#000;stroke-miterlimit:10;stroke-width:3px"/><path d="M449.85,376.25a5.34,5.34,0,0,1-5.43-5.25L444,346.8a5.25,5.25,0,0,1,.61-2.58L457,320.74a5.34,5.34,0,0,1,9.45,5L454.69,348l.41,22.83A5.35,5.35,0,0,1,449.85,376.25Z" transform="translate(-184.72 -171)" style="fill:#939393;stroke:#000;stroke-miterlimit:10;stroke-width:3px"/><path d="M448.83,336.2,425.62,316a6.23,6.23,0,0,1-.6-8.79l7.3-8.37a6.24,6.24,0,0,1,8.8-.61l24.09,21Z" transform="translate(-184.72 -171)" style="fill:#249ece;stroke:#000;stroke-miterlimit:10;stroke-width:3px"/><circle cx="234.88" cy="124.14" r="9.22" style="fill:#ffb69e;stroke:#000;stroke-miterlimit:10;stroke-width:3px"/><path d="M393.54,295.85a4.46,4.46,0,0,1,6.29-.27L411.18,306l18.73-4.63A4.45,4.45,0,1,1,432,310l-21,5.2a4.43,4.43,0,0,1-4.07-1l-13.11-12A4.45,4.45,0,0,1,393.54,295.85Z" transform="translate(-184.72 -171)" style="fill:#ffb69e;stroke:#000;stroke-miterlimit:10;stroke-width:3px"/><path d="M420.73,303.61l1.94,8.7L432,310a4.45,4.45,0,0,0-2.13-8.65Z" transform="translate(-184.72 -171)" style="fill:#34b8e0;stroke:#000;stroke-miterlimit:10;stroke-width:3px"/></g><g id="e665ca99-ddaf-467e-adb2-53cb8e80b19f" data-name="Calque 2"><path d="M382.71,184.89H335.5v28.38h47.21l-9.44-14.19Z" transform="translate(-184.72 -171)" style="fill:#ff8086"/><path d="M335.5,184.89h14.16v28.38H335.5Z" transform="translate(-184.72 -171)" style="fill:#e5646e"/><path d="M399.41,311.88l-87-15.57-38.25,82.53v75.68h198.3Z" transform="translate(-184.72 -171)" style="fill:#966a5b"/><path d="M312.37,296.31l-38.25,82.53v75.68h24.93c8.67-35.75,24.41-103.66,36-154.15Z" transform="translate(-184.72 -171)" style="fill:#785353"/><path d="M328.82,320.11a9.43,9.43,0,0,0,13.36,0l8.47-8.49a4.72,4.72,0,0,1,7,.39l25.25,31.63A9.44,9.44,0,0,0,398.75,342l7.93-15.88-24.42-47.71a9.44,9.44,0,0,0-12.63-4.15l-10.52,5.27L344.92,259.6a9.44,9.44,0,0,0-16.25,1.51L310.05,301.3Z" transform="translate(-184.72 -171)" style="fill:#dbeaff"/><path d="M324.28,392.43a9.43,9.43,0,0,0-14.69.52l-3.36,4.49a4.72,4.72,0,0,1-7.56,0l-30-40.14a9.44,9.44,0,0,0-15.78,1l-54.27,96.2H378Z" transform="translate(-184.72 -171)" style="fill:#d19a6e"/><path d="M344.56,259.21a9.41,9.41,0,0,0-15.89,1.9L310.05,301.3l18.77,18.81a9.91,9.91,0,0,0,1.44,1.18C335.9,296.9,341,274.7,344.56,259.21Z" transform="translate(-184.72 -171)" style="fill:#c3ddff"/><path d="M272.84,362.93l-4.21-5.63a9.44,9.44,0,0,0-15.78,1l-54.27,96.2h48.54Z" transform="translate(-184.72 -171)" style="fill:#c38c66"/><path d="M481.86,450.1h-6.74L386.19,276.35a13.91,13.91,0,0,0-18.53-6.09l-7.15,3.59-12-16.79a13.66,13.66,0,0,0-8.62-5.56V217.7h42.79a4.43,4.43,0,0,0,3.68-6.89l-7.81-11.73,7.81-11.74a4.43,4.43,0,0,0-3.68-6.88H339.92v-5a4.42,4.42,0,1,0-8.84,0v77.26a13.77,13.77,0,0,0-6.4,6.62L277.49,361.76l-5.33-7.11A13.84,13.84,0,0,0,249,356.14l-53,94h-6.87a4.43,4.43,0,0,0,0,8.85H481.86a4.43,4.43,0,0,0,0-8.85ZM374.46,189.31l-4.87,7.31a4.43,4.43,0,0,0,0,4.91l4.87,7.31H339.92V189.31ZM256.7,360.5a5,5,0,0,1,8.39-.54l13,17.34a4.42,4.42,0,0,0,7.07-5.31l-1.63-2.18,28-60.79,14.19,14.22a13.83,13.83,0,0,0,19.6,0l8.48-8.49a.26.26,0,0,1,.23-.09.25.25,0,0,1,.22.11l1.42,1.78a4.42,4.42,0,1,0,6.9-5.53l-1.42-1.78a9.13,9.13,0,0,0-13.6-.75L339.05,317a5,5,0,0,1-7.1,0l-16.49-16.52L332.7,263a5,5,0,0,1,8.65-.81l14.16,19.86a4.41,4.41,0,0,0,5.57,1.38l10.53-5.27a5,5,0,0,1,6.72,2.21l23.4,45.72L394.8,340a5,5,0,0,1-8.41.89l-12.17-15.23a4.42,4.42,0,1,0-6.89,5.53l12.16,15.23a13.76,13.76,0,0,0,10.8,5.22c.49,0,1,0,1.48-.08a13.8,13.8,0,0,0,10.94-7.6l4-8.06L465.19,450.1H380l-52.39-60.57a13.85,13.85,0,0,0-21.56.76l-3.61,4.82-6.28-8.38A4.42,4.42,0,1,0,289.1,392l9.82,13.1a4.41,4.41,0,0,0,7.06,0l7.15-9.53a5,5,0,0,1,7.81-.28l47.38,54.77H206.15Z" transform="translate(-184.72 -171)"/></g></svg>