<svg xmlns="http://www.w3.org/2000/svg" viewBox="0 0 352.61 332.06"><title>lequizio-mode-blitz</title><g id="fa1026a1-14bb-40d3-8062-fda659bef8a1" data-name="Calque 1"><path d="M359.79,410.41l-36,11.08L304.4,486.58l18-5.54Z" transform="translate(-181.65 -158.91)" style="fill:#98695e"/><path d="M395.8,399.33l36-11.07,52.63,42.93-18,5.54Z" transform="translate(-181.65 -158.91)" style="fill:#98695e"/><path d="M409,211.84l16.65,8.81L408,253.94l-16.64-8.81Z" transform="translate(-181.65 -158.91)" style="fill:#eaf6ff"/><path d="M305.12,200.68l18-5.54L336.92,240l-18,5.54Z" transform="translate(-181.65 -158.91)" style="fill:#eaf6ff"/><path d="M234.67,279.43l8.81-16.65,33.29,17.63L268,297.05Z" transform="translate(-181.65 -158.91)" style="fill:#eaf6ff"/><path d="M336.7,190.89,291.5,204.8A14,14,0,1,1,283.25,178l45.2-13.91a14,14,0,1,1,8.25,26.81Z" transform="translate(-181.65 -158.91)" style="fill:#20b2d6"/><path d="M303.09,201.23,291.5,204.8A14,14,0,1,1,283.25,178l11.59-3.57a14,14,0,0,0,8.25,26.81Z" transform="translate(-181.65 -158.91)" style="fill:#0b9ab2"/><path d="M450.6,233.9,384,198.64l1.12-2.11a37.67,37.67,0,1,1,66.58,35.25Z" transform="translate(-181.65 -158.91)" style="fill:#f0dc0c"/><path d="M454.17,226.08a37.37,37.37,0,0,1-2.45,5.7l-1.12,2.11L384,198.64l1.12-2.11a37.62,37.62,0,0,1,28.15-19.69A37.46,37.46,0,0,0,396.73,193l-1.12,2.1Z" transform="translate(-181.65 -158.91)" style="fill:#ddc305"/><path d="M256.72,237.81l-35.25,66.58-2.12-1.11a37.67,37.67,0,0,1,35.26-66.59Z" transform="translate(-181.65 -158.91)" style="fill:#f0dc0c"/><path d="M215.28,248.79a37.68,37.68,0,0,0,10.44,47.58l-4.25,8-2.12-1.12a37.68,37.68,0,0,1,12.49-70.61A37.51,37.51,0,0,0,215.28,248.79Z" transform="translate(-181.65 -158.91)" style="fill:#ddc305"/><circle cx="173.97" cy="173.88" r="113.01" style="fill:#f03c7b"/><path d="M332.27,424.05A112.7,112.7,0,0,0,403,435.39a113,113,0,1,1-65.87-214.1,113,113,0,0,0-4.9,202.76Z" transform="translate(-181.65 -158.91)" style="fill:#cc175d"/><circle cx="173.97" cy="173.88" r="94.18" style="fill:#eaf6ff"/><path d="M276.58,357.11a112.7,112.7,0,0,0,55.69,66.94A94.21,94.21,0,0,1,285,270.45a112.64,112.64,0,0,0-8.44,86.66Z" transform="translate(-181.65 -158.91)" style="fill:#d8ecfe"/><path d="M364.62,330l-18,5.54-13.85-45a9.42,9.42,0,1,1,18-5.54Z" transform="translate(-181.65 -158.91)" style="fill:#f03c7b"/><path d="M343.69,278.58a9.4,9.4,0,0,0-2.23,9.3l13.85,45-8.69,2.67-13.85-45A9.42,9.42,0,0,1,339,278.79a9.16,9.16,0,0,1,4.69-.21Z" transform="translate(-181.65 -158.91)" style="fill:#cc175d"/><path d="M349.4,344.6l-27,8.3a9.45,9.45,0,1,1-5.56-18.07l27-8.3Z" transform="translate(-181.65 -158.91)" style="fill:#f03c7b"/><path d="M334,349.33l-11.59,3.56a9.45,9.45,0,1,1-5.56-18.07l11.59-3.56A9.45,9.45,0,1,0,334,349.33Z" transform="translate(-181.65 -158.91)" style="fill:#cc175d"/><circle cx="173.97" cy="173.88" r="18.84" style="fill:#20b2d6"/><path d="M366.66,348.07A18.84,18.84,0,1,1,356.17,314a18.85,18.85,0,0,0,10.49,34.11Z" transform="translate(-181.65 -158.91)" style="fill:#0b9ab2"/><path d="M447.3,183.34a4.55,4.55,0,0,0-6.21,6.65q15.69,15.84,7.56,37.73l-58.42-30.94a33.18,33.18,0,0,1,35.45-14.95,4.55,4.55,0,1,0,2-8.87,42.29,42.29,0,0,0-46.56,21.44c-1.7,2.39-2.47,6.55.77,8.26l20.95,11.09-5,9.39a117,117,0,0,0-63.23-6l-5.86-19,9.26-2.84a18.57,18.57,0,1,0-10.93-35.5l-45.2,13.9a18.57,18.57,0,1,0,10.92,35.5l9.26-2.84,5.86,19A116.82,116.82,0,0,0,259,265.86l-9.39-5,11.09-20.95c1.71-3.24-1.25-6.24-4-7.27-15.12-8-35.62-5.42-48.27,6.17a4.55,4.55,0,1,0,6.15,6.7q15.49-13.46,35.92-5.78l-30.93,58.43a33.14,33.14,0,0,1-14.32-37.85,4.55,4.55,0,0,0-8.7-2.67,42.26,42.26,0,0,0,20.63,49.63c2.4,1.69,6.55,2.46,8.27-.78l11.09-20.95,9.39,5a116.9,116.9,0,0,0-2.71,76.82c10.36,33.69,36.78,62.09,69.58,74.94l-12.8,43c-.35,4.16,1.54,6,5.7,5.64l18-5.53a4.58,4.58,0,0,0,2.68-2.22l17.66-33.36a116.7,116.7,0,0,0,36.13-2.05,4.55,4.55,0,1,0-1.91-8.89C323.85,450.58,268.35,418,252,364.69A108.46,108.46,0,1,1,459.28,300.9c16.41,53.31-11.18,111.45-62.79,132.37a4.55,4.55,0,0,0,3,8.57c10.54-3.25,23.44-12.1,31.41-18.75l33.36,17.66a4.53,4.53,0,0,0,3.46.32l18-5.53q5.49-3,1.54-7.88l-34.75-28.35c19.91-29.07,25.8-67.38,15.43-101.09a117,117,0,0,0-45.42-62l5-9.39,21,11.09c3.23,1.71,6.23-1.25,7.26-4,8.54-16.13,5-38-8.44-50.57Zm-169,10.84a9.47,9.47,0,0,1,6.27-11.84l45.2-13.91a9.47,9.47,0,0,1,5.57,18.11l-45.2,13.91A9.48,9.48,0,0,1,278.32,194.18Zm40.94,283.07-8.08,2.48,10.26-34.43a115.53,115.53,0,0,0,13.06,3.17ZM475,429.34l-8.08,2.49-28.78-15.24a116.89,116.89,0,0,0,9-10ZM240.84,277.53l4.55-8.6,8.75,4.63c-1.63,2.8-3.15,5.68-4.55,8.6ZM316.43,222l-5.63-18.28,9.31-2.87,5.62,18.28q-4.71,1.23-9.3,2.87Zm98.42,9.35q-4.2-2.46-8.6-4.56l4.63-8.75,8.61,4.56Z" transform="translate(-181.65 -158.91)"/><path d="M261.26,361.83C277,413.07,333.4,442.89,384.6,427.17c51.49-15.32,81.08-72.38,65.38-123.41-15.83-51.45-72-81.16-123.39-65.33S245.45,310.45,261.26,361.83ZM287,275.21l10.36,9.63q3.66,2.49,6.43-.24a4.54,4.54,0,0,0-.24-6.42l-10.37-9.64a88.92,88.92,0,0,1,31.8-20l4.17,13.55a4.55,4.55,0,0,0,8.69-2.67l-4.17-13.55a89,89,0,0,1,37.52-1.37L368,258.34a4.55,4.55,0,0,0,3.42,5.45c2.55.46,4.36-.68,5.45-3.42L380,246.58a90.34,90.34,0,0,1,33.17,17.57l-9.63,10.36a4.54,4.54,0,0,0,.24,6.42c2.43,1.66,4.58,1.58,6.42-.23l9.64-10.38a89.1,89.1,0,0,1,20,31.8l-13.55,4.17A4.55,4.55,0,0,0,429,315l13.55-4.17a89,89,0,0,1,1.37,37.52l-13.81-3.16a4.54,4.54,0,1,0-2,8.86l13.79,3.16a90.18,90.18,0,0,1-17.57,33.17l-10.35-9.62a4.55,4.55,0,1,0-6.2,6.66l10.38,9.64a89.08,89.08,0,0,1-31.8,20l-4.17-13.54a4.55,4.55,0,1,0-8.69,2.67l4.16,13.55a89,89,0,0,1-37.52,1.36l3.16-13.8a4.54,4.54,0,1,0-8.86-2L331.21,419A90.24,90.24,0,0,1,298,401.44l9.62-10.36a4.55,4.55,0,1,0-6.66-6.19l-9.64,10.37a89,89,0,0,1-20-31.8l13.54-4.16a4.55,4.55,0,0,0-2.67-8.7l-13.55,4.17a89,89,0,0,1-1.36-37.52l13.8,3.16q3.82.69,5.45-3.42a4.55,4.55,0,0,0-3.42-5.45l-13.78-3.15A90.28,90.28,0,0,1,287,275.21Z" transform="translate(-181.65 -158.91)"/><path d="M323.77,357.24l18.07-5.56a23.38,23.38,0,1,0,21.61-40.91l-8.33-27.09q-4.9-11.85-17.46-9.24a14,14,0,0,0-9.24,17.46L336.76,319a23.62,23.62,0,0,0-3.15,5.93l-18.08,5.57q-11.88,4.9-9.27,17.5A14,14,0,0,0,323.77,357.24Zm36.05-10.79q-13.74,2-17.86-9.46c-2.2-7.17,2.29-15.65,9.46-17.85a13.89,13.89,0,0,1,17.85,9.45A14.3,14.3,0,0,1,359.82,346.45Zm-19.48-63.31a4.87,4.87,0,0,1,6.09,3.22l7.12,23.15a23.13,23.13,0,0,0-9.31,2.86l-7.12-23.15a4.86,4.86,0,0,1,3.22-6.08Zm-22.13,56,14.12-4.35a23,23,0,0,0,2.89,9.38l-14.13,4.35A4.91,4.91,0,0,1,315,345.3C314.1,342.51,315.51,340.33,318.21,339.17Z" transform="translate(-181.65 -158.91)"/></g><g id="ebd8bf01-f5c0-41c4-8ba4-a8d0fba195a0" data-name="Calque 2"><path d="M249.13,415.37a102,102,0,0,1-31.69-56.83,6.06,6.06,0,0,0-11.9,2.26A114,114,0,0,0,241,424.31" transform="translate(-181.65 -158.91)"/><path d="M232.8,433.24a125.87,125.87,0,0,1-39.15-70.19,6.06,6.06,0,1,0-11.9,2.25,137.92,137.92,0,0,0,42.88,76.88" transform="translate(-181.65 -158.91)"/><path d="M510.06,333.57A114.2,114.2,0,0,0,485.85,265a6.06,6.06,0,1,0-9.56,7.44A101.87,101.87,0,0,1,498,333.78" transform="translate(-181.65 -158.91)"/><path d="M534.26,333.14a137.83,137.83,0,0,0-29.31-83,6.06,6.06,0,1,0-9.56,7.44,125.67,125.67,0,0,1,26.76,75.78" transform="translate(-181.65 -158.91)"/></g></svg>