<svg xmlns="http://www.w3.org/2000/svg" viewBox="0 0 288.03 280.03"><title>serie-black-stroke</title><g id="b976bdae-cf52-4d6b-9534-9a5e5bc068ff" data-name="Calque 1"><path d="M328.14,271.29l26.27-34.22,26.34,34.22h21.77l-35.73-46.47c-6.6-6.47-18.14-6.47-24.74,0l-.81.9-35,45.57Z" transform="translate(-206 -215.97)" style="fill:#bdc2c5;stroke:#000;stroke-miterlimit:10;stroke-width:8px"/><path d="M227.5,270h245a17.51,17.51,0,0,1,17.5,17.5v175a17.5,17.5,0,0,1-17.5,17.51h-245A17.5,17.5,0,0,1,210,462.55v-175A17.49,17.49,0,0,1,227.5,270Z" transform="translate(-206 -215.97)" style="fill:#f5bb69;stroke:#000;stroke-miterlimit:10;stroke-width:8px"/><path d="M245,287.54H455A17.51,17.51,0,0,1,472.53,305v140A17.52,17.52,0,0,1,455,462.56H245a17.51,17.51,0,0,1-17.5-17.51V305A17.49,17.49,0,0,1,245,287.54Z" transform="translate(-206 -215.97)" style="fill:#37a18e;stroke:#000;stroke-miterlimit:10;stroke-width:8px"/><path d="M283,354.62q0-7.12-4.79-8.49a8,8,0,0,0-2.15-.3q-5.76,0-10.54,7.91c-.33.59-.62,1.14-.88,1.66a36.88,36.88,0,0,0-1.47,4.3,3.16,3.16,0,0,0,.1.88l-3.81,1.17A16.25,16.25,0,0,1,259,358q0-8.3,6.93-15a25.46,25.46,0,0,1,5.08-3.71,16.37,16.37,0,0,1,7.23-2q7.51,0,12.11,7a19.71,19.71,0,0,1,3.12,10.84,49.3,49.3,0,0,1-1.07,6.93,1.74,1.74,0,0,0-.1.59q-3.9,13.77-14.55,26.75a40.72,40.72,0,0,1,17,5.57q3.62,2.83,3.71,4.69c0,.72-.62,1.63-1.85,2.73l-.29.3-.88.48c-1.76,1.18-2.74,1.79-2.93,1.86a1.25,1.25,0,0,1-1,0c-.19-.07-.36-.11-.49-.15a1.66,1.66,0,0,1-.49-.24l-.44-.29-.43-.3-.3-.19q-9.27-5.76-18-5.76a6.59,6.59,0,0,0-.88.09h-.78c-3.64,3.52-6.87,5.86-9.66,7a9.88,9.88,0,0,1-3.42.79,4.56,4.56,0,0,1-4.2-2.93,8.13,8.13,0,0,1-.69-3.32c.14-1.57,1.89-3.58,5.28-6.06a25.59,25.59,0,0,1,6.05-2.93,95.88,95.88,0,0,0,8.4-10.25q6.93-9.57,9.08-14.75A29.54,29.54,0,0,0,283,354.62Z" transform="translate(-206 -215.97)" style="fill:#f2ebee"/><path d="M314.5,360.77q1.37,2.44,1.95,9.38v.49h.2a30.71,30.71,0,0,1,9,1.17c.52.39.82.68.88.88A12,12,0,0,0,327,374l.1,1q-.5,2.25-1.17,2.64a9.1,9.1,0,0,1-2.54.39c-1.05.07-2.61.1-4.69.1h-2.05v1.66c.06.78.1,1.33.1,1.66a23.58,23.58,0,0,1-1.18,7.91,1.6,1.6,0,0,1-1,.59,6.09,6.09,0,0,0-1.47-.2l-.88-.29a12.43,12.43,0,0,1-1.95-.59.58.58,0,0,1-.29-.29,13.08,13.08,0,0,1-.1-1.86c0-.65,0-1.62.1-2.93s.19-2.28.19-2.93V378h-1.66c-.78-.06-1.33-.1-1.66-.1-1.75,0-3,0-3.81.1a6,6,0,0,1-2.83-.19l-.1-5.38c.65-.45,2.19-.74,4.59-.87a2.46,2.46,0,0,1,.59-.1,18.68,18.68,0,0,0,2.15-.2l2.54-.29q-.19-2.83-.59-7.62Z" transform="translate(-206 -215.97)" style="fill:#f2ebee"/><path d="M359.52,354.62q0-7.12-4.79-8.49a7.9,7.9,0,0,0-2.14-.3q-5.77,0-10.55,7.91c-.33.59-.62,1.14-.88,1.66a33.94,33.94,0,0,0-1.46,4.3,3.24,3.24,0,0,0,.09.88L336,361.75a16.25,16.25,0,0,1-.39-3.71q0-8.3,6.94-15a24.9,24.9,0,0,1,5.08-3.71,16.3,16.3,0,0,1,7.22-2q7.51,0,12.11,7a19.72,19.72,0,0,1,3.13,10.84,50,50,0,0,1-1.08,6.93,2,2,0,0,0-.1.59q-3.9,13.77-14.55,26.75a40.82,40.82,0,0,1,17,5.57q3.6,2.83,3.71,4.69,0,1.08-1.86,2.73l-.29.3-.88.48a33,33,0,0,1-2.93,1.86,1.25,1.25,0,0,1-1,0c-.19-.07-.36-.11-.48-.15a1.45,1.45,0,0,1-.49-.24l-.44-.29-.44-.3-.3-.19q-9.27-5.76-18-5.76a6.29,6.29,0,0,0-.88.09h-.78q-5.47,5.28-9.67,7a9.88,9.88,0,0,1-3.42.79q-2.73,0-4.2-2.93a8.29,8.29,0,0,1-.68-3.32c.13-1.57,1.88-3.58,5.27-6.06a25.65,25.65,0,0,1,6.06-2.93,97.32,97.32,0,0,0,8.39-10.25q6.95-9.57,9.09-14.75A29.72,29.72,0,0,0,359.52,354.62Z" transform="translate(-206 -215.97)" style="fill:#f2ebee"/><path d="M382.18,383.82a12.14,12.14,0,0,1-5.67-1l.1-4.2a15.05,15.05,0,0,1,4.88-1h.3c1.3-.07,3.25-.26,5.85-.59A102.13,102.13,0,0,1,398,376.3c3.45.07,5.2.65,5.27,1.76a9.69,9.69,0,0,1-.59,1.85l-.88.59a4.17,4.17,0,0,0-.68,1.95q0,.78-16.89,1.37Zm-4.11-12-1.17-5.67c.91-.58,3.13-1.13,6.64-1.66a47.06,47.06,0,0,1,8-.68q7.81,0,10.55,2.64a8.52,8.52,0,0,1,1.17,1.46l-.29.88a4.19,4.19,0,0,0-1,.78c-.46.33-.78.56-1,.69s-1.53.19-4.2.39h-.19q-2.73,0-13.09,1.17c-1.43.13-2.57.19-3.41.19A12.79,12.79,0,0,1,378.07,371.81Z" transform="translate(-206 -215.97)" style="fill:#f2ebee"/><path d="M444.68,371q0,.59-.79,5.66a9.28,9.28,0,0,0-.09,1.17,9.37,9.37,0,0,1,2.63.78,12.7,12.7,0,0,1,2.15,2.45l-.29.87a6.94,6.94,0,0,0-1.17.49,6.45,6.45,0,0,1-1.27.59,13.48,13.48,0,0,1-2.54.19q-1.17,13.29-2.05,19.83a14.12,14.12,0,0,1-1.76,5.37l-1.27.68q-.78.5-1.17.69l-1,.09a8.36,8.36,0,0,1-1.27-.48,5.68,5.68,0,0,0-1.27-.59q-1.95-3.61-2-11.13,0-5.87.49-12.8a88.83,88.83,0,0,0-17.58,4.89v.1a37,37,0,0,0-3.61,1.75q-1.27,0-3.91-4l-1.07-1.47a17.23,17.23,0,0,1,2.93-4.49q17.76-21.48,24.8-38.18c.59-1.5,1-2.44,1.17-2.83a.28.28,0,0,0,.1-.2,1.75,1.75,0,0,1,.68-.78h7.62a9.26,9.26,0,0,1,.2,2.15q0,3.23-3.13,9.57c-.32.65-.55,1.14-.68,1.46a155.52,155.52,0,0,1-18.07,27.35A78.19,78.19,0,0,1,432.76,378q.39-2.83,1.08-7a11.22,11.22,0,0,1,1-2.93l9.48.78A9,9,0,0,1,444.68,371Z" transform="translate(-206 -215.97)" style="fill:#f2ebee"/></g><g id="aaccfb8c-1f32-4dc4-b5f4-61a2aa79eb5d" data-name="Calque 2"><rect x="5" y="242.03" width="88" height="20" rx="4.57" style="fill:#e24a2b;stroke:#000;stroke-miterlimit:10;stroke-width:4px"/><rect x="7.14" y="262.03" width="83.05" height="16" rx="3.6" style="fill:#3f3f3f;stroke:#000;stroke-miterlimit:10;stroke-width:4px"/></g><g id="e4fc8ca1-fa37-46ad-997c-e326e345cd01" data-name="Calque 4"><rect x="100.5" y="262.53" width="47.5" height="9.5" rx="3.96" style="fill:#fff;stroke:#000;stroke-miterlimit:10;stroke-width:3px"/></g></svg>