<svg xmlns="http://www.w3.org/2000/svg" viewBox="0 0 347.43 263"><title>lequizio-mode-survivant</title><g id="e54662c1-b223-4ec0-afc2-0842c6ac9f2e" data-name="Calque 5"><g id="fa9e5a3b-bc90-44ab-ab11-d8e3b4be5656" data-name="Layer 3"><path id="a7a00baa-76db-4033-a773-9d8ba7a74491" data-name="Shape" d="M455.05,273.67A12.28,12.28,0,0,1,442.77,286a12.24,12.24,0,0,1-19.64,9.78,16.31,16.31,0,0,1-4.91,4.37,15.83,15.83,0,0,1-8.18,2.21,16.36,16.36,0,0,1-14.65-9.12,12.15,12.15,0,0,1-9.91,5A12.27,12.27,0,0,1,373.2,286a4.53,4.53,0,0,1,.05-.74,12.2,12.2,0,0,1,9-11.09,12,12,0,0,1-.9-4.54,12.28,12.28,0,0,1,12.28-12.28,12.13,12.13,0,0,1,5.32,1.23A20.48,20.48,0,0,1,418.22,245a17.07,17.07,0,0,1,3.27.29,20.4,20.4,0,0,1,16.9,16.9,12,12,0,0,1,4.38-.82,12.28,12.28,0,0,1,12.28,12.28Z" transform="translate(-174.57 -200)" style="fill:#008a00"/><path d="M442.77,261.39a12,12,0,0,0-4.38.82,20.4,20.4,0,0,0-16.9-16.9,17.07,17.07,0,0,0-3.27-.29,20.43,20.43,0,0,0-6.2,1,20.41,20.41,0,0,1,14.1,16.22,11.91,11.91,0,0,1,4.38-.82,12.28,12.28,0,0,1,0,24.56,12.22,12.22,0,0,1-6.14,10.57,11.93,11.93,0,0,0,6.14,1.7A12.27,12.27,0,0,0,442.77,286a12.28,12.28,0,1,0,0-24.56Z" transform="translate(-174.57 -200)" style="fill:#007900"/><path d="M307.73,294.13a12.28,12.28,0,0,1-3.6,8.68,11.09,11.09,0,0,1-2.29,1.8,12.25,12.25,0,0,1-16.29-3.24,16.32,16.32,0,0,1-27.75,2.54c-.32.25-.65.49-1,.74a12.28,12.28,0,0,1-18.62-10.52,12.28,12.28,0,1,1,0-24.55,11.94,11.94,0,0,1,4.38.81A20.46,20.46,0,0,1,282,266.71l.86-.37a11.54,11.54,0,0,1,4.46-.86,12.27,12.27,0,0,1,12.27,12.28,11.78,11.78,0,0,1-.9,4.54A12.21,12.21,0,0,1,307.73,294.13Z" transform="translate(-174.57 -200)" style="fill:#008a00"/><path d="M422.31,240.93a11.74,11.74,0,0,1-.82,4.38,17.07,17.07,0,0,0-3.27-.29A20.48,20.48,0,0,0,399,258.53a12.13,12.13,0,0,0-5.32-1.23,12.28,12.28,0,0,0-12.28,12.28,12,12,0,0,0,.9,4.54,12.2,12.2,0,0,0-9,11.09,11.48,11.48,0,0,1-4.14.74,11.09,11.09,0,0,1-2.37-.25,12.05,12.05,0,0,1-6.59-3.68,12.22,12.22,0,0,1-11.5,8,8.25,8.25,0,0,1-.86,0,12.18,12.18,0,0,1-10.23-7,16,16,0,0,1-9.45,6.55,19,19,0,0,1-1.88,6.75,18.36,18.36,0,0,1-16.46,10.15,15.75,15.75,0,0,1-2.37-.17,18.26,18.26,0,0,1-5.56-1.63,11.09,11.09,0,0,0,2.29-1.8,12.25,12.25,0,0,0-5.49-20.51,11.78,11.78,0,0,0,.9-4.54,12.27,12.27,0,0,0-12.27-12.28,11.54,11.54,0,0,0-4.46.86,18.41,18.41,0,0,1,14.69-29.5,19.73,19.73,0,0,1,2.17.12,17.44,17.44,0,0,1-.13-2.17,18.44,18.44,0,0,1,25.66-16.94A20.46,20.46,0,0,1,359.86,211a16.34,16.34,0,0,1,28.2,2.61,12.27,12.27,0,0,1,16.66,16.25,12.07,12.07,0,0,1,5.32-1.23,12.27,12.27,0,0,1,12.27,12.28Z" transform="translate(-174.57 -200)" style="fill:#60a917"/><path d="M410,228.65a12.07,12.07,0,0,0-5.32,1.23,12.27,12.27,0,0,0-16.66-16.25,16.3,16.3,0,0,0-21-8.3,16.28,16.28,0,0,1,8.74,8.3,12.29,12.29,0,0,1,17.89,10.93,12.13,12.13,0,0,1-1.23,5.32,12.1,12.1,0,0,1,5.32-1.23A12.28,12.28,0,0,1,410,240.93a12.16,12.16,0,0,1-.82,4.38,17.17,17.17,0,0,0-3.28-.29,20.48,20.48,0,0,0-19.23,13.51,12.13,12.13,0,0,0-5.32-1.23,12.28,12.28,0,0,0-12.28,12.28,12,12,0,0,0,.9,4.54,12.23,12.23,0,0,0-8.72,9,12.19,12.19,0,0,0,7.82,2.87,11.48,11.48,0,0,0,4.14-.74,12.2,12.2,0,0,1,9-11.09,12,12,0,0,1-.9-4.54,12.28,12.28,0,0,1,12.28-12.28,12.13,12.13,0,0,1,5.32,1.23A20.48,20.48,0,0,1,418.22,245a17.07,17.07,0,0,1,3.27.29,11.74,11.74,0,0,0,.82-4.38A12.27,12.27,0,0,0,410,228.65Z" transform="translate(-174.57 -200)" style="fill:#549414"/><path d="M418.22,300.1v18.58a28.74,28.74,0,0,1-28.65,28.65h-17.8a4.05,4.05,0,0,0-3.84,5.4,93.83,93.83,0,0,1,5.27,31.06V421a20.47,20.47,0,0,0,20.47,20.46H324.1c9.25-18.25,16.37-39.2,16.37-57.29a105.5,105.5,0,0,0-9.91-42.6,4.09,4.09,0,0,0-3.76-2.42H284.16a16.39,16.39,0,0,1-14.65-9l-12.73-25.45c.37-.25.7-.49,1-.74a16.21,16.21,0,0,0,19.52,5.24L283,320.52a4.1,4.1,0,0,0,3.68,2.26h25.62a4.12,4.12,0,0,0,3.32-6.55q-3.93-5.28-8.23-10a15.75,15.75,0,0,0,2.37.17,18.36,18.36,0,0,0,16.46-10.15c2.66,2.7,6,6.14,9.41,9.74a4.12,4.12,0,0,0,6.83-1.39L347.79,290a8.25,8.25,0,0,0,.86,0,12.22,12.22,0,0,0,11.5-8,12.05,12.05,0,0,0,6.59,3.68l-13.42,36.95a4.12,4.12,0,0,0,.65,3.93s1,1.39,1.92,2.66a4.13,4.13,0,0,0,3.32,1.72h26.27a16.37,16.37,0,0,0,16.37-16.37V300.1a16.36,16.36,0,0,0,8.19,2.21,15.83,15.83,0,0,0,8.18-2.21Z" transform="translate(-174.57 -200)" style="fill:#91562d"/><path d="M341,322.65a4.15,4.15,0,0,0,.65,3.93c.05,0,1,1.39,1.93,2.66a4.11,4.11,0,0,0,3.31,1.72h12.28a4.13,4.13,0,0,1-3.32-1.72c-.9-1.27-1.88-2.62-1.92-2.66a4.12,4.12,0,0,1-.65-3.93l13.42-36.95a12.05,12.05,0,0,1-6.59-3.68,12.19,12.19,0,0,1-6.93,7.1Z" transform="translate(-174.57 -200)" style="fill:#6d4122"/><path d="M410,302.31a15.75,15.75,0,0,1-4.1-.54v16.91a28.73,28.73,0,0,1-28.64,28.65h12.27a28.74,28.74,0,0,0,28.65-28.65V300.1A15.83,15.83,0,0,1,410,302.31Z" transform="translate(-174.57 -200)" style="fill:#6d4122"/><path d="M373.2,421v-37.2a93.83,93.83,0,0,0-5.27-31.06,4.05,4.05,0,0,1,3.84-5.4H359.5a4.05,4.05,0,0,0-3.85,5.4,93.84,93.84,0,0,1,5.28,31.06V421a20.46,20.46,0,0,0,20.46,20.46h12.28A20.47,20.47,0,0,1,373.2,421Z" transform="translate(-174.57 -200)" style="fill:#6d4122"/></g><g id="f1902d08-1d1b-415f-bb0b-10d689a7573d" data-name="Layer 2"><path d="M258,277a3.57,3.57,0,0,0,.65.06,4.09,4.09,0,0,0,4-3.44,4.1,4.1,0,1,0,7.7-2.78,8.18,8.18,0,0,0-15.73,1.47A4.08,4.08,0,0,0,258,277Z" transform="translate(-174.57 -200)"/><path d="M410.17,264.15a4.09,4.09,0,0,0,3.37,4.69,3.49,3.49,0,0,0,.65.05,4.09,4.09,0,0,0,4-3.44,4.09,4.09,0,1,0,7.69-2.78,8.18,8.18,0,0,0-15.73,1.48Z" transform="translate(-174.57 -200)"/><path d="M393.67,437.36A16.37,16.37,0,0,1,377.3,421v-37.2a97.28,97.28,0,0,0-5.53-32.37h17.8a32.77,32.77,0,0,0,32.74-32.74V302.2a19.83,19.83,0,0,0,1.64-1.26,16,16,0,0,0,6.55,1.37,16.4,16.4,0,0,0,16-12.68,16.37,16.37,0,0,0-3.69-32.33c-.46,0-.93,0-1.39.06a24.33,24.33,0,0,0-15.1-15.06c0-.46.12-.9.12-1.37A16.36,16.36,0,0,0,410,224.56a16.38,16.38,0,0,0-20.15-15.93,20.43,20.43,0,0,0-30.29-3.44A24.55,24.55,0,0,0,323,212.84a22.53,22.53,0,0,0-27.42,20,22.48,22.48,0,0,0-20.29,19.74,24.52,24.52,0,0,0-35.69,13c-.46,0-.92-.06-1.39-.06a16.37,16.37,0,0,0-3.68,32.33,16.39,16.39,0,0,0,16,12.69,16,16,0,0,0,4.35-.67l11,22.1a20.37,20.37,0,0,0,18.3,11.31h42.69a101.44,101.44,0,0,1,9.54,40.92c0,14.91-5.29,33.73-14.85,53.2m112.84-174.5a4.09,4.09,0,0,0,2,2.91,4.13,4.13,0,0,0,3.53.25,7.86,7.86,0,0,1,2.87-.54,8.19,8.19,0,1,1,0,16.37,4.09,4.09,0,0,0-4.09,4.1,8.18,8.18,0,0,1-8.18,8.18,8,8,0,0,1-4.91-1.66,4.08,4.08,0,0,0-5.77.82A12.23,12.23,0,0,1,399,291.36a4.1,4.1,0,0,0-3.34-2.27h-.34a4.12,4.12,0,0,0-3.32,1.7,8,8,0,0,1-6.56,3.34,8.19,8.19,0,0,1-2.14-16.06,4.07,4.07,0,0,0,2.61-2.13,4.11,4.11,0,0,0,.13-3.38,7.81,7.81,0,0,1-.6-3,8.19,8.19,0,0,1,8.19-8.19,7.94,7.94,0,0,1,3.52.82,4.1,4.1,0,0,0,5.65-2.3,16.37,16.37,0,0,1,31.51,2.95Zm-64.8,27.06h.1a16.32,16.32,0,0,0,25,9.56,20.06,20.06,0,0,0,3.07,2.83v12.28a12.28,12.28,0,0,1-12.28,12.28H359.23c-1.23-1.77-1.78-2.49-2.05-2.87Zm-72.06-49a16,16,0,0,1,1.69.09,4.08,4.08,0,0,0,4.54-4.55,13.51,13.51,0,0,1-.09-1.68,14.34,14.34,0,0,1,20-13.18,4.06,4.06,0,0,0,3.26,0,4.13,4.13,0,0,0,2.21-2.39,16.37,16.37,0,0,1,27.73-5.48,4.09,4.09,0,0,0,6.41-.34,12.24,12.24,0,0,1,21.13,2,4.08,4.08,0,0,0,5.58,1.95,8.18,8.18,0,0,1,11.93,7.28,8,8,0,0,1-.82,3.53,4.09,4.09,0,0,0,5.48,5.47,7.84,7.84,0,0,1,3.53-.81,8.18,8.18,0,0,1,8.18,8.18,24.6,24.6,0,0,0-21.43,12.58,14.93,14.93,0,0,0-3.12-.3,16.37,16.37,0,0,0-16.37,16.37,16.65,16.65,0,0,0,.14,2.12,16.39,16.39,0,0,0-7.77,10.05c-.2,0-.36.1-.56.1a7.94,7.94,0,0,1-5.94-2.6,4.1,4.1,0,0,0-6.87,1.36,8.15,8.15,0,0,1-15,.64,4.09,4.09,0,0,0-7.09-.6,11.86,11.86,0,0,1-7,4.89,4.08,4.08,0,0,0-3.12,3.68,14.32,14.32,0,0,1-14.26,13.09l-.21,0a16.18,16.18,0,0,0-6.07-22.4,15.25,15.25,0,0,0,.15-2.13,16.14,16.14,0,0,0-18.94-16.12,14.06,14.06,0,0,1-1.53-6.39,14.33,14.33,0,0,1,14.33-14.32Zm44.89,51.94-3.77,10.32c-2.71-2.87-5.32-5.57-7.63-7.92a22.53,22.53,0,0,0,.82-2.65,20,20,0,0,0,5.39-3.21,16.22,16.22,0,0,0,5.19,3.46ZM302,309.1a24.6,24.6,0,0,0,3.15.9c2.48,2.78,4.91,5.65,7.13,8.68H286.68l-3.94-7.87a20.53,20.53,0,0,0,3.5-3.15,16.38,16.38,0,0,0,9.21,2.84A16.2,16.2,0,0,0,302,309.1Zm-59.78-15a4.09,4.09,0,0,0-4.09-4.09,8.19,8.19,0,0,1,0-16.37,7.56,7.56,0,0,1,2.86.53,4.1,4.1,0,0,0,5.55-3.16,16.37,16.37,0,0,1,31.51-3,4.09,4.09,0,0,0,5.64,2.3,8,8,0,0,1,3.55-.81,8.18,8.18,0,0,1,8.18,8.18,7.85,7.85,0,0,1-.59,3,4.1,4.1,0,0,0,2.73,5.51,8.17,8.17,0,0,1-2.14,16.05,8,8,0,0,1-6.58-3.33,4.09,4.09,0,0,0-7,.58,12.21,12.21,0,0,1-6.28,5.9.14.14,0,0,0-.11,0h0a12.17,12.17,0,0,1-14.36-4,4.11,4.11,0,0,0-2.71-1.64,3.9,3.9,0,0,0-.59,0,4,4,0,0,0-2.47.82,8,8,0,0,1-4.89,1.67A8.19,8.19,0,0,1,242.25,294.13Zm102.31,90a109.92,109.92,0,0,0-10.26-44.28,8.22,8.22,0,0,0-7.49-4.83H284.14a12.18,12.18,0,0,1-11-6.78L266,313.92a19.37,19.37,0,0,0,9.25.21l4.12,8.24a8.16,8.16,0,0,0,7.32,4.5h25.63a8.19,8.19,0,0,0,6.59-13.1c-1.06-1.42-2.2-2.76-3.31-4.14a22.59,22.59,0,0,0,11.19-7c1.86,1.91,3.84,4,5.9,6.14a8.11,8.11,0,0,0,5.91,2.56A8.23,8.23,0,0,0,346.3,306l4.43-12.1a16.39,16.39,0,0,0,10.64-5.82l.14.05-12,33.09a8.2,8.2,0,0,0,1.25,7.87l0,.07c.24.31,1,1.41,1.76,2.45a8.16,8.16,0,0,0,6.69,3.44h26.26a20.47,20.47,0,0,0,20.46-20.46V306a19.83,19.83,0,0,0,8.19,0v12.68a24.59,24.59,0,0,1-24.56,24.56h-17.8a8.15,8.15,0,0,0-7.72,10.83,89.79,89.79,0,0,1,5.06,29.72V421a24.44,24.44,0,0,0,6.3,16.37H330.6a132.18,132.18,0,0,0,14-53.2Z" transform="translate(-174.57 -200)"/><path d="M317.19,236.67a20.45,20.45,0,0,0,27.33-12.08,4.1,4.1,0,0,0-7.74-2.7,12.27,12.27,0,0,1-16.39,7.25,4.09,4.09,0,0,0-3.2,7.53Z" transform="translate(-174.57 -200)"/></g></g><g id="f7002682-708b-4d0a-95aa-d30690f4b2a8" data-name="Calque 1"><rect x="16.93" y="240.18" width="328" height="20.32" rx="4.51" style="fill:#05a366;stroke:#000;stroke-miterlimit:10;stroke-width:5px"/></g><g id="a08e55bd-f06f-45f7-9ea8-2b54ef1115c9" data-name="Calque 3"><path d="M445.57,333.94a10.14,10.14,0,0,0,10.14-10.14v-4.51a10.14,10.14,0,1,0-20.28,0v4.51A10.14,10.14,0,0,0,445.57,333.94Z" transform="translate(-174.57 -200)" style="fill:#f2bb80"/><path d="M442.19,403.78l-3.38,27H451.2l5.71-30.45a9,9,0,0,0-3.56-8.95l-7-5.11-9.2,13.79Z" transform="translate(-174.57 -200)" style="fill:#f2bb80"/><path d="M361.08,397v17.49a2.78,2.78,0,0,0,2.78,2.79h0a2.78,2.78,0,0,0,2.49-1.54l3.74-7.47V397Z" transform="translate(-174.57 -200)" style="fill:#4398d1"/><path d="M437.68,439.83H455A2.93,2.93,0,0,0,458,436.9h0a2.92,2.92,0,0,0-1.31-2.44l-5.45-3.64H438.81Z" transform="translate(-174.57 -200)" style="fill:#4398d1"/><path d="M392.21,338.08l-17.62,27.4,6.76,4.51,20.28-22.54H412.9V333.94H399.79A9,9,0,0,0,392.21,338.08Z" transform="translate(-174.57 -200)" style="fill:#f2bb80"/><path d="M428.24,334.79a9.07,9.07,0,0,0-3.83-.85H412.9v13.51h6.76L408.87,365.7l24.3,11,11.27-18,7.34,3.34,6.55-13.1Z" transform="translate(-174.57 -200)" style="fill:#4398d1"/><path d="M491.75,336.19,485,331.68,464.72,352l-6.39-3-6.55,13.1,10.47,4.75a9,9,0,0,0,11.23-3.2Z" transform="translate(-174.57 -200)" style="fill:#f2bb80"/><polygon points="218.88 191.8 234.13 199.43 242.83 185.76 262.56 200.1 271.75 186.31 258.6 176.74 234.3 165.7 218.88 191.8" style="fill:#666"/><path d="M390.37,397H370.09v11.27l26.18,1.87a9,9,0,0,0,8.25-4.15l4.18-6.58-15.25-7.63Z" transform="translate(-174.57 -200)" style="fill:#f2bb80"/><path d="M450.09,310.26a10,10,0,0,1,1.11,4.52v4.51a10.14,10.14,0,0,1-10.14,10.14,10,10,0,0,1-4.52-1.11,10.11,10.11,0,0,0,19.17-4.52v-4.51A10.11,10.11,0,0,0,450.09,310.26Z" transform="translate(-174.57 -200)" style="fill:#e8a864"/><path d="M420.61,371l12.56,5.7,11.27-18,7.34,3.34,6.55-13.1-10.6-5A125,125,0,0,1,420.61,371Z" transform="translate(-174.57 -200)" style="fill:#3e8cc7"/><path d="M399,382.42l-5.55,9.38,15.25,7.63,8.7-13.67,19.73,14.34,9.2-13.79-13.16-9.57L420.61,371A86.07,86.07,0,0,1,399,382.42Z" transform="translate(-174.57 -200)" style="fill:#595959"/><path d="M445.57,336.19A12.41,12.41,0,0,0,458,323.8v-4.51a12.4,12.4,0,0,0-24.79,0v4.51A12.41,12.41,0,0,0,445.57,336.19Zm-7.89-16.9a7.89,7.89,0,0,1,15.77,0v4.51a7.89,7.89,0,0,1-15.77,0Z" transform="translate(-174.57 -200)"/><path d="M363.86,419.55a5,5,0,0,0,4.51-2.78l3.07-6.13,24.68,1.77a11.29,11.29,0,0,0,10.31-5.19L418,389l21.78,15.83-4.35,34.72a2.25,2.25,0,0,0,1.95,2.52H455a5.18,5.18,0,0,0,2.88-9.5l-4.23-2.81,5.43-29a11.31,11.31,0,0,0-4.43-11.19L436.2,376.15l9.11-14.57,16,7.27a11.22,11.22,0,0,0,14-4l18.28-27.42a2.25,2.25,0,0,0-.62-3.12h0l-6.76-4.51a2.26,2.26,0,0,0-2.85.28l-19.15,19.15-35-16.49a11.39,11.39,0,0,0-4.8-1.06H399.79a11.22,11.22,0,0,0-9.47,5.19L372.7,364.26a2.26,2.26,0,0,0,.64,3.09l6.76,4.51a2.25,2.25,0,0,0,2.93-.37l19.6-21.78H415.7l-26.62,45.06h-28a2.26,2.26,0,0,0-2.26,2.25v17.49A5,5,0,0,0,363.86,419.55Zm91.54,16.78a.67.67,0,0,1,.22.93.7.7,0,0,1-.59.32h-14.8l.57-4.51h9.72ZM454.69,400l-5.36,28.62h-8l3.06-24.51a2.23,2.23,0,0,0-.9-2.1l-3.32-2.41,6.7-10,5.13,3.73A6.78,6.78,0,0,1,454.69,400Zm-11.44-13.09-6.7,10-17.82-13a2.25,2.25,0,0,0-3.15.5.83.83,0,0,0-.08.12l-7.61,12-11.26-5.64,13.16-22.28L432,378.71Zm23.06-33.31,19-19,3.35,2.23-17,25.55a6.74,6.74,0,0,1-8.42,2.4L454.84,361l4.53-9,4.39,2.07A2.24,2.24,0,0,0,466.31,353.55Zm-64.68-8.35A2.23,2.23,0,0,0,400,346L381,367l-3.29-2.2,16.42-25.54a6.7,6.7,0,0,1,5.68-3.1h10.85v9Zm20,1.13a2.25,2.25,0,0,0-1.95-1.13h-4.51v-9h9.25a6.84,6.84,0,0,1,2.88.64l28,13.18-4.54,9.1-5.38-2.44a2.25,2.25,0,0,0-2.84.86l-10.22,16.35-20.22-9.19,9.51-16.09A2.25,2.25,0,0,0,421.61,346.33Zm-31.24,52.95a2.28,2.28,0,0,0,1.94-1.11l2-3.4,11.14,5.56-2.84,4.47a6.79,6.79,0,0,1-6.19,3.11l-24.09-1.72v-6.91Zm-27,0h4.51v8.48l-3.5,7a.55.55,0,0,1-1-.23Z" transform="translate(-174.57 -200)"/></g><g id="b2d93e92-5d19-4f62-b7e5-3f2c83f7d94d" data-name="Calque 4"><circle cx="103.11" cy="181.56" r="7.26" style="fill:#bdd186"/><path d="M284.65,379.53H270.72a7.11,7.11,0,0,0-.29,2,7.26,7.26,0,0,0,14.52,0A7.12,7.12,0,0,0,284.65,379.53Z" transform="translate(-174.57 -200)" style="opacity:0.100000001490116;isolation:isolate"/><circle cx="82.47" cy="181.56" r="7.26" style="fill:#bdd186"/><path d="M254.73,379.53a40.84,40.84,0,0,0-4.72.27,7.26,7.26,0,1,0,14.3,1.76,7.12,7.12,0,0,0-.3-2Z" transform="translate(-174.57 -200)" style="opacity:0.100000001490116;isolation:isolate"/><circle cx="63.12" cy="185.7" r="7.26" style="fill:#bdd186"/><path d="M230.66,387.47a7.25,7.25,0,1,0,12.69-6.31A40.24,40.24,0,0,0,230.66,387.47Z" transform="translate(-174.57 -200)" style="opacity:0.100000001490116;isolation:isolate"/><circle cx="47.29" cy="200.05" r="7.26" style="fill:#bdd186"/><path d="M224.38,393.25A40.43,40.43,0,0,0,217,405.42a7.25,7.25,0,1,0,7.39-12.17Z" transform="translate(-174.57 -200)" style="opacity:0.100000001490116;isolation:isolate"/><circle cx="29.28" cy="214.4" r="7.26" style="fill:#bdd186"/><path d="M196.61,414.1c0,.1,0,.2,0,.3a7.26,7.26,0,1,0,13.8-3.12Z" transform="translate(-174.57 -200)" style="opacity:0.100000001490116;isolation:isolate"/><path d="M346,392.05a5,5,0,0,0-5,5V401h-6.7v-3.9a5,5,0,1,0-10,0V401H317A23.41,23.41,0,0,0,294,381.56H256.42a40.46,40.46,0,0,0-38,26.65,7.85,7.85,0,0,1-5.8,5l-30.53,6.23a5.88,5.88,0,0,0,1.17,11.64H341.52a9.52,9.52,0,0,0,9.52-9.52V397.07A5,5,0,0,0,346,392.05Z" transform="translate(-174.57 -200)" style="fill:#97b05f"/><path d="M324.28,419.57a2.77,2.77,0,0,1-2.78-2.78v-3.5a2.78,2.78,0,1,1,5.56,0v3.5A2.77,2.77,0,0,1,324.28,419.57Z" transform="translate(-174.57 -200)" style="fill:#fff"/><path d="M333.57,419.57a2.78,2.78,0,0,1-2.79-2.78v-3.5a2.79,2.79,0,1,1,5.57,0v3.5A2.78,2.78,0,0,1,333.57,419.57Z" transform="translate(-174.57 -200)" style="fill:#fff"/><path d="M342.85,419.57a2.78,2.78,0,0,1-2.78-2.78v-3.5a2.79,2.79,0,1,1,5.57,0v3.5A2.78,2.78,0,0,1,342.85,419.57Z" transform="translate(-174.57 -200)" style="fill:#fff"/><path d="M286.65,423.17l-108.94,4a5.88,5.88,0,0,0,5.52,3.88h126.3A33.51,33.51,0,0,0,286.65,423.17Z" transform="translate(-174.57 -200)" style="fill:#f8e9b4"/><path d="M288.9,428h-5.29a2.77,2.77,0,0,1-2.74-2.37,7,7,0,0,0-13.82,2l.5,3.41h28A8.72,8.72,0,0,0,288.9,428Z" transform="translate(-174.57 -200)" style="opacity:0.150000005960464;isolation:isolate"/><path d="M243,428h-5.28a2.76,2.76,0,0,1-2.74-2.37,7,7,0,0,0-13.83,2l.5,3.41h28A8.75,8.75,0,0,0,243,428Z" transform="translate(-174.57 -200)" style="opacity:0.150000005960464;isolation:isolate"/><path d="M284,425.28h0a7,7,0,0,0-6.91-6h0a7,7,0,0,0-6.91,8l.85,5.83a6.62,6.62,0,0,0,6.55,5.67h20.82a2.39,2.39,0,0,0,2.38-2.39h0a8.76,8.76,0,0,0-8.76-8.76h-5.28A2.77,2.77,0,0,1,284,425.28Z" transform="translate(-174.57 -200)" style="fill:#bdd186"/><path d="M238.48,425.28h0a7,7,0,0,0-6.91-6h0a7,7,0,0,0-6.91,8l.85,5.83a6.64,6.64,0,0,0,6.56,5.67h20.81a2.39,2.39,0,0,0,2.39-2.39h0a8.76,8.76,0,0,0-8.76-8.76h-5.28A2.78,2.78,0,0,1,238.48,425.28Z" transform="translate(-174.57 -200)" style="fill:#bdd186"/><g style="opacity:0.100000001490116"><path d="M274.38,404.39a6.23,6.23,0,0,1-5.19-9.69,6.23,6.23,0,0,1,5.19-9.69,2.78,2.78,0,1,1,0,5.56.67.67,0,0,0,0,1.34,2.79,2.79,0,0,1,0,5.57.67.67,0,1,0,0,1.34,2.79,2.79,0,0,1,0,5.57Z" transform="translate(-174.57 -200)"/><path d="M249.89,404.39a6.23,6.23,0,0,1-5.19-9.69,6.23,6.23,0,0,1,5.19-9.69,2.78,2.78,0,0,1,0,5.56.67.67,0,1,0,0,1.34,2.79,2.79,0,0,1,0,5.57.67.67,0,1,0,0,1.34,2.79,2.79,0,0,1,0,5.57Z" transform="translate(-174.57 -200)"/><path d="M262.13,404.39a6.25,6.25,0,0,1-6.23-6.24,6.18,6.18,0,0,1,1-3.45,6.24,6.24,0,0,1,5.19-9.69,2.78,2.78,0,1,1,0,5.56.67.67,0,0,0,0,1.34,2.79,2.79,0,1,1,0,5.57.67.67,0,0,0,0,1.34,2.79,2.79,0,1,1,0,5.57Z" transform="translate(-174.57 -200)"/><path d="M237.64,411.29a6.23,6.23,0,0,1-5.19-9.69,6.23,6.23,0,0,1,5.19-9.69,2.79,2.79,0,0,1,0,5.57.67.67,0,1,0,0,1.34,2.79,2.79,0,0,1,0,5.57.67.67,0,1,0,0,1.33,2.79,2.79,0,0,1,0,5.57Z" transform="translate(-174.57 -200)"/></g><path d="M346,389.27a7.8,7.8,0,0,0-7.8,7.8v1.12H337.1v-1.12a7.8,7.8,0,0,0-15.6,0v1.12h-2.23A26.12,26.12,0,0,0,294,378.77h-6.64a10,10,0,0,0-19.29,0H266.7a10,10,0,0,0-19.54,1l-1.16.27a10,10,0,0,0-18.35,5.64,9.92,9.92,0,0,0,.64,3.51c-.68.59-1.36,1.2-2,1.83a10,10,0,0,0-10.76,16.79,5.06,5.06,0,0,1-2.56,2.35,10,10,0,0,0-19.14,4l-12.32,2.52a8.66,8.66,0,0,0,1.73,17.14h39.59a9.46,9.46,0,0,0,9.25,7.72h20.81a5.18,5.18,0,0,0,5.17-5.17,11.93,11.93,0,0,0-.28-2.55h10.6a9.46,9.46,0,0,0,9.24,7.72h20.82a5.18,5.18,0,0,0,5.17-5.17,11.33,11.33,0,0,0-.29-2.55h38.21a12.32,12.32,0,0,0,12.31-12.3V397.07A7.81,7.81,0,0,0,346,389.27Zm-68.34-12.19a4.45,4.45,0,0,1,3.49,1.69h-7A4.46,4.46,0,0,1,277.69,377.08Zm-20.64,0a4.47,4.47,0,0,1,3.5,1.69h-4.13c-1,0-2,0-3,.11A4.45,4.45,0,0,1,257.05,377.08Zm-19.35,4.14a4.51,4.51,0,0,1,2.46.75,43.3,43.3,0,0,0-6.93,3.59A4.48,4.48,0,0,1,237.7,381.22Zm-15.84,14.36h.35a42.22,42.22,0,0,0-4.24,6.66,4.38,4.38,0,0,1-.58-2.2A4.46,4.46,0,0,1,221.86,395.58Zm-18,14.35a4.46,4.46,0,0,1,3.36,1.53L199.6,413A4.48,4.48,0,0,1,203.86,409.93ZM232.07,436a3.86,3.86,0,0,1-3.8-3.28l-.85-5.83a4.2,4.2,0,0,1,4.15-4.81,4.23,4.23,0,0,1,4.16,3.6,5.6,5.6,0,0,0,5.5,4.75h5.28a6,6,0,0,1,6,5.58h-20.4Zm45.54,0a3.86,3.86,0,0,1-3.8-3.28L273,426.9a4.2,4.2,0,0,1,4.16-4.81,4.21,4.21,0,0,1,4.15,3.6,5.6,5.6,0,0,0,5.5,4.75h5.28a6,6,0,0,1,6,5.58H277.61Zm70.65-26.56h-30.8a2.79,2.79,0,1,0,0,5.57h30.8v6.54a6.75,6.75,0,0,1-6.74,6.74H300.25a11.47,11.47,0,0,0-8.2-3.43h-5.27a9.77,9.77,0,0,0-19.33,2.82l.09.59H254.71a11.54,11.54,0,0,0-8.2-3.42h-5.27a9.77,9.77,0,1,0-19.33,2.82l.08.59H183.23a3.09,3.09,0,0,1-.62-6.12l30.54-6.24a10.66,10.66,0,0,0,7.85-6.77,37.78,37.78,0,0,1,35.42-24.82H294a20.56,20.56,0,0,1,20.32,17.1,2.77,2.77,0,0,0,2.74,2.31h7.25a2.77,2.77,0,0,0,2.78-2.78v-3.91a2.24,2.24,0,0,1,4.47,0V401a2.78,2.78,0,0,0,2.78,2.78H341a2.77,2.77,0,0,0,2.78-2.78v-3.91a2.24,2.24,0,0,1,4.47,0v12.39ZM306.14,392a6.12,6.12,0,0,0-6.11,6.11,2.79,2.79,0,0,0,5.57,0,.54.54,0,1,1,1.08,0,2.79,2.79,0,0,0,5.57,0A6.12,6.12,0,0,0,306.14,392Zm-15.06,0a6.12,6.12,0,0,0-6.11,6.11,2.78,2.78,0,0,0,5.56,0,.55.55,0,0,1,1.09,0,2.78,2.78,0,0,0,5.56,0A6.11,6.11,0,0,0,291.08,392Z" transform="translate(-174.57 -200)"/></g></svg>