<?xml version="1.0" encoding="utf-8"?>
<!-- Generator: Adobe Illustrator 23.0.2, SVG Export Plug-In . SVG Version: 6.00 Build 0)  -->
<svg version="1.1" id="Calque_1" xmlns="http://www.w3.org/2000/svg" xmlns:xlink="http://www.w3.org/1999/xlink" x="0px" y="0px"
	 viewBox="0 0 100 125" style="enable-background:new 0 0 100 125;" xml:space="preserve">
<g fill="#fff">
	<g>
		<rect x="27.4" y="42.2" transform="matrix(0.7071 -0.7071 0.7071 0.7071 -22.0896 49.8091)" width="43.3" height="18.8"/>
		<path d="M18.5,68.8c-0.4,0.4-0.6,0.8-0.8,1.4L15,82.3c-0.5,2,1.3,3.8,3.4,3.4l12-2.9c0.5-0.1,1-0.4,1.4-0.8l3.3-3.3L21.8,65.5
			L18.5,68.8z"/>
		<path d="M82.1,27.8l-9.3-9.3c-1.1-1.1-2.9-1.1-4,0l-5.9,5.9l13.3,13.3l5.9-5.9C83.2,30.7,83.2,28.9,82.1,27.8z"/>
	</g>
</g>
</svg>
