<svg id="e75b686c-0ba3-455e-b98a-3eec1b295c8b" data-name="Calque 1" xmlns="http://www.w3.org/2000/svg" xmlns:xlink="http://www.w3.org/1999/xlink" viewBox="0 0 300 300"><defs><clipPath id="a19a8713-a363-4503-8747-cea5cd8850f2"><rect x="17" y="16" width="267.5" height="267.5" style="fill:none"/></clipPath><clipPath id="bcab8eab-a275-47e2-9ae2-919f50f0fa55"><path d="M80.36,44.16H52.2A28.16,28.16,0,0,0,24,72.32h0v56.31A28.16,28.16,0,0,0,52.2,156.79H249.3a28.16,28.16,0,0,0,28.16-28.16h0V72.32A28.16,28.16,0,0,0,249.3,44.16H80.36Z" style="fill:none;stroke:#000;stroke-miterlimit:10;stroke-width:8px"/></clipPath></defs><title>trPlan de travail 1</title><g style="clip-path:url(#a19a8713-a363-4503-8747-cea5cd8850f2)"><path d="M277.46,128.63a28.16,28.16,0,0,1-28.16,28.16H52.2A28.16,28.16,0,0,1,24,128.63V72.32A28.16,28.16,0,0,1,52.2,44.16H249.3a28.16,28.16,0,0,1,28.16,28.16Z" style="fill:#ffcc4d"/></g><g style="clip-path:url(#bcab8eab-a275-47e2-9ae2-919f50f0fa55)"><path d="M38.12,37.12-88.59,163.83h35.2L73.32,37.12Z" style="fill:#292f33;stroke:#000;stroke-miterlimit:10;stroke-width:3px"/><path d="M115.55,37.12-11.16,163.83H24L150.75,37.12Z" style="fill:#292f33;stroke:#000;stroke-miterlimit:10;stroke-width:3px"/><path d="M193,37.12,66.28,163.83h35.19L228.18,37.12Z" style="fill:#292f33;stroke:#000;stroke-miterlimit:10;stroke-width:3px"/><path d="M270.42,37.12,143.71,163.83h35.2L305.62,37.12Z" style="fill:#292f33;stroke:#000;stroke-miterlimit:10;stroke-width:3px"/><path d="M347.86,37.12,221.14,163.83h35.2L383.05,37.12Z" style="fill:#292f33;stroke:#000;stroke-miterlimit:10;stroke-width:3px"/></g><path d="M80.36,44.16H52.2A28.16,28.16,0,0,0,24,72.32h0v56.31A28.16,28.16,0,0,0,52.2,156.79H249.3a28.16,28.16,0,0,0,28.16-28.16h0V72.32A28.16,28.16,0,0,0,249.3,44.16H80.36Z" style="fill:none;stroke:#000;stroke-miterlimit:10;stroke-width:8px"/><g style="clip-path:url(#a19a8713-a363-4503-8747-cea5cd8850f2)"><path d="M87.39,255.34H52.2V156.79H87.39Zm161.91,0H214.11V156.79H249.3Z" style="fill:#99aab5;stroke:#000;stroke-miterlimit:10;stroke-width:8px"/></g></svg>