<?xml version="1.0" encoding="utf-8"?>
<!-- Generator: Adobe Illustrator 25.3.1, SVG Export Plug-In . SVG Version: 6.00 Build 0)  -->
<svg version="1.1" id="Layer_1" xmlns:xodm="http://www.corel.com/coreldraw/odm/2003"
	 xmlns="http://www.w3.org/2000/svg" xmlns:xlink="http://www.w3.org/1999/xlink" x="0px" y="0px" viewBox="0 0 841.9 346"
	 style="enable-background:new 0 0 841.9 346;" xml:space="preserve">
<style type="text/css">
	.st0{fill-rule:evenodd;clip-rule:evenodd;fill:url(#SVGID_1_);}
	.st1{clip-path:url(#SVGID_3_);}
	.st2{fill-rule:evenodd;clip-rule:evenodd;fill:#81FCFF;fill-opacity:0.2;}
	.st3{fill:none;}
	.st4{fill-rule:evenodd;clip-rule:evenodd;fill:#FFFFFF;fill-opacity:0.4;}
	.st5{fill-rule:evenodd;clip-rule:evenodd;fill:#0F9AC1;}
	.st6{fill-rule:evenodd;clip-rule:evenodd;fill:#5ED3F4;}
	.st7{fill-rule:evenodd;clip-rule:evenodd;fill:#FFFFFF;fill-opacity:0.2;}
	.st8{fill:url(#SVGID_4_);}
	.st9{clip-path:url(#SVGID_6_);}
	.st10{fill-rule:evenodd;clip-rule:evenodd;fill:url(#SVGID_7_);filter:url(#Adobe_OpacityMaskFilter);}
	.st11{mask:url(#id2_1_);fill-rule:evenodd;clip-rule:evenodd;fill:#FFFFFF;}
	.st12{fill-rule:evenodd;clip-rule:evenodd;fill:#FFFFFF;}
	.st13{fill:url(#SVGID_8_);}
	.st14{clip-path:url(#SVGID_10_);}
	.st15{fill-rule:evenodd;clip-rule:evenodd;fill:url(#SVGID_11_);filter:url(#Adobe_OpacityMaskFilter_1_);}
	.st16{mask:url(#id5_1_);fill-rule:evenodd;clip-rule:evenodd;fill:#FFFFFF;}
	.st17{fill:url(#SVGID_12_);}
	.st18{clip-path:url(#SVGID_14_);}
	.st19{fill-rule:evenodd;clip-rule:evenodd;fill:url(#SVGID_15_);filter:url(#Adobe_OpacityMaskFilter_2_);}
	.st20{mask:url(#id8_1_);fill-rule:evenodd;clip-rule:evenodd;fill:#FFFFFF;}
	.st21{fill:url(#SVGID_16_);}
	.st22{clip-path:url(#SVGID_18_);}
	.st23{fill-rule:evenodd;clip-rule:evenodd;fill:url(#SVGID_19_);filter:url(#Adobe_OpacityMaskFilter_3_);}
	.st24{mask:url(#id11_1_);fill-rule:evenodd;clip-rule:evenodd;fill:#FFFFFF;}
	.st25{fill:url(#SVGID_20_);}
	.st26{clip-path:url(#SVGID_22_);}
	.st27{fill-rule:evenodd;clip-rule:evenodd;fill:url(#SVGID_23_);filter:url(#Adobe_OpacityMaskFilter_4_);}
	.st28{mask:url(#id14_1_);fill-rule:evenodd;clip-rule:evenodd;fill:#FFFFFF;}
	.st29{fill:url(#SVGID_24_);}
	.st30{clip-path:url(#SVGID_26_);}
	.st31{fill-rule:evenodd;clip-rule:evenodd;fill:url(#SVGID_27_);filter:url(#Adobe_OpacityMaskFilter_5_);}
	.st32{mask:url(#id17_1_);fill-rule:evenodd;clip-rule:evenodd;fill:#FFFFFF;}
	.st33{fill-rule:evenodd;clip-rule:evenodd;fill:url(#SVGID_28_);}
	.st34{fill-rule:evenodd;clip-rule:evenodd;fill:#FFFFFF;fill-opacity:0.102;}
	.st35{fill:url(#SVGID_29_);}
	.st36{clip-path:url(#SVGID_31_);}
	.st37{fill-rule:evenodd;clip-rule:evenodd;fill:url(#SVGID_32_);filter:url(#Adobe_OpacityMaskFilter_6_);}
	.st38{mask:url(#id20_1_);fill-rule:evenodd;clip-rule:evenodd;fill:#EEB6E2;}
	.st39{fill-rule:evenodd;clip-rule:evenodd;fill:url(#SVGID_33_);}
	.st40{fill-rule:evenodd;clip-rule:evenodd;fill:url(#SVGID_34_);}
	.st41{fill:url(#SVGID_35_);}
	.st42{clip-path:url(#SVGID_37_);}
	.st43{fill-rule:evenodd;clip-rule:evenodd;fill:url(#SVGID_38_);filter:url(#Adobe_OpacityMaskFilter_7_);}
	.st44{mask:url(#id23_1_);fill-rule:evenodd;clip-rule:evenodd;fill:#EEB6E2;}
	.st45{fill-rule:evenodd;clip-rule:evenodd;fill:url(#SVGID_39_);}
	.st46{fill-rule:evenodd;clip-rule:evenodd;fill:url(#SVGID_40_);}
	.st47{fill-rule:evenodd;clip-rule:evenodd;fill:url(#SVGID_41_);}
	.st48{fill:url(#SVGID_42_);}
	.st49{fill-rule:evenodd;clip-rule:evenodd;fill:url(#SVGID_43_);}
	.st50{fill-rule:evenodd;clip-rule:evenodd;fill:url(#SVGID_44_);}
	.st51{fill:url(#SVGID_45_);}
	.st52{fill-rule:evenodd;clip-rule:evenodd;fill:url(#SVGID_46_);}
</style>
<g id="Layer_x0020_1">
	
		<linearGradient id="SVGID_1_" gradientUnits="userSpaceOnUse" x1="973.0497" y1="-719.8433" x2="973.0497" y2="-193.3084" gradientTransform="matrix(0.3559 0 0 -0.3559 74.6591 -19.1524)">
		<stop  offset="0" style="stop-color:#24BFF0"/>
		<stop  offset="1" style="stop-color:#47D4FF"/>
	</linearGradient>
	<path class="st0" d="M102.8,230.7L72,71.5l68.5-23.8l1.1,16.3l5.5,50.8l0.2-0.3l0.2-0.3l0.2-0.3l0.2-0.3l0.3-0.3l0.3-0.3l0.3-0.3
		l0.3-0.3l2.2-2.5l2.3-2.4l2.5-2.2l2.6-2l2.6-1.8l2.7-1.7l2.8-1.5l2.9-1.4l3-1.2l3-1.1l3.1-0.9l3.2-0.8l3.2-0.6l3.3-0.5l3.3-0.4
		l3.3-0.2l4.6-0.1l4.4,0.1l4.1,0.3l3.9,0.5l3.7,0.7l3.6,1l3.4,1.2l3.3,1.5l3.2,1.7l3.1,2l3,2.2l2.9,2.5l2.9,2.7l2.8,3l2.8,3.3
		l2.8,3.6l0.3-1.3l0.3-1.2l0.3-1.2l0.3-1.2l0.4-1.2l0.4-1.2l0.4-1.2l0.4-1.2l2.6-7l3-6.5l3.4-6.1l3.8-5.6l4.1-5.2l4.5-4.7l4.8-4.2
		l5.2-3.8l5.5-3.3l5.8-2.9l6.1-2.4l6.3-1.9l6.6-1.5l6.8-1.1l7-0.6l7.2-0.1l6.1,0.3l6,0.6l6,1l5.9,1.4l5.8,1.7l5.6,2.1l5.5,2.4
		l5.3,2.7l5.1,3.1l4.9,3.4l4.7,3.7l4.4,4.1l4.1,4.4l3.8,4.7l3.5,5l3.1,5.3l45.7,0.1l-0.2,5.2l-0.2,5.2l-0.2,5.2l-0.2,5.2l-0.2,5.2
		l-0.3,5.2l-0.3,5.2l-0.3,5.2l-0.3,5.2l-0.3,5.2l-0.3,5.2l-0.3,5.2l-0.3,5.2l-0.3,5.2l-0.3,5.2l-0.3,5.2l0.2,1.7l0.4,1.4l0.6,1.1
		l0.7,0.8l1,0.5l1.2,0.3l1.5,0.2l1.7,0.1l2.7-0.2l2.3-0.6l1.9-0.9l1.5-1.3l1.2-1.7l0.9-2l0.6-2.3l0.4-2.6l0.1-4.8l0.1-4.8l0.1-4.8
		l0.1-4.8l0.1-4.8l0.1-4.8l0.1-4.8l0.1-4.8l0.1-4.8l0.1-4.8l0.1-4.8l0.1-4.8l0.1-4.8l0.1-4.8l0.1-4.8l0.1-4.8l37,0.6l-0.4-3.8l0-3.9
		l0.4-3.8l0.9-3.8l1.2-3.7l1.6-3.6l2-3.4l2.3-3.2l2.6-3l2.9-2.7l3.1-2.4l3.3-2l3.5-1.6l3.7-1.2l3.9-0.7l4-0.2l4.3,0.3l4.1,0.8
		l3.8,1.3l3.6,1.8l3.3,2.2l3,2.6l2.7,2.9l2.3,3.2l1.9,3.4l1.5,3.7l1.1,3.8l0.6,3.9l0.1,4l-0.4,4.1l-1,4.1l-1.6,4.1l96.9,6.8l-8.2,40
		l-44,39.5l47.1-1.2l1.7-7l-1.4-2.6l-1.1-2.7l-0.7-2.8l-0.4-2.8l0-2.9l0.3-2.9l0.7-2.8l1-2.7l1.7-3.2l2.1-3.1l2.4-2.8l2.7-2.5l3-2.1
		l3.2-1.6l3.4-1.1l3.5-0.4l5.2,0.3l4.9,1l4.5,1.8l4,2.5l3.3,3.3l2.6,4l1.7,4.7l0.7,5.4v0.2l4.6-1l4.6-0.5l4.5,0l4.4,0.4l4.3,0.9
		l4.1,1.3l3.9,1.7l3.7,2.1l3.4,2.5l3.1,2.9l2.8,3.2l2.4,3.5l2,3.9l1.6,4.2l1.1,4.5l0.7,4.7l0.2,3l0,3.1l-0.2,3.1l-0.4,3.1l-0.6,3
		l-0.8,3l-1,2.9l-1.2,2.8l-1.6,3.2l-1.8,3l-1.9,2.8l-2.1,2.6l-2.2,2.5l-2.4,2.3l-2.5,2.1l-2.6,1.8l-2.8,1.6L743,245l-3,1.2l-3.1,0.9
		l-3.3,0.7l-3.3,0.4l-3.5,0.1l-3.6-0.1l-3.5-0.4l-3.5-0.7l-3.4-0.9l-3.3-1.2l-3.2-1.5l-3-1.7l-2.9-2l-2.7-2.3l-4.1,4.7l-17-1.3
		l-1.9,1l-2,0.7l-2.1,0.5l-2.1,0.3h-2.2l-2.2-0.3l-2.1-0.5l-2.1-0.7l-3.1,5L548,237.4l-72.4-1.5l0-2.1l-2.7,1.2l-2.8,1l-2.9,0.9
		l-2.9,0.7l-2.9,0.5l-3,0.4l-3,0.2l-3,0l-3-0.2l-3-0.3l-2.9-0.5l-2.9-0.7l-2.9-0.8l-2.8-1l-2.7-1.2l-2.7-1.4l-0.3,6.6l-0.8,6.5
		l-1.3,6.3l-1.8,6l-2.2,5.8l-2.7,5.5l-3.2,5.1l-3.6,4.7l-4.1,4.3l-4.5,3.8l-4.9,3.3l-5.4,2.8l-5.8,2.2l-6.2,1.6l-6.6,1l-7,0.3
		l-6.2-0.4l-6-0.9l-5.8-1.4l-5.5-1.8l-5.2-2.3l-4.9-2.8l-4.6-3.2l-4.3-3.6l-3.9-4l-3.5-4.4l-3.1-4.7l-2.7-5l-2.2-5.3l-1.8-5.6
		l-1.3-5.9l-0.8-6.1l-3.4-1.2l-3.5-1.4l-3.5-1.6l-3.5-1.8l-3.4-1.9l-3.4-2.1l-3.3-2.2l-3.3-2.4L277,224l-3-2.6l-2.9-2.7l-2.8-2.8
		l-2.6-2.9l-2.4-3l-2.2-3l-2-3.1l-2,3.5l-2.2,3.3l-2.4,3.1l-2.6,2.9l-2.7,2.6l-2.9,2.4l-3,2.2l-3.2,2l-3.3,1.8l-3.4,1.6l-3.5,1.4
		l-3.7,1.2l-3.7,1l-3.8,0.7l-3.9,0.5l-4,0.3l-3.4,0.1h-3.4l-3.4-0.1l-3.4-0.2l-3.4-0.4l-3.3-0.5l-3.3-0.7l-3.3-0.8l-3.2-1l-3.1-1.2
		l-3-1.4l-3-1.6l-2.9-1.8l-2.8-2l-2.7-2.2l-2.6-2.4l2.1,18.9l-42.5,4.2L102.8,230.7L102.8,230.7z M333.4,192.1l2.8-0.1l2.7-0.3
		l2.5-0.4l2.4-0.6l2.3-0.8l2.1-1l2-1.2l1.9-1.3l1.8-1.5l1.6-1.7l1.5-1.8l1.4-2l1.3-2.1l1.2-2.3l1.1-2.4l0.9-2.5l1.3-4.1l1.1-4.3
		l0.9-4.4l0.7-4.5l0.4-4.6l0.1-4.5l-0.3-4.4l-0.7-4.2l-1.1-4l-1.6-3.7l-2.1-3.3l-2.7-2.9l-3.3-2.4l-3.9-1.8l-4.6-1.1l-5.3-0.4
		l-3.6,0.1l-3.3,0.4l-3.1,0.6l-2.9,0.8l-2.7,1l-2.5,1.2l-2.3,1.4l-2.1,1.6l-1.7,1.5l-1.5,1.6l-1.4,1.7l-1.3,1.8l-1.1,1.9l-1,2
		l-0.9,2.1l-0.8,2.1l-0.7,2.2l-0.6,2.2l-0.5,2.2l-0.4,2.2l-0.3,2.2l-0.2,2.2l-0.1,2.2l-0.1,2.2l0,3.8l0.1,3.7l0.3,3.5l0.5,3.4
		l0.6,3.2l0.9,3l1.1,2.8l1.3,2.6l1.6,2.4l1.9,2.1l2.2,1.8l2.5,1.6l2.9,1.2l3.3,0.9l3.6,0.6l4.1,0.2L333.4,192.1z"/>
	<g>
		<defs>
			<path id="SVGID_2_" d="M102.8,230.7L72,71.5l68.5-23.8l1.1,16.3l5.5,50.8l0.2-0.3l0.2-0.3l0.2-0.3l0.2-0.3l0.3-0.3l0.3-0.3
				l0.3-0.3l0.3-0.3l2.2-2.5l2.3-2.4l2.5-2.2l2.6-2l2.6-1.8l2.7-1.7l2.8-1.5l2.9-1.4l3-1.2l3-1.1l3.1-0.9l3.2-0.8l3.2-0.6l3.3-0.5
				l3.3-0.4l3.3-0.2l4.6-0.1l4.4,0.1l4.1,0.3l3.9,0.5l3.7,0.7l3.6,1l3.4,1.2l3.3,1.5l3.2,1.7l3.1,2l3,2.2l2.9,2.5l2.9,2.7l2.8,3
				l2.8,3.3l2.8,3.6l0.3-1.3l0.3-1.2l0.3-1.2l0.3-1.2l0.4-1.2l0.4-1.2l0.4-1.2l0.4-1.2l2.6-7l3-6.5l3.4-6.1l3.8-5.6l4.1-5.2l4.5-4.7
				l4.8-4.2l5.2-3.8l5.5-3.3l5.8-2.9l6.1-2.4l6.3-1.9l6.6-1.5l6.8-1.1l7-0.6l7.2-0.1l6.1,0.3l6,0.6l6,1l5.9,1.4l5.8,1.7l5.6,2.1
				l5.5,2.4l5.3,2.7l5.1,3.1l4.9,3.4l4.7,3.7l4.4,4.1l4.1,4.4l3.8,4.7l3.5,5l3.1,5.3l45.7,0.1l-0.2,5.2l-0.2,5.2l-0.2,5.2l-0.2,5.2
				l-0.2,5.2l-0.3,5.2l-0.3,5.2l-0.3,5.2l-0.3,5.2l-0.3,5.2l-0.3,5.2l-0.3,5.2l-0.3,5.2l-0.3,5.2l-0.3,5.2l-0.3,5.2l0.2,1.7l0.4,1.4
				l0.6,1.1l0.7,0.8l1,0.5l1.2,0.3l1.5,0.2l1.7,0.1l2.7-0.2l2.3-0.6l1.9-0.9l1.5-1.3l1.2-1.7l0.9-2l0.6-2.3l0.4-2.6l0.1-4.8l0.1-4.8
				l0.1-4.8l0.1-4.8l0.1-4.8l0.1-4.8l0.1-4.8l0.1-4.8l0.1-4.8l0.1-4.8l0.1-4.8l0.1-4.8l0.1-4.8l0.1-4.8l0.1-4.8l0.1-4.8l37,0.6
				l-0.4-3.8l0-3.9l0.4-3.8l0.9-3.8l1.2-3.7l1.6-3.6l2-3.4l2.3-3.2l2.6-3l2.9-2.7l3.1-2.4l3.3-2l3.5-1.6l3.7-1.2l3.9-0.7l4-0.2
				l4.3,0.3l4.1,0.8l3.8,1.3l3.6,1.8l3.3,2.2l3,2.6l2.7,2.9l2.3,3.2l1.9,3.4l1.5,3.7l1.1,3.8l0.6,3.9l0.1,4l-0.4,4.1l-1,4.1
				l-1.6,4.1l96.9,6.8l-8.2,40l-44,39.5l47.1-1.2l1.7-7l-1.4-2.6l-1.1-2.7l-0.7-2.8l-0.4-2.8l0-2.9l0.3-2.9l0.7-2.8l1-2.7l1.7-3.2
				l2.1-3.1l2.4-2.8l2.7-2.5l3-2.1l3.2-1.6l3.4-1.1l3.5-0.4l5.2,0.3l4.9,1l4.5,1.8l4,2.5l3.3,3.3l2.6,4l1.7,4.7l0.7,5.4v0.2l4.6-1
				l4.6-0.5l4.5,0l4.4,0.4l4.3,0.9l4.1,1.3l3.9,1.7l3.7,2.1l3.4,2.5l3.1,2.9l2.8,3.2l2.4,3.5l2,3.9l1.6,4.2l1.1,4.5l0.7,4.7l0.2,3
				l0,3.1l-0.2,3.1l-0.4,3.1l-0.6,3l-0.8,3l-1,2.9l-1.2,2.8l-1.6,3.2l-1.8,3l-1.9,2.8l-2.1,2.6l-2.2,2.5l-2.4,2.3l-2.5,2.1l-2.6,1.8
				l-2.8,1.6L743,245l-3,1.2l-3.1,0.9l-3.3,0.7l-3.3,0.4l-3.5,0.1l-3.6-0.1l-3.5-0.4l-3.5-0.7l-3.4-0.9l-3.3-1.2l-3.2-1.5l-3-1.7
				l-2.9-2l-2.7-2.3l-4.1,4.7l-17-1.3l-1.9,1l-2,0.7l-2.1,0.5l-2.1,0.3h-2.2l-2.2-0.3l-2.1-0.5l-2.1-0.7l-3.1,5L548,237.4l-72.4-1.5
				l0-2.1l-2.7,1.2l-2.8,1l-2.9,0.9l-2.9,0.7l-2.9,0.5l-3,0.4l-3,0.2l-3,0l-3-0.2l-3-0.3l-2.9-0.5l-2.9-0.7l-2.9-0.8l-2.8-1
				l-2.7-1.2l-2.7-1.4l-0.3,6.6l-0.8,6.5l-1.3,6.3l-1.8,6l-2.2,5.8l-2.7,5.5l-3.2,5.1l-3.6,4.7l-4.1,4.3l-4.5,3.8l-4.9,3.3l-5.4,2.8
				l-5.8,2.2l-6.2,1.6l-6.6,1l-7,0.3l-6.2-0.4l-6-0.9l-5.8-1.4l-5.5-1.8l-5.2-2.3l-4.9-2.8l-4.6-3.2l-4.3-3.6l-3.9-4l-3.5-4.4
				l-3.1-4.7l-2.7-5l-2.2-5.3l-1.8-5.6l-1.3-5.9l-0.8-6.1l-3.4-1.2l-3.5-1.4l-3.5-1.6l-3.5-1.8l-3.4-1.9l-3.4-2.1l-3.3-2.2l-3.3-2.4
				L277,224l-3-2.6l-2.9-2.7l-2.8-2.8l-2.6-2.9l-2.4-3l-2.2-3l-2-3.1l-2,3.5l-2.2,3.3l-2.4,3.1l-2.6,2.9l-2.7,2.6l-2.9,2.4l-3,2.2
				l-3.2,2l-3.3,1.8l-3.4,1.6l-3.5,1.4l-3.7,1.2l-3.7,1l-3.8,0.7l-3.9,0.5l-4,0.3l-3.4,0.1h-3.4l-3.4-0.1l-3.4-0.2l-3.4-0.4
				l-3.3-0.5l-3.3-0.7l-3.3-0.8l-3.2-1l-3.1-1.2l-3-1.4l-3-1.6l-2.9-1.8l-2.8-2l-2.7-2.2l-2.6-2.4l2.1,18.9l-42.5,4.2L102.8,230.7
				L102.8,230.7z M333.4,192.1l2.8-0.1l2.7-0.3l2.5-0.4l2.4-0.6l2.3-0.8l2.1-1l2-1.2l1.9-1.3l1.8-1.5l1.6-1.7l1.5-1.8l1.4-2l1.3-2.1
				l1.2-2.3l1.1-2.4l0.9-2.5l1.3-4.1l1.1-4.3l0.9-4.4l0.7-4.5l0.4-4.6l0.1-4.5l-0.3-4.4l-0.7-4.2l-1.1-4l-1.6-3.7l-2.1-3.3l-2.7-2.9
				l-3.3-2.4l-3.9-1.8l-4.6-1.1l-5.3-0.4l-3.6,0.1l-3.3,0.4l-3.1,0.6l-2.9,0.8l-2.7,1l-2.5,1.2l-2.3,1.4l-2.1,1.6l-1.7,1.5l-1.5,1.6
				l-1.4,1.7l-1.3,1.8l-1.1,1.9l-1,2l-0.9,2.1l-0.8,2.1l-0.7,2.2l-0.6,2.2l-0.5,2.2l-0.4,2.2l-0.3,2.2l-0.2,2.2l-0.1,2.2l-0.1,2.2
				l0,3.8l0.1,3.7l0.3,3.5l0.5,3.4l0.6,3.2l0.9,3l1.1,2.8l1.3,2.6l1.6,2.4l1.9,2.1l2.2,1.8l2.5,1.6l2.9,1.2l3.3,0.9l3.6,0.6l4.1,0.2
				L333.4,192.1z"/>
		</defs>
		<clipPath id="SVGID_3_">
			<use xlink:href="#SVGID_2_"  style="overflow:visible;"/>
		</clipPath>
		<g class="st1">
			<g id="_1586272405648">
				<polygon id="_1" class="st2" points="229.9,13.7 288,13.7 124.8,298.9 66.6,298.9 				"/>
				<polygon class="st2" points="322.1,13.7 348.2,13.7 184.9,298.9 158.8,298.9 				"/>
				<polygon class="st2" points="555.6,13.7 613.7,13.7 450.4,298.9 392.3,298.9 				"/>
				<polygon class="st2" points="437.8,13.7 470.9,13.7 307.6,298.9 274.5,298.9 				"/>
				<polygon class="st2" points="712.7,13.7 729.3,13.7 566,298.9 549.5,298.9 				"/>
				<polygon class="st2" points="756,13.7 810.3,13.7 647,298.9 592.7,298.9 				"/>
			</g>
		</g>
	</g>
	<path class="st3" d="M102.8,230.7L72,71.5l68.5-23.8l1.1,16.3l5.5,50.8l0.2-0.3l0.2-0.3l0.2-0.3l0.2-0.3l0.3-0.3l0.3-0.3l0.3-0.3
		l0.3-0.3l2.2-2.5l2.3-2.4l2.5-2.2l2.6-2l2.6-1.8l2.7-1.7l2.8-1.5l2.9-1.4l3-1.2l3-1.1l3.1-0.9l3.2-0.8l3.2-0.6l3.3-0.5l3.3-0.4
		l3.3-0.2l4.6-0.1l4.4,0.1l4.1,0.3l3.9,0.5l3.7,0.7l3.6,1l3.4,1.2l3.3,1.5l3.2,1.7l3.1,2l3,2.2l2.9,2.5l2.9,2.7l2.8,3l2.8,3.3
		l2.8,3.6l0.3-1.3l0.3-1.2l0.3-1.2l0.3-1.2l0.4-1.2l0.4-1.2l0.4-1.2l0.4-1.2l2.6-7l3-6.5l3.4-6.1l3.8-5.6l4.1-5.2l4.5-4.7l4.8-4.2
		l5.2-3.8l5.5-3.3l5.8-2.9l6.1-2.4l6.3-1.9l6.6-1.5l6.8-1.1l7-0.6l7.2-0.1l6.1,0.3l6,0.6l6,1l5.9,1.4l5.8,1.7l5.6,2.1l5.5,2.4
		l5.3,2.7l5.1,3.1l4.9,3.4l4.7,3.7l4.4,4.1l4.1,4.4l3.8,4.7l3.5,5l3.1,5.3l45.7,0.1l-0.2,5.2l-0.2,5.2l-0.2,5.2l-0.2,5.2l-0.2,5.2
		l-0.3,5.2l-0.3,5.2l-0.3,5.2l-0.3,5.2l-0.3,5.2l-0.3,5.2l-0.3,5.2l-0.3,5.2l-0.3,5.2l-0.3,5.2l-0.3,5.2l0.2,1.7l0.4,1.4l0.6,1.1
		l0.7,0.8l1,0.5l1.2,0.3l1.5,0.2l1.7,0.1l2.7-0.2l2.3-0.6l1.9-0.9l1.5-1.3l1.2-1.7l0.9-2l0.6-2.3l0.4-2.6l0.1-4.8l0.1-4.8l0.1-4.8
		l0.1-4.8l0.1-4.8l0.1-4.8l0.1-4.8l0.1-4.8l0.1-4.8l0.1-4.8l0.1-4.8l0.1-4.8l0.1-4.8l0.1-4.8l0.1-4.8l0.1-4.8l37,0.6l-0.4-3.8l0-3.9
		l0.4-3.8l0.9-3.8l1.2-3.7l1.6-3.6l2-3.4l2.3-3.2l2.6-3l2.9-2.7l3.1-2.4l3.3-2l3.5-1.6l3.7-1.2l3.9-0.7l4-0.2l4.3,0.3l4.1,0.8
		l3.8,1.3l3.6,1.8l3.3,2.2l3,2.6l2.7,2.9l2.3,3.2l1.9,3.4l1.5,3.7l1.1,3.8l0.6,3.9l0.1,4l-0.4,4.1l-1,4.1l-1.6,4.1l96.9,6.8l-8.2,40
		l-44,39.5l47.1-1.2l1.7-7l-1.4-2.6l-1.1-2.7l-0.7-2.8l-0.4-2.8l0-2.9l0.3-2.9l0.7-2.8l1-2.7l1.7-3.2l2.1-3.1l2.4-2.8l2.7-2.5l3-2.1
		l3.2-1.6l3.4-1.1l3.5-0.4l5.2,0.3l4.9,1l4.5,1.8l4,2.5l3.3,3.3l2.6,4l1.7,4.7l0.7,5.4v0.2l4.6-1l4.6-0.5l4.5,0l4.4,0.4l4.3,0.9
		l4.1,1.3l3.9,1.7l3.7,2.1l3.4,2.5l3.1,2.9l2.8,3.2l2.4,3.5l2,3.9l1.6,4.2l1.1,4.5l0.7,4.7l0.2,3l0,3.1l-0.2,3.1l-0.4,3.1l-0.6,3
		l-0.8,3l-1,2.9l-1.2,2.8l-1.6,3.2l-1.8,3l-1.9,2.8l-2.1,2.6l-2.2,2.5l-2.4,2.3l-2.5,2.1l-2.6,1.8l-2.8,1.6L743,245l-3,1.2l-3.1,0.9
		l-3.3,0.7l-3.3,0.4l-3.5,0.1l-3.6-0.1l-3.5-0.4l-3.5-0.7l-3.4-0.9l-3.3-1.2l-3.2-1.5l-3-1.7l-2.9-2l-2.7-2.3l-4.1,4.7l-17-1.3
		l-1.9,1l-2,0.7l-2.1,0.5l-2.1,0.3h-2.2l-2.2-0.3l-2.1-0.5l-2.1-0.7l-3.1,5L548,237.4l-72.4-1.5l0-2.1l-2.7,1.2l-2.8,1l-2.9,0.9
		l-2.9,0.7l-2.9,0.5l-3,0.4l-3,0.2l-3,0l-3-0.2l-3-0.3l-2.9-0.5l-2.9-0.7l-2.9-0.8l-2.8-1l-2.7-1.2l-2.7-1.4l-0.3,6.6l-0.8,6.5
		l-1.3,6.3l-1.8,6l-2.2,5.8l-2.7,5.5l-3.2,5.1l-3.6,4.7l-4.1,4.3l-4.5,3.8l-4.9,3.3l-5.4,2.8l-5.8,2.2l-6.2,1.6l-6.6,1l-7,0.3
		l-6.2-0.4l-6-0.9l-5.8-1.4l-5.5-1.8l-5.2-2.3l-4.9-2.8l-4.6-3.2l-4.3-3.6l-3.9-4l-3.5-4.4l-3.1-4.7l-2.7-5l-2.2-5.3l-1.8-5.6
		l-1.3-5.9l-0.8-6.1l-3.4-1.2l-3.5-1.4l-3.5-1.6l-3.5-1.8l-3.4-1.9l-3.4-2.1l-3.3-2.2l-3.3-2.4L277,224l-3-2.6l-2.9-2.7l-2.8-2.8
		l-2.6-2.9l-2.4-3l-2.2-3l-2-3.1l-2,3.5l-2.2,3.3l-2.4,3.1l-2.6,2.9l-2.7,2.6l-2.9,2.4l-3,2.2l-3.2,2l-3.3,1.8l-3.4,1.6l-3.5,1.4
		l-3.7,1.2l-3.7,1l-3.8,0.7l-3.9,0.5l-4,0.3l-3.4,0.1h-3.4l-3.4-0.1l-3.4-0.2l-3.4-0.4l-3.3-0.5l-3.3-0.7l-3.3-0.8l-3.2-1l-3.1-1.2
		l-3-1.4l-3-1.6l-2.9-1.8l-2.8-2l-2.7-2.2l-2.6-2.4l2.1,18.9l-42.5,4.2L102.8,230.7L102.8,230.7z M333.4,192.1l2.8-0.1l2.7-0.3
		l2.5-0.4l2.4-0.6l2.3-0.8l2.1-1l2-1.2l1.9-1.3l1.8-1.5l1.6-1.7l1.5-1.8l1.4-2l1.3-2.1l1.2-2.3l1.1-2.4l0.9-2.5l1.3-4.1l1.1-4.3
		l0.9-4.4l0.7-4.5l0.4-4.6l0.1-4.5l-0.3-4.4l-0.7-4.2l-1.1-4l-1.6-3.7l-2.1-3.3l-2.7-2.9l-3.3-2.4l-3.9-1.8l-4.6-1.1l-5.3-0.4
		l-3.6,0.1l-3.3,0.4l-3.1,0.6l-2.9,0.8l-2.7,1l-2.5,1.2l-2.3,1.4l-2.1,1.6l-1.7,1.5l-1.5,1.6l-1.4,1.7l-1.3,1.8l-1.1,1.9l-1,2
		l-0.9,2.1l-0.8,2.1l-0.7,2.2l-0.6,2.2l-0.5,2.2l-0.4,2.2l-0.3,2.2l-0.2,2.2l-0.1,2.2l-0.1,2.2l0,3.8l0.1,3.7l0.3,3.5l0.5,3.4
		l0.6,3.2l0.9,3l1.1,2.8l1.3,2.6l1.6,2.4l1.9,2.1l2.2,1.8l2.5,1.6l2.9,1.2l3.3,0.9l3.6,0.6l4.1,0.2L333.4,192.1z"/>
	<path class="st4" d="M102.8,230.7L72,71.5l68.5-23.8l1.1,16.3l5.5,50.8c1.4-1.8,2.7-3.3,4.2-5l2.3-2.4l2.5-2.2l2.6-2l2.6-1.8
		l2.7-1.7l2.8-1.5l2.9-1.4l3-1.2l3-1.1l3.1-0.9l3.2-0.8l3.2-0.6l3.3-0.5l3.3-0.4l3.3-0.2l4.6-0.1l4.4,0.1l4.1,0.3l3.9,0.5l3.7,0.7
		l3.6,1l3.4,1.2l3.3,1.5l3.2,1.7l3.1,2l3,2.2l2.9,2.5l2.9,2.7l2.8,3l2.8,3.3l2.8,3.6c0.8-3.3,1.7-6.5,2.7-9.8l2.6-7l3-6.5l3.4-6.1
		l3.8-5.6l4.1-5.2l4.5-4.7l4.8-4.2l5.2-3.8l5.5-3.3l5.8-2.9l6.1-2.4l6.3-1.9l6.6-1.5l6.8-1.1l7-0.6l7.2-0.1l6.1,0.3l6,0.6l6,1
		l5.9,1.4l5.8,1.7l5.6,2.1l5.5,2.4l5.3,2.7l5.1,3.1l4.9,3.4l4.7,3.7l4.4,4.1l4.1,4.4l3.8,4.7l3.5,5l3.1,5.3l45.7,0.1
		c-0.9,27.5-2.6,55-4.2,82.4l0.2,1.7l0.4,1.4l0.6,1.1l0.7,0.8l1,0.5l1.2,0.3l1.5,0.2l1.7,0.1l2.7-0.2l2.3-0.6l1.9-0.9l1.5-1.3
		l1.2-1.7l0.9-2l0.6-2.3l0.4-2.6c0.4-25.6,0.8-51.1,1.6-76.7l37,0.6l-0.4-3.8l0-3.9l0.4-3.8l0.9-3.8l1.2-3.7l1.6-3.6l2-3.4l2.3-3.2
		l2.6-3l2.9-2.7l3.1-2.4l3.3-2l3.5-1.6l3.7-1.2l3.9-0.7l4-0.2l4.3,0.3l4.1,0.8l3.8,1.3l3.6,1.8l3.3,2.2l3,2.6l2.7,2.9l2.3,3.2
		l1.9,3.4l1.5,3.7l1.1,3.8l0.6,3.9l0.1,4l-0.4,4.1l-1,4.1l-1.6,4.1l96.9,6.8l-8.2,40l-44,39.5l47.1-1.2l1.7-7l-1.4-2.6l-1.1-2.7
		l-0.7-2.8l-0.4-2.8l0-2.9l0.3-2.9l0.7-2.8l1-2.7l1.7-3.2l2.1-3.1l2.4-2.8l2.7-2.5l3-2.1l3.2-1.6l3.4-1.1l3.5-0.4l5.2,0.3l4.9,1
		l4.5,1.8l4,2.5l3.3,3.3l2.6,4l1.7,4.7l0.7,5.6l4.6-1l4.6-0.5l4.5,0l4.4,0.4l4.3,0.9l4.1,1.3l3.9,1.7l3.7,2.1l3.4,2.5l3.1,2.9
		l2.8,3.2l2.4,3.5l2,3.9l1.6,4.2l1.1,4.5l0.7,4.7l0.2,3l0,3.1l-0.2,3.1l-0.4,3.1l-0.6,3l-0.8,3l-1,2.9l-1.2,2.8l-1.6,3.2l-1.8,3
		l-1.9,2.8l-2.1,2.6l-2.2,2.5l-2.4,2.3l-2.5,2.1l-2.6,1.8l-2.8,1.6L743,245c-3.8,1.6-7.6,2.6-11.5,3l-1.2,0.1l-3.5,0.1l-3.6-0.1
		l-3.5-0.4l-3.5-0.7l-3.4-0.9l-3.3-1.2l-3.2-1.5l-3-1.7l-2.9-2l-2.7-2.3l-4.1,4.7l-3.8-0.3l-13.1-1l-1.9,1l-2,0.7l-2.1,0.5l-2.1,0.3
		h-2.2l-2.2-0.3l-2.1-0.5l-2.1-0.7l-3.1,5l-3.1-0.3L548,237.4l-70.1-1.5l-2.3,0l0-2.1l-2.7,1.2l-2.8,1l-2.9,0.9l-2.9,0.7l-2.9,0.5
		l-3,0.4l-3,0.2l-3,0l-3-0.2l-3-0.3l-2.9-0.5l-2.9-0.7l-2.9-0.8l-2.8-1l-2.7-1.2l-2.7-1.4l-0.3,6.6l-0.8,6.5l-1.3,6.3l-1.8,6
		l-2.2,5.8l-2.7,5.5l-3.2,5.1l-3.6,4.7l-4.1,4.3l-4.5,3.8l-4.9,3.3l-5.4,2.8l-5.8,2.2l-6.2,1.6l-6.6,1l-7,0.3l-6.2-0.4l-6-0.9
		l-5.8-1.4l-5.5-1.8l-5.2-2.3l-4.9-2.8l-4.6-3.2l-4.3-3.6l-3.9-4l-3.5-4.4l-3.1-4.7l-2.7-5l-2.2-5.3l-1.8-5.6l-1.3-5.9l-0.8-6.1
		l-3.4-1.2l-3.5-1.4l-3.5-1.6l-3.5-1.8l-3.4-1.9l-3.4-2.1l-3.3-2.2l-3.3-2.4l-3.2-2.5l-3-2.6l-2.9-2.7l-2.8-2.8l-2.6-2.9l-2.4-3
		l-2.2-3l-2-3.1l-2,3.5l-2.2,3.3l-2.4,3.1l-2.6,2.9l-2.7,2.6l-2.9,2.4l-3,2.2l-3.2,2l-3.3,1.8l-3.4,1.6l-3.5,1.4l-3.7,1.2l-3.7,1
		l-3.8,0.7l-3.9,0.5l-4,0.3l-3.4,0.1h-3.4l-3.4-0.1l-3.4-0.2l-3.4-0.4l-3.3-0.5l-3.3-0.7l-3.3-0.8l-3.2-1l-3.1-1.2l-3-1.4l-3-1.6
		l-2.9-1.8l-2.8-2l-2.7-2.2l-2.6-2.4l1.8,16.5l0.3,2.4l-2,0.2l-38.2,3.8l-2.2,0.2L102.8,230.7L102.8,230.7z M333.4,192.1l2.8-0.1
		l2.7-0.3l2.5-0.4l2.4-0.6l2.3-0.8l2.1-1l2-1.2l1.9-1.3l1.8-1.5l1.6-1.7l1.5-1.8l1.4-2l1.3-2.1l1.2-2.3l1.1-2.4l0.9-2.5l1.3-4.1
		l1.1-4.3l0.9-4.4l0.7-4.5l0.4-4.6l0.1-4.5l-0.3-4.4l-0.7-4.2l-1.1-4l-1.6-3.7l-2.1-3.3l-2.7-2.9l-3.3-2.4l-3.9-1.8l-4.6-1.1
		l-5.3-0.4l-3.6,0.1l-3.3,0.4l-3.1,0.6l-2.9,0.8l-2.7,1l-2.5,1.2l-2.3,1.4l-2.1,1.6l-1.7,1.5l-1.5,1.6l-1.4,1.7l-1.3,1.8l-1.1,1.9
		l-1,2l-0.9,2.1l-0.8,2.1l-0.7,2.2l-0.6,2.2l-0.5,2.2l-0.4,2.2l-0.3,2.2l-0.2,2.2l-0.1,2.2l-0.1,2.2l0,3.8l0.1,3.7l0.3,3.5l0.5,3.4
		l0.6,3.2l0.9,3l1.1,2.8l1.3,2.6l1.6,2.4l1.9,2.1l2.2,1.8l2.5,1.6l2.9,1.2l3.3,0.9l3.6,0.6l4.1,0.2L333.4,192.1z M74.5,73
		l30.3,156.4l13.8,9.6L158,235l-1.8-16.7l3.7-1.8l2.6,2.4l2.5,2l2.7,1.9l2.7,1.7l2.9,1.5l2.9,1.3l3,1.1l3.2,1l3,0.8l3.3,0.7l3.2,0.5
		l3.3,0.4l3.4,0.2l3.3,0.1h3.3l3.3-0.1l4-0.3l3.7-0.5l3.8-0.7l3.5-0.9l3.6-1.1l3.4-1.3l3.4-1.6l3.1-1.7l3.1-2l3-2.2l2.7-2.3l2.6-2.5
		l2.6-2.9l2.2-2.8l2.2-3.2l3.8-6.6l3.9,6.2l2.1,2.9l2.4,3l2.5,2.8l2.7,2.8l2.8,2.7l3,2.6l3.1,2.5l3.2,2.3l3.3,2.2l3.3,2l3.4,1.9
		l3.3,1.7l3.4,1.5l3.5,1.4l4.6,1.6l1,7.4l1.3,5.7l1.7,5.4l2.2,5.2l2.6,4.8l3,4.5l3.4,4.3l3.7,3.8l4.1,3.4l4.4,3.1l4.8,2.7l5,2.2
		l5.3,1.8l5.5,1.3l5.9,0.8l6,0.3l6.8-0.3l6.4-0.9l6-1.5l5.5-2.1l5.2-2.7l4.7-3.2l4.3-3.7l3.9-4.1l3.5-4.6l3-4.8l2.6-5.3l2.1-5.5
		l1.7-5.9l1.2-6l0.8-6.4l0.5-9.9l5.6,2.8l2.7,1.2l2.6,0.9l2.8,0.8l2.8,0.6l2.8,0.5l2.8,0.3l2.9,0.1l2.7,0l2.9-0.2l2.9-0.4l2.7-0.5
		l2.7-0.7l2.9-0.9l2.7-1l5.8-2.5l0,3.3l70.1,1.7l108,9.1l3.3-5.4l3.6,1.3l1.9,0.4l1.9,0.2h1.8l1.9-0.2l1.9-0.5l1.8-0.6l1.8-0.9
		l1.2-0.2l15.9,1.2l4.8-5.5l4.3,3.7l2.6,1.9l2.9,1.7l3,1.4l3,1.1l3.3,0.9l3.3,0.6l3.4,0.4l3.3,0.1l3.2-0.1l3.3-0.4l3-0.6l3.1-0.9
		l2.7-1l2.8-1.4l2.6-1.5l2.5-1.7l2.4-1.9l2.2-2.2l2.2-2.4l1.9-2.4l1.9-2.8l1.7-2.9l1.5-3l1.1-2.7l0.9-2.8l0.7-2.7l0.6-3l0.4-2.8
		l0.2-3.1l0-2.8l-0.2-2.9l-0.6-4.6l-1.1-4.2l-1.5-3.9l-1.9-3.7l-2.3-3.3l-2.6-3l-2.9-2.7l-3.3-2.4l-3.3-1.9l-3.8-1.7l-3.8-1.2
		l-4.1-0.8l-4.2-0.4l-4.3,0l-4.4,0.5l-7.1,1.5c-0.1-2.9-0.3-4.9-0.7-7.8l-1.5-4.2l-2.3-3.5l-3-2.9l-3.6-2.3l-4.2-1.6l-4.6-1
		l-4.9-0.3l-3.2,0.4l-3,1l-2.9,1.5l-2.7,1.9l-2.5,2.3l-2.2,2.6l-1.9,2.8l-1.6,3l-0.9,2.4l-0.6,2.6l-0.3,2.6l0,2.6l0.3,2.5l0.7,2.6
		l0.9,2.4l1.3,2.4l0.2,1.6l-2,8.6l-48.8,1.3l-1.5-3.9l43.5-39l7.6-36.8l-97.4-6.8l2.6-6.7l0.9-3.8l0.4-3.8l-0.1-3.7l-0.5-3.7l-1-3.5
		l-1.4-3.4l-1.8-3.2l-2.2-3l-2.5-2.7l-2.8-2.4l-3.1-2l-3.4-1.7l-3.5-1.2l-3.8-0.8l-4.1-0.3l-3.7,0.2l-3.6,0.7l-3.4,1.1l-3.3,1.5
		l-3.2,1.9l-2.9,2.2l-2.7,2.5l-2.4,2.8l-2.2,3l-1.8,3.1l-1.6,3.4l-1.2,3.5l-0.8,3.5l-0.4,3.7l0,3.5l0.7,6.3l-37.3-0.6
		c-0.4,14.3,0.4,73.4-3.5,82.3L475,182l-1.2,1.7l-0.4,0.4l-1.5,1.3l-0.5,0.3l-1.9,0.9l-0.5,0.2l-2.3,0.6l-0.4,0.1
		c-3.1,0.2-4.9,0.3-7.8-0.5l-0.5-0.2l-1-0.5l-0.5-0.4L456,185l-0.4-0.5l-0.6-1.1l-0.2-0.5c-0.4-1.4-0.5-2-0.7-3.4v-0.4
		c1.5-26.7,3.3-53.4,4.2-80.1L413.7,99l-3.8-6.4l-3.4-4.9l-3.7-4.6l-4.1-4.3l-4.2-3.9l-4.5-3.6l-4.8-3.4l-5.1-3l-5.2-2.7l-5.3-2.3
		l-5.5-2l-5.7-1.7l-5.8-1.3l-5.9-1l-5.9-0.6l-6-0.3l-7,0.1l-7,0.6l-6.7,1l-6.4,1.5l-6.1,1.9l-5.8,2.3l-5.7,2.8l-5.2,3.1l-5.1,3.7
		l-4.6,4.1l-4.4,4.6l-4,5l-3.7,5.5l-3.3,5.9l-2.9,6.3l-2.6,7c-1.5,4.7-2.6,9.2-3.7,14l-5.7-7.2l-2.7-3.2l-2.7-2.9l-2.8-2.7l-2.8-2.4
		l-2.8-2.1l-3-1.9l-3-1.6l-3.2-1.4l-3.2-1.1l-3.5-1l-3.5-0.7l-3.7-0.5l-4.1-0.3l-4.2-0.1l-4.5,0.1l-3.3,0.2l-3.1,0.4l-3.3,0.5
		l-3.1,0.6l-3,0.7l-3,0.9l-2.9,1l-3,1.2l-2.7,1.3l-2.7,1.4l-2.7,1.6l-2.5,1.7l-2.5,2l-2.4,2.1l-2.3,2.3c-1.5,1.6-2.7,3.1-4,4.8
		l-4-1.1l-5.5-49.8l-1.8-14.7L74.5,73.2L74.5,73z M336.3,194.2c-47.4,1.1-43.9-85,11.1-80.4l4.9,1.2l0.4,0.1l3.9,1.8l0.4,0.2
		l3.3,2.4l0.3,0.3l2.7,2.9l0.2,0.3l2.1,3.3C376.6,147,367.1,192.2,336.3,194.2L336.3,194.2z"/>
	<path class="st5" d="M220.7,151.5c-0.4-4-1.3-7.4-2.8-10.4c-0.2-0.4-0.4-0.7-0.6-1.1c-0.1-0.1-0.2-0.2-0.3-0.3
		c-2.2-1.8-4.7-3.2-7.4-4c-2.7-0.8-5.5-1.1-8.3-0.9c-5.8,0.4-10.6,2.8-14.6,7.3c-2.8,3.2-4.6,7.1-5.5,11.9
		C181.3,154.1,220.7,151.5,220.7,151.5z M185.3,192.3c4.6,4.4,10.4,6.3,17.3,5.9c4.7-0.3,8.8-1.7,12.3-4c3.5-2.4,5.6-5.5,6.4-9.4
		l29.7-1.9l4.6,5.9c-2.7,11.5-8,20.5-16,27.1c-8,6.6-17.9,10.3-29.6,11.1c-20.8,1.4-36.1-4.2-45.9-16.6l-4.6-5.9
		C152.3,195,148.1,182,147,165c-0.6-8.4,0.1-16.1,2.1-23.1c1.9-7,5-13,9.2-18.2c4.2-5.2,9.5-9.3,15.8-12.3c6.3-3,13.7-4.8,22.2-5.3
		c16.9-1.1,29.9,3.5,39.3,13.7c0.7,0.8,1.5,1.6,2.1,2.5l4.6,5.9c8,10.3,12.7,25.4,14,45.4l-75.2,4.9
		C181.7,183.9,183.1,188.5,185.3,192.3L185.3,192.3z"/>
	<path class="st5" d="M387.5,82.3l-6.6-4.8c-4.1-3-8.6-5.5-13.6-7.6C357.8,66,347,64,334.9,64c-12.3,0-23.2,2-32.6,5.9
		c-19.9,8.2-32.5,23.9-38.8,44.2c-3.3,10.7-5,22.8-5,36.2c0,24.3,5.3,43.2,15.9,56.7c3.4,4.3,7.3,8.1,11.7,11.3l6.6,4.8
		c7.7,5.7,16.9,9.6,27.6,11.8v1.3c0,7,1.1,13.5,3.3,19.4c2.2,5.9,5.4,11,9.3,15.2c1.7,1.8,3.5,3.4,5.4,4.8l6.6,4.8
		c2.7,2,5.7,3.7,8.9,5c5.6,2.3,11.7,3.5,18.2,3.5c7,0,13.5-1.3,19.4-4c5.9-2.6,11-6.3,15.3-10.9c4.3-4.6,7.7-10.1,10.1-16.5
		c2.4-6.4,3.6-13.4,3.6-21.1l-6.6-4.8h-29.2c0,7.8-1.5,13.7-4.7,17.6c-3.1,3.9-7,5.9-11.6,5.9c-2,0-3.9-0.3-5.6-1
		c-0.1-0.1-0.2-0.2-0.2-0.3c-3.2-4.1-4.8-10.7-4.8-19.8c9.6-1.4,18.1-4.5,25.5-9.3c7.4-4.8,13.7-10.7,18.7-17.7
		c5-7,8.9-14.9,11.5-23.7c2.6-8.8,4-18,4-27.6c0-13.6-1.7-25.8-5-36.5C407.6,104.1,399.6,91.3,387.5,82.3L387.5,82.3z M334.9,205.3
		c5.9,0,11.5-1.1,16.8-3.2c5.3-2.2,9.9-5.4,13.8-9.8c3.9-4.4,7-10,9.2-16.9c7.4-22.7,6.1-49.1-9.2-63.4c-6.1-3.5-13.7-5.5-23.1-5.5
		c-52.4,0-54.6,66-33.1,90.6c0.8,1,1.7,1.9,2.7,2.8C318.2,203.5,325.9,205.3,334.9,205.3L334.9,205.3z"/>
	<path class="st5" d="M446.6,180l2.9-64.5l0.1-7l-34,0.4l-0.1,7l2.1,72c0.4,16,6.7,30.7,22.1,37.3c17.6,7.5,39,1,49-15.3v15.3h18.1
		l13.8-109.6l0.1-7l-32.9-0.2l-0.1,7l-0.3,59.3c-0.5,6-2.3,11-5.5,15c-3.8,4.7-9.4,7-16.8,7C453.9,196.9,447.2,191.3,446.6,180
		L446.6,180z"/>
	<polygon class="st5" points="526.3,113.5 523.1,120.4 520.6,221.9 547.8,223.5 550.9,216.6 564.2,115.6 	"/>
	<polygon class="st5" points="657.2,136.2 653.4,142.5 594.8,198.1 659.3,195.6 657.1,227 653.2,233.6 558.7,226.4 560,204.2 
		563.9,197.7 616.9,143.4 567.5,144.8 568.9,117.5 572.8,110.9 661.5,116.1 657.3,136 	"/>
	<polygon class="st5" points="685,177.8 682.1,181.2 679.7,227.8 691,228.6 693.9,225.1 703,178 	"/>
	<path class="st5" d="M730.5,217.4c3.8,0.3,6.9-0.6,9.2-2.4c1.1-2.4,1.8-5.5,2-9.2c0.7-11.4-3.4-17.4-12.5-18
		c-3.8-0.3-6.9,0.6-9.2,2.4c-1.1,2.4-1.8,5.4-2,9.1C717.3,210.7,721.4,216.8,730.5,217.4L730.5,217.4z M754.2,219.7
		c0,0-0.1,0.1-0.1,0.2l-3.3,4.4c-1,1.3-2,2.4-3.2,3.5c-2.6,2.4-5.8,4.2-9.5,5.4c-3.7,1.2-7.7,1.6-12,1.3c-4.6-0.3-8.6-1.3-12.1-3
		c-3.5-1.7-6.4-3.9-8.7-6.7c-2.3-2.8-4-6-5.1-9.8c-1.1-3.7-1.4-7.8-1.1-12.2c0.3-4.4,1.2-8.5,2.8-12c0.9-2,1.9-3.8,3.2-5.5l3.5-4.7
		c1-1.3,2.1-2.5,3.2-3.6c2.7-2.4,5.9-4.2,9.5-5.4c3.7-1.2,7.7-1.6,12.2-1.3c4.4,0.3,8.4,1.3,11.8,2.9c3.4,1.6,6.3,3.8,8.6,6.6
		c2.3,2.7,4,6,5.1,9.7c1.1,3.7,1.5,7.9,1.2,12.4c-0.3,4.5-1.2,8.5-2.8,12.1C756.5,216.1,755.5,218,754.2,219.7L754.2,219.7
		L754.2,219.7z"/>
	<path class="st5" d="M695.5,148.7c7-0.2,12.8,5.2,13,12.2c0.1,3.9-1.5,7.5-4.3,9.9l-3.6,3.1c-2.1,1.9-4.9,3-7.9,3.1
		c-7,0.2-12.8-5.2-13-12.2c-0.1-3.9,1.5-7.5,4.3-9.9l3.3-2.9c0,0,0,0,0.1,0l0.2-0.1C689.7,150,692.5,148.8,695.5,148.7L695.5,148.7z
		"/>
	<path class="st5" d="M671.1,212.1c4.1-0.1,7.5,3.1,7.7,7.2c0,1.4-0.3,2.7-0.9,3.9l-1.9,3.5c-1.2,2.2-3.6,3.7-6.3,3.8
		c-4.1,0.1-7.5-3.1-7.7-7.2c0-1.4,0.3-2.7,0.9-3.9l1.9-3.5C666.1,213.7,668.4,212.2,671.1,212.1z"/>
	<polygon class="st5" points="115.8,230 86,83.8 125.4,69.9 132.3,74.6 151.4,231.2 122.7,234.7 	"/>
	<path class="st5" d="M548.2,64.7c11.9,0,21.5,9.6,21.5,21.5c0,3.5-0.8,6.8-2.3,9.8l-2.4,4.6c-3.6,7-10.8,11.7-19.2,11.7
		c-11.9,0-21.5-9.6-21.5-21.5c0-3.5,0.8-6.8,2.3-9.8l2.4-4.6C532.6,69.5,539.8,64.7,548.2,64.7z"/>
	<polygon class="st6" points="113.1,227.3 83.3,81.2 122.7,67.3 129.6,71.9 148.6,228.6 119.9,232 	"/>
	<path class="st7" d="M113.1,227.3L83.2,81.2l39.5-13.9l6.9,4.7l19.1,156.6l-28.7,3.4L113.1,227.3z M85.8,82.6L115.1,226l5.4,3.7
		l25.7-3.1L127.5,73.2l-5.1-3.5C122.4,69.7,85.8,82.6,85.8,82.6z"/>
	
		<linearGradient id="SVGID_4_" gradientUnits="userSpaceOnUse" x1="106.3596" y1="-790.2498" x2="106.3596" y2="-209.4294" gradientTransform="matrix(0.3559 0 0 -0.3559 74.6591 -19.1524)">
		<stop  offset="0" style="stop-color:#D8E3F7"/>
		<stop  offset="1" style="stop-color:#FEFEFE"/>
	</linearGradient>
	<polygon class="st8" points="113.1,227.3 83.3,81.2 122.7,67.3 141.8,223.9 	"/>
	<g>
		<defs>
			<polygon id="SVGID_5_" points="113.1,227.3 83.2,81.2 122.7,67.3 141.8,223.9 			"/>
		</defs>
		<clipPath id="SVGID_6_">
			<use xlink:href="#SVGID_5_"  style="overflow:visible;"/>
		</clipPath>
		<g class="st9">
			<g id="_1586272391344">
				<defs>
					<filter id="Adobe_OpacityMaskFilter" filterUnits="userSpaceOnUse" x="-150" y="-36.8" width="997.2" height="243.5">
						<feColorMatrix  type="matrix" values="1 0 0 0 0  0 1 0 0 0  0 0 1 0 0  0 0 0 1 0"/>
					</filter>
				</defs>
				<mask maskUnits="userSpaceOnUse" x="-150" y="-36.8" width="997.2" height="243.5" id="id2_1_">
					
						<linearGradient id="SVGID_7_" gradientUnits="userSpaceOnUse" x1="769.6936" y1="-495.8587" x2="769.6936" y2="-139.9442" gradientTransform="matrix(0.3559 0 0 -0.3559 74.6591 -19.1524)">
						<stop  offset="0" style="stop-color:#FFFFFF;stop-opacity:0.8588"/>
						<stop  offset="1" style="stop-color:#FFFFFF;stop-opacity:0"/>
					</linearGradient>
					<rect x="-151.7" y="-38.5" class="st10" width="1000.5" height="246.8"/>
				</mask>
				<path id="_1_0" class="st11" d="M48.2,188c244.6-62.3,668.5-31.1,799,18.7L742.8-31L-150-36.8L48.2,188L48.2,188z"/>
			</g>
		</g>
	</g>
	<g>
		<path class="st12" d="M113.1,227.3L83.2,81.2l39.5-13.9l19.1,156.6L113.1,227.3z M85.1,82.2l29.3,143.4l25.7-3.1L121.4,69.4
			C121.4,69.4,85.1,82.2,85.1,82.2z"/>
	</g>
	<path class="st6" d="M219.2,148.6c-0.4-4-1.3-7.4-2.8-10.4c-0.2-0.4-0.4-0.7-0.6-1.1c-0.1-0.1-0.2-0.2-0.3-0.3
		c-2.2-1.8-4.7-3.2-7.4-4c-2.7-0.8-5.5-1.1-8.3-0.9c-5.8,0.4-10.6,2.8-14.6,7.3c-2.8,3.2-4.6,7.1-5.5,11.9
		C179.8,151.2,219.2,148.6,219.2,148.6z M183.8,189.4c4.6,4.4,10.4,6.3,17.3,5.9c4.7-0.3,8.8-1.7,12.3-4c3.5-2.4,5.6-5.5,6.4-9.4
		l29.7-1.9l4.6,5.9c-2.7,11.5-8,20.5-16,27.1c-8,6.6-17.9,10.3-29.6,11.1c-20.8,1.4-36.1-4.2-45.9-16.6l-4.6-5.9
		c-7.3-9.3-11.5-22.4-12.6-39.3c-0.6-8.4,0.1-16.1,2.1-23.1c1.9-7,5-13,9.2-18.2s9.5-9.3,15.8-12.3c6.3-3,13.7-4.8,22.2-5.3
		c16.9-1.1,29.9,3.5,39.3,13.7c0.7,0.8,1.5,1.6,2.1,2.5l4.6,5.9c8,10.3,12.7,25.4,14,45.4l-75.2,4.9
		C180.1,181,181.6,185.6,183.8,189.4L183.8,189.4z"/>
	<path class="st7" d="M219.2,148.6c-0.4-4-1.3-7.4-2.8-10.4l-0.6-1.1l-0.3-0.3c-2.2-1.8-4.7-3.2-7.4-4c-2.7-0.8-5.5-1.1-8.3-0.9
		c-5.8,0.4-10.6,2.8-14.6,7.3c-2.8,3.2-4.6,7.1-5.5,11.9C179.8,151.2,219.2,148.6,219.2,148.6z M183.8,189.4
		c4.6,4.4,10.4,6.3,17.3,5.9c4.7-0.3,8.8-1.7,12.3-4c3.5-2.4,5.6-5.5,6.4-9.4l29.7-1.9l4.6,5.9c-2.7,11.5-8,20.5-16,27.1
		c-8,6.6-17.9,10.3-29.6,11.1c-20.8,1.4-36.1-4.2-45.9-16.6l-4.6-5.9c-7.3-9.3-11.5-22.4-12.6-39.3c-0.6-8.4,0.1-16.1,2.1-23.1
		c1.9-7,5-13,9.2-18.2s9.5-9.3,15.8-12.3c6.3-3,13.7-4.8,22.2-5.3c16.9-1.1,29.9,3.5,39.3,13.7c0.7,0.8,1.5,1.6,2.1,2.5l4.6,5.9
		c8,10.3,12.7,25.4,14,45.4l-75.2,4.9C180.1,181,181.6,185.6,183.8,189.4L183.8,189.4z M220.3,142.5c0.5,1.8,0.8,3.8,1.1,5.9
		l0.2,2.3l-44.5,2.9l0.5-2.8c0.5-2.6,1.2-4.9,2.2-7.1c1-2.2,2.3-4.1,3.8-5.9c2.2-2.5,4.6-4.4,7.3-5.7c2.7-1.4,5.6-2.1,8.8-2.3
		c1.5-0.1,3-0.1,4.6,0.1c1.5,0.2,3,0.5,4.5,0.9c1.5,0.4,3,1,4.3,1.8c1.4,0.7,2.7,1.6,3.9,2.6l0.4,0.3l0.5,0.6l0.6,1.1
		C219.2,138.8,219.9,140.6,220.3,142.5L220.3,142.5z M190.8,196.2c-3.2-1.1-6.1-2.8-8.6-5.2l-0.4-0.5c-2.3-4.1-3.8-8.9-4.5-14.6
		l-0.3-2.3l75.3-4.9c-0.7-8.9-2.1-16.8-4.2-23.7c-2.2-7.3-5.3-13.4-9.2-18.3l-4.6-5.9l-1-1.2l-1-1.2c-4.4-4.8-9.7-8.3-15.9-10.5
		c-6.3-2.2-13.5-3-21.6-2.5c-4.1,0.3-7.9,0.8-11.5,1.7c-3.5,0.8-6.8,2-9.9,3.4c-3,1.4-5.8,3.1-8.3,5.1c-2.5,1.9-4.8,4.1-6.7,6.6
		c-2,2.5-3.7,5.1-5.2,8s-2.7,6-3.6,9.4c-0.9,3.4-1.6,6.9-1.9,10.6c-0.3,3.7-0.4,7.6-0.1,11.8c0.5,8.3,1.8,15.6,3.9,22
		c2,6.3,4.8,11.6,8.2,16.1l4.6,5.9c4.6,5.9,10.5,10.1,17.8,12.8c7.4,2.7,16.1,3.7,26.2,3c5.6-0.4,10.8-1.4,15.5-3.2
		c4.7-1.8,8.9-4.2,12.8-7.4c3.8-3.1,7-6.9,9.5-11.1c2.4-4.1,4.2-8.6,5.5-13.7l-3.2-4.1l-27,1.8c-0.5,1.6-1.2,3.1-2.1,4.4
		c-1.2,1.8-2.8,3.4-4.8,4.7c-1.9,1.3-4,2.3-6.3,3.1c-2.2,0.7-4.6,1.2-7.2,1.4C197.4,197.7,194,197.3,190.8,196.2L190.8,196.2z"/>
	
		<linearGradient id="SVGID_8_" gradientUnits="userSpaceOnUse" x1="345.7079" y1="-790.2498" x2="345.7079" y2="-209.4294" gradientTransform="matrix(0.3559 0 0 -0.3559 74.6591 -19.1524)">
		<stop  offset="0" style="stop-color:#D8E3F7"/>
		<stop  offset="1" style="stop-color:#FEFEFE"/>
	</linearGradient>
	<path class="st13" d="M219.2,148.6c-0.4-4-1.3-7.4-2.8-10.4s-3.3-5.4-5.5-7.2c-2.2-1.8-4.7-3.2-7.4-4s-5.5-1.1-8.3-0.9
		c-5.8,0.4-10.6,2.8-14.6,7.3c-3.9,4.5-5.9,10.5-6.1,18.1C174.6,151.5,219.2,148.6,219.2,148.6z M174.9,169.8
		c1,8.2,3.8,14.7,8.5,19.3c4.7,4.6,10.6,6.7,17.7,6.2c4.7-0.3,8.8-1.7,12.3-4c3.5-2.4,5.6-5.5,6.4-9.4l29.7-1.9
		c-2.7,11.5-8,20.5-16,27.1c-8,6.6-17.9,10.3-29.6,11.1c-36.4,2.4-55.8-16.3-58.4-55.9c-0.6-8.4,0.1-16.1,2.1-23.1
		c1.9-7,5-13,9.2-18.2s9.5-9.3,15.8-12.3c6.3-3,13.7-4.8,22.2-5.3c16.9-1.1,29.9,3.5,39.3,13.7c9.3,10.2,14.7,26.2,16.2,47.9
		L174.9,169.8L174.9,169.8z"/>
	<g>
		<defs>
			<path id="SVGID_9_" d="M219.2,148.6c-0.4-4-1.3-7.4-2.8-10.4s-3.3-5.4-5.5-7.2c-2.2-1.8-4.7-3.2-7.4-4s-5.5-1.1-8.3-0.9
				c-5.8,0.4-10.6,2.8-14.6,7.3c-3.9,4.5-5.9,10.5-6.1,18.1C174.6,151.5,219.2,148.6,219.2,148.6z M174.9,169.8
				c1,8.2,3.8,14.7,8.5,19.3c4.7,4.6,10.6,6.7,17.7,6.2c4.7-0.3,8.8-1.7,12.3-4c3.5-2.4,5.6-5.5,6.4-9.4l29.7-1.9
				c-2.7,11.5-8,20.5-16,27.1c-8,6.6-17.9,10.3-29.6,11.1c-36.4,2.4-55.8-16.3-58.4-55.9c-0.6-8.4,0.1-16.1,2.1-23.1
				c1.9-7,5-13,9.2-18.2s9.5-9.3,15.8-12.3c6.3-3,13.7-4.8,22.2-5.3c16.9-1.1,29.9,3.5,39.3,13.7c9.3,10.2,14.7,26.2,16.2,47.9
				L174.9,169.8L174.9,169.8z"/>
		</defs>
		<clipPath id="SVGID_10_">
			<use xlink:href="#SVGID_9_"  style="overflow:visible;"/>
		</clipPath>
		<g class="st14">
			<g>
				<defs>
					<filter id="Adobe_OpacityMaskFilter_1_" filterUnits="userSpaceOnUse" x="-150" y="-36.8" width="997.2" height="243.5">
						<feColorMatrix  type="matrix" values="1 0 0 0 0  0 1 0 0 0  0 0 1 0 0  0 0 0 1 0"/>
					</filter>
				</defs>
				<mask maskUnits="userSpaceOnUse" x="-150" y="-36.8" width="997.2" height="243.5" id="id5_1_">
					
						<linearGradient id="SVGID_11_" gradientUnits="userSpaceOnUse" x1="769.6936" y1="-495.8587" x2="769.6936" y2="-139.9442" gradientTransform="matrix(0.3559 0 0 -0.3559 74.6591 -19.1524)">
						<stop  offset="0" style="stop-color:#FFFFFF;stop-opacity:0.8588"/>
						<stop  offset="1" style="stop-color:#FFFFFF;stop-opacity:0"/>
					</linearGradient>
					<rect x="-151.7" y="-38.5" class="st15" width="1000.5" height="246.8"/>
				</mask>
				<path id="_1_1" class="st16" d="M48.2,188c244.6-62.3,668.5-31.1,799,18.7L742.8-31L-150-36.8L48.2,188L48.2,188z"/>
			</g>
		</g>
	</g>
	<g>
		<path class="st12" d="M219.2,148.6c-0.4-4-1.3-7.4-2.8-10.4s-3.3-5.4-5.5-7.2c-2.2-1.8-4.7-3.2-7.4-4s-5.5-1.1-8.3-0.9
			c-5.8,0.4-10.6,2.8-14.6,7.3c-3.9,4.5-5.9,10.5-6.1,18.1C174.6,151.5,219.2,148.6,219.2,148.6z M174.9,169.8
			c1,8.2,3.8,14.7,8.5,19.3c4.7,4.6,10.6,6.7,17.7,6.2c4.7-0.3,8.8-1.7,12.3-4c3.5-2.4,5.6-5.5,6.4-9.4l29.7-1.9
			c-2.7,11.5-8,20.5-16,27.1c-8,6.6-17.9,10.3-29.6,11.1c-36.4,2.4-55.8-16.3-58.4-55.9c-0.6-8.4,0.1-16.1,2.1-23.1
			c1.9-7,5-13,9.2-18.2s9.5-9.3,15.8-12.3c6.3-3,13.7-4.8,22.2-5.3c16.9-1.1,29.9,3.5,39.3,13.7c9.3,10.2,14.7,26.2,16.2,47.9
			L174.9,169.8L174.9,169.8z M219.7,142.6c0.5,1.8,0.8,3.7,1.1,5.8l0.2,1.6l-1.6,0.1l-44.6,2.9l-1.7,0.1l0-1.7c0-4,0.6-7.5,1.7-10.7
			c1.1-3.2,2.7-6,4.8-8.4c2.1-2.4,4.5-4.3,7.1-5.6c2.6-1.3,5.5-2.1,8.6-2.3c1.5-0.1,3-0.1,4.4,0.1c1.5,0.2,2.9,0.4,4.4,0.9l0,0
			c1.5,0.4,2.9,1,4.2,1.7c1.3,0.7,2.6,1.6,3.8,2.6c1.2,1,2.3,2.2,3.3,3.4l0,0c1,1.3,1.8,2.7,2.6,4.3
			C218.6,139.1,219.2,140.8,219.7,142.6L219.7,142.6z M176.3,181.4c-1.5-3.3-2.5-7.2-3-11.5l-0.2-1.6l1.7-0.1l73.6-4.8
			c-0.7-10.1-2.4-18.9-4.9-26.3c-2.6-7.8-6.2-14.1-10.7-19.1c-4.5-4.9-9.9-8.5-16.2-10.7c-6.3-2.2-13.6-3-21.8-2.5
			c-4.1,0.3-8,0.8-11.6,1.7l0,0c-3.6,0.9-6.9,2-10,3.5c-6.1,2.9-11.2,6.9-15.2,11.8c-2,2.5-3.8,5.2-5.2,8.1
			c-1.5,2.9-2.7,6.1-3.6,9.5c-0.9,3.4-1.6,7-1.9,10.7c-0.3,3.7-0.4,7.7-0.1,11.8v0c1.3,19.4,6.6,33.6,16.1,42.6
			c9.4,9,23,12.9,40.7,11.8h0.1c5.7-0.4,10.9-1.5,15.6-3.2c4.8-1.8,9.1-4.3,13-7.5c3.9-3.2,7.1-7,9.7-11.3c2.3-3.8,4-8.1,5.3-12.9
			l-26.4,1.7c-0.5,1.7-1.2,3.3-2.2,4.7c-1.2,1.7-2.7,3.3-4.6,4.6c-1.9,1.3-3.9,2.3-6.1,3c-2.2,0.7-4.5,1.1-7,1.3
			c-3.7,0.2-7.2-0.2-10.4-1.3c-3.2-1.1-6-2.9-8.5-5.4C179.9,187.8,177.9,184.8,176.3,181.4L176.3,181.4z"/>
	</g>
	<path class="st6" d="M386,79.4l-6.6-4.8c-4.1-3-8.6-5.5-13.6-7.6c-9.5-3.9-20.3-5.9-32.5-5.9c-12.3,0-23.2,2-32.6,5.9
		c-19.9,8.2-32.5,23.9-38.8,44.2c-3.3,10.7-5,22.8-5,36.2c0,24.3,5.3,43.2,15.9,56.7c3.4,4.3,7.3,8.1,11.7,11.3l6.6,4.8
		c7.7,5.7,16.9,9.6,27.6,11.8v1.3c0,7,1.1,13.5,3.3,19.4c2.2,5.9,5.4,11,9.3,15.2c1.7,1.8,3.5,3.4,5.4,4.8l6.6,4.8
		c2.7,2,5.7,3.7,8.9,5c5.6,2.3,11.7,3.5,18.2,3.5c7,0,13.5-1.3,19.4-4c5.9-2.6,11-6.3,15.3-10.9c4.3-4.6,7.7-10.1,10.1-16.5
		c2.4-6.4,3.6-13.4,3.6-21.1l-6.6-4.8h-29.2c0,7.8-1.6,13.7-4.7,17.6s-7,5.9-11.6,5.9c-2,0-3.9-0.3-5.6-1c-0.1-0.1-0.2-0.2-0.2-0.3
		c-3.2-4.1-4.8-10.7-4.8-19.8c9.6-1.4,18.1-4.5,25.5-9.3c7.4-4.8,13.7-10.7,18.7-17.7c5-7,8.9-14.9,11.5-23.7c2.6-8.8,4-18,4-27.6
		c0-13.6-1.7-25.8-5-36.5C406.1,101.1,398.1,88.3,386,79.4L386,79.4z M333.4,202.4c5.9,0,11.5-1.1,16.8-3.2
		c5.3-2.2,9.9-5.4,13.8-9.8c3.9-4.4,7-10,9.2-16.9c7.4-22.7,6.1-49.1-9.2-63.4c-6.1-3.5-13.7-5.5-23.1-5.5
		c-52.4,0-54.6,66-33.1,90.6c0.8,1,1.7,1.9,2.7,2.8C316.7,200.6,324.4,202.4,333.4,202.4L333.4,202.4z"/>
	<path class="st7" d="M384.7,81.2l-6.6-4.8c-1.9-1.4-4-2.8-6.2-4c-2.2-1.2-4.5-2.4-6.9-3.3c-4.6-1.9-9.6-3.3-14.8-4.3
		c-5.2-0.9-10.9-1.4-16.8-1.4c-6.1,0-11.7,0.5-17,1.4c-5.2,0.9-10.2,2.4-14.8,4.3c-9.4,3.9-17,9.5-23.2,16.5
		c-6.5,7.4-11.2,16.3-14.4,26.3c-3.3,10.5-4.9,22.3-4.9,35.5c0,11.9,1.3,22.5,3.9,31.8c2.6,9.2,6.4,17,11.6,23.5
		c1.7,2.1,3.4,4.1,5.3,5.9c1.8,1.8,3.9,3.5,6,5.1l6.6,4.8c3.7,2.7,7.8,5.1,12.2,7c4.5,1.9,9.3,3.4,14.5,4.5l1.8,0.4v3.1
		c0,3.4,0.3,6.7,0.8,9.8c0.5,3.1,1.3,6.1,2.4,8.9c1.1,2.8,2.3,5.5,3.8,7.9c1.5,2.4,3.2,4.6,5.1,6.6c0.8,0.8,1.6,1.6,2.5,2.4
		c0.8,0.7,1.7,1.5,2.7,2.2l6.6,4.8c1.3,0.9,2.6,1.8,4.1,2.6c1.4,0.8,2.9,1.5,4.4,2.2c2.6,1.1,5.4,1.9,8.3,2.5c2.9,0.5,5.9,0.8,9,0.8
		c6.7,0,12.9-1.2,18.5-3.7c2.8-1.3,5.5-2.8,7.9-4.5c2.4-1.7,4.7-3.7,6.7-5.9c2.1-2.2,3.9-4.6,5.5-7.3c1.6-2.6,3-5.5,4.1-8.5
		c1.1-3,2-6.3,2.6-9.7c0.5-3,0.8-6.2,0.8-9.5l-5.1-3.7h-26.3c-0.1,3.2-0.5,6.1-1.2,8.6c-0.9,3.2-2.2,5.9-3.9,8.1
		c-1.8,2.2-3.7,3.9-6,5c-2.2,1.1-4.7,1.7-7.4,1.7c-1.1,0-2.2-0.1-3.3-0.3c-1.1-0.2-2.1-0.5-3.1-0.8l-1-0.7l-0.2-0.3
		c-1.8-2.3-3.1-5.2-4-8.9c-0.8-3.5-1.3-7.6-1.3-12.3v-1.9l1.9-0.3c4.7-0.7,9-1.8,13.1-3.3c4.1-1.5,7.9-3.4,11.5-5.7
		c3.6-2.3,6.9-4.9,9.9-7.8s5.7-6,8.2-9.4c2.4-3.4,4.6-7,6.5-10.9c1.8-3.8,3.4-7.9,4.7-12.2c1.3-4.3,2.2-8.7,2.9-13.2
		c0.6-4.5,1-9.1,1-13.8c0-13.4-1.6-25.3-4.9-35.9c-2.4-7.6-5.6-14.6-9.7-20.7C395.2,90.5,390.4,85.5,384.7,81.2L384.7,81.2z
		 M386,79.4l-6.6-4.8c-4.1-3-8.6-5.5-13.6-7.6c-9.5-3.9-20.3-5.9-32.5-5.9c-12.3,0-23.2,2-32.6,5.9c-19.9,8.2-32.5,23.9-38.8,44.2
		c-3.3,10.7-5,22.8-5,36.2c0,24.3,5.3,43.2,15.9,56.7c3.4,4.3,7.3,8.1,11.7,11.3l6.6,4.8c7.7,5.7,16.9,9.6,27.6,11.8v1.3
		c0,7,1.1,13.5,3.3,19.4c2.2,5.9,5.4,11,9.3,15.2c1.7,1.8,3.5,3.4,5.4,4.8l6.6,4.8c2.7,2,5.7,3.7,8.9,5c5.6,2.3,11.7,3.5,18.2,3.5
		c7,0,13.5-1.3,19.4-4c5.9-2.6,11-6.3,15.3-10.9c4.3-4.6,7.7-10.1,10.1-16.5c2.4-6.4,3.6-13.4,3.6-21.1l-6.6-4.8h-29.2
		c0,7.8-1.6,13.7-4.7,17.6s-7,5.9-11.6,5.9c-2,0-3.9-0.3-5.6-1L361,251c-3.2-4.1-4.8-10.7-4.8-19.8c9.6-1.4,18.1-4.5,25.5-9.3
		c7.4-4.8,13.7-10.7,18.7-17.7c5-7,8.9-14.9,11.5-23.7c2.6-8.8,4-18,4-27.6c0-13.6-1.7-25.8-5-36.5C406.1,101.2,398.1,88.4,386,79.4
		L386,79.4z M333.4,202.4c5.9,0,11.5-1.1,16.8-3.2c5.3-2.2,9.9-5.4,13.8-9.8c3.9-4.4,7-10,9.2-16.9c7.4-22.7,6.1-49.1-9.2-63.4
		c-6.1-3.5-13.7-5.5-23.1-5.5c-52.4,0-54.6,66-33.1,90.6c0.8,1,1.7,1.9,2.7,2.8C316.7,200.6,324.4,202.4,333.4,202.4L333.4,202.4z
		 M342.4,203.8c-3,0.6-6,0.8-9,0.8c-4.7,0-9-0.5-13-1.4c-4.1-1-7.8-2.4-11.1-4.3l-0.4-0.3l-1.5-1.4l-1.4-1.5
		c-8.4-9.6-13.3-25.2-13.3-40.9c0-8,1.3-16,4-23.4c2.8-7.4,7-14.1,12.9-19.3c7.6-6.6,17.8-10.7,31.2-10.7c4.7,0,9,0.5,13,1.5
		c4.2,1,7.9,2.5,11.2,4.4l0.4,0.3c7.6,7.1,12,17.1,13.6,28.1c1.8,12,0.2,25.4-3.7,37.6c-1.1,3.6-2.6,6.8-4.1,9.7
		c-1.6,3-3.5,5.6-5.5,7.9c-2.1,2.3-4.3,4.4-6.7,6.1c-2.4,1.7-5.1,3.2-7.8,4.3C348.2,202.3,345.4,203.2,342.4,203.8L342.4,203.8z"/>
	
		<linearGradient id="SVGID_12_" gradientUnits="userSpaceOnUse" x1="730.6082" y1="-790.2498" x2="730.6082" y2="-209.4294" gradientTransform="matrix(0.3559 0 0 -0.3559 74.6591 -19.1524)">
		<stop  offset="0" style="stop-color:#D8E3F7"/>
		<stop  offset="1" style="stop-color:#FEFEFE"/>
	</linearGradient>
	<path class="st17" d="M412.4,228.8c0,7.7-1.2,14.7-3.6,21.1c-2.4,6.4-5.7,11.9-10.1,16.5c-4.3,4.6-9.4,8.3-15.3,10.9
		c-5.9,2.6-12.4,4-19.4,4c-6.6,0-12.6-1.2-18.2-3.5c-5.6-2.3-10.4-5.6-14.4-9.8c-4-4.2-7.1-9.3-9.3-15.2c-2.2-5.9-3.3-12.4-3.3-19.4
		v-5c-20-2.7-35.3-10.8-45.9-24.3c-10.6-13.5-15.9-32.4-15.9-56.7c0-13.4,1.7-25.5,5-36.2c6.3-20.3,19-36,38.8-44.2
		C310.2,63,321,61,333.4,61c12.1,0,23,2,32.5,5.9c20,8.2,32.1,24.2,38.5,44.6c3.3,10.8,5,23,5,36.5c0,9.6-1.3,18.8-4,27.6
		c-2.6,8.8-6.5,16.7-11.5,23.7c-5,7-11.3,12.9-18.7,17.7c-7.4,4.8-15.9,7.9-25.5,9.3c0,9.1,1.6,15.7,4.8,19.8
		c3.2,4.1,7.4,6.1,12.5,6.1c4.6,0,8.5-2,11.6-5.9c3.1-3.9,4.7-9.8,4.7-17.6L412.4,228.8L412.4,228.8z M333.4,202.4
		c5.9,0,11.5-1.1,16.8-3.2s9.9-5.4,13.8-9.8c3.9-4.4,7-10,9.2-16.9c10.7-32.9,3.1-73.7-38.9-73.7c-52.4,0-54.6,66-33.1,90.6
		C308.7,198.1,319.4,202.5,333.4,202.4L333.4,202.4z"/>
	<g>
		<defs>
			<path id="SVGID_13_" d="M412.4,228.8c0,7.7-1.2,14.7-3.6,21.1c-2.4,6.4-5.7,11.9-10.1,16.5c-4.3,4.6-9.4,8.3-15.3,10.9
				c-5.9,2.6-12.4,4-19.4,4c-6.6,0-12.6-1.2-18.2-3.5c-5.6-2.3-10.4-5.6-14.4-9.8c-4-4.2-7.1-9.3-9.3-15.2
				c-2.2-5.9-3.3-12.4-3.3-19.4v-5c-20-2.7-35.3-10.8-45.9-24.3c-10.6-13.5-15.9-32.4-15.9-56.7c0-13.4,1.7-25.5,5-36.2
				c6.3-20.3,19-36,38.8-44.2C310.2,63,321,61,333.4,61c12.1,0,23,2,32.5,5.9c20,8.2,32.1,24.2,38.5,44.6c3.3,10.8,5,23,5,36.5
				c0,9.6-1.3,18.8-4,27.6c-2.6,8.8-6.5,16.7-11.5,23.7c-5,7-11.3,12.9-18.7,17.7c-7.4,4.8-15.9,7.9-25.5,9.3
				c0,9.1,1.6,15.7,4.8,19.8c3.2,4.1,7.4,6.1,12.5,6.1c4.6,0,8.5-2,11.6-5.9c3.1-3.9,4.7-9.8,4.7-17.6L412.4,228.8L412.4,228.8z
				 M333.4,202.4c5.9,0,11.5-1.1,16.8-3.2s9.9-5.4,13.8-9.8c3.9-4.4,7-10,9.2-16.9c10.7-32.9,3.1-73.7-38.9-73.7
				c-52.4,0-54.6,66-33.1,90.6C308.7,198.1,319.4,202.5,333.4,202.4L333.4,202.4z"/>
		</defs>
		<clipPath id="SVGID_14_">
			<use xlink:href="#SVGID_13_"  style="overflow:visible;"/>
		</clipPath>
		<g class="st18">
			<g>
				<defs>
					<filter id="Adobe_OpacityMaskFilter_2_" filterUnits="userSpaceOnUse" x="-150" y="-36.8" width="997.2" height="243.5">
						<feColorMatrix  type="matrix" values="1 0 0 0 0  0 1 0 0 0  0 0 1 0 0  0 0 0 1 0"/>
					</filter>
				</defs>
				<mask maskUnits="userSpaceOnUse" x="-150" y="-36.8" width="997.2" height="243.5" id="id8_1_">
					
						<linearGradient id="SVGID_15_" gradientUnits="userSpaceOnUse" x1="769.6936" y1="-495.8587" x2="769.6936" y2="-139.9442" gradientTransform="matrix(0.3559 0 0 -0.3559 74.6591 -19.1524)">
						<stop  offset="0" style="stop-color:#FFFFFF;stop-opacity:0.8588"/>
						<stop  offset="1" style="stop-color:#FFFFFF;stop-opacity:0"/>
					</linearGradient>
					<rect x="-151.7" y="-38.5" class="st19" width="1000.5" height="246.8"/>
				</mask>
				<path id="_1_2" class="st20" d="M48.2,188c244.6-62.3,668.5-31.1,799,18.7L742.8-31L-150-36.8L48.2,188L48.2,188z"/>
			</g>
		</g>
	</g>
	<g>
		<path class="st12" d="M412.4,228.8c0,7.7-1.2,14.7-3.6,21.1c-2.4,6.4-5.7,11.9-10.1,16.5c-4.3,4.6-9.4,8.3-15.3,10.9
			c-5.9,2.6-12.4,4-19.4,4c-6.6,0-12.6-1.2-18.2-3.5c-5.6-2.3-10.4-5.6-14.4-9.8c-4-4.2-7.1-9.3-9.3-15.2
			c-2.2-5.9-3.3-12.4-3.3-19.4v-5c-20-2.7-35.3-10.8-45.9-24.3c-10.6-13.5-15.9-32.4-15.9-56.7c0-13.4,1.7-25.5,5-36.2
			c6.3-20.3,19-36,38.8-44.2C310.2,63,321,61,333.4,61c12.1,0,23,2,32.5,5.9c20,8.2,32.1,24.2,38.5,44.6c3.3,10.8,5,23,5,36.5
			c0,9.6-1.3,18.8-4,27.6c-2.6,8.8-6.5,16.7-11.5,23.7c-5,7-11.3,12.9-18.7,17.7c-7.4,4.8-15.9,7.9-25.5,9.3
			c0,9.1,1.6,15.7,4.8,19.8c3.2,4.1,7.4,6.1,12.5,6.1c4.6,0,8.5-2,11.6-5.9c3.1-3.9,4.7-9.8,4.7-17.6L412.4,228.8L412.4,228.8z
			 M333.4,202.4c5.9,0,11.5-1.1,16.8-3.2s9.9-5.4,13.8-9.8c3.9-4.4,7-10,9.2-16.9c10.7-32.9,3.1-73.7-38.9-73.7
			c-52.4,0-54.6,66-33.1,90.6C308.7,198.1,319.4,202.5,333.4,202.4L333.4,202.4z M410,239.5c0.5-2.9,0.8-6,0.9-9.2h-26.1
			c-0.1,3.4-0.5,6.4-1.2,9.1c-0.8,3.2-2.1,5.8-3.8,7.9c-1.7,2.1-3.6,3.7-5.8,4.8c-2.2,1.1-4.5,1.6-7.1,1.6c-2.8,0-5.3-0.6-7.6-1.7
			c-2.3-1.1-4.3-2.8-6.1-5c-3.4-4.4-5.1-11.3-5.1-20.7V225l1.3-0.2c4.7-0.7,9.1-1.8,13.3-3.3c4.1-1.5,8-3.4,11.6-5.8
			c3.6-2.3,7-5,10-7.8c3-2.9,5.8-6,8.2-9.5l0,0c2.5-3.4,4.6-7.1,6.5-11c1.9-3.9,3.5-8,4.8-12.3c1.3-4.3,2.3-8.7,2.9-13.3
			c0.7-4.5,1-9.1,1-13.9c0-6.7-0.4-13.1-1.2-19.1c-0.8-6-2.1-11.7-3.7-17c-3.2-10.3-7.9-19.5-14.4-27c-6.1-7-13.7-12.7-23.1-16.5
			c-9.3-3.8-19.9-5.7-31.9-5.7c-6.1,0-11.8,0.5-17.1,1.4c-5.3,1-10.3,2.4-14.9,4.3c-9.5,3.9-17.2,9.6-23.4,16.6
			c-6.5,7.4-11.3,16.4-14.5,26.6c-1.6,5.3-2.9,10.9-3.7,16.8c-0.8,5.9-1.2,12.2-1.2,18.9c0,12,1.3,22.6,3.9,31.9
			c2.6,9.2,6.5,17.2,11.7,23.7c5.2,6.6,11.5,11.8,18.9,15.8c7.5,4,16.1,6.6,25.9,7.9l1.4,0.2v1.4v5c0,3.4,0.3,6.7,0.8,9.9
			s1.4,6.1,2.4,9c1.1,2.9,2.4,5.5,3.9,8c1.5,2.5,3.2,4.7,5.1,6.7c1.9,2,4,3.8,6.3,5.4c2.3,1.6,4.8,2.9,7.5,4l0,0
			c2.7,1.1,5.5,1.9,8.4,2.5l0,0c2.9,0.6,6,0.8,9.2,0.8c3.4,0,6.7-0.3,9.8-1s6.1-1.6,9-2.9c2.9-1.3,5.5-2.8,8-4.5s4.8-3.7,6.8-6
			c2.1-2.2,3.9-4.7,5.5-7.4c1.6-2.7,3-5.5,4.2-8.7C408.4,246.2,409.3,242.9,410,239.5L410,239.5z M342.3,203.2
			c-2.9,0.6-5.9,0.8-8.9,0.8c-14.4,0-25.5-4.5-33.4-13.6c-8.3-9.5-13.1-24.9-13.1-40.5c0-7.9,1.3-15.9,4-23.2
			c2.7-7.3,6.9-13.9,12.8-19l0,0c7.5-6.5,17.6-10.6,30.7-10.6c6.1,0,11.5,0.8,16.3,2.4c10.1,3.3,17.3,9.7,21.9,17.9
			c4.6,8.1,6.6,18,6.6,28.3c0,9-1.6,18.3-4.4,27.1c-1.1,3.5-2.5,6.7-4.1,9.6c-1.6,2.9-3.4,5.5-5.5,7.8c-2,2.3-4.2,4.3-6.7,6
			c-2.4,1.7-5,3.1-7.7,4.3l0,0C348,201.8,345.2,202.6,342.3,203.2L342.3,203.2z"/>
	</g>
	<path class="st6" d="M445.1,177.1l2.9-64.5l0.1-7l-34,0.4l-0.1,7l2.1,72c0.4,16,6.7,30.7,22.1,37.3c17.6,7.5,39,1,49-15.3v15.3
		h18.1L519,112.8l0.1-7l-32.9-0.2l-0.1,7l-0.3,59.3c-0.5,6-2.3,11-5.5,15c-3.8,4.7-9.4,7-16.8,7C452.3,194,445.7,188.4,445.1,177.1
		L445.1,177.1z"/>
	<path class="st7" d="M442.9,177l2.9-64.5l0.1-4.7l-29.6,0.3l-0.1,4.8l2.1,72c0.2,8.1,2,15.9,5.8,22.3c3.3,5.6,8.2,10.2,15,13
		c8.3,3.6,17.6,3.8,25.9,1.2c8.3-2.6,15.6-7.9,20.3-15.6l4.1,1.1v13.1h13.9l13.5-107.5l0.1-4.7l-28.4-0.1l-0.1,4.8l-0.3,59.5
		c-0.2,3.2-0.9,6.1-1.8,8.9c-1,2.7-2.4,5.2-4.2,7.4c-2.1,2.6-4.8,4.6-7.9,5.9c-3.1,1.3-6.6,1.9-10.6,1.9c-6.2,0-11.2-1.6-14.7-4.9
		c-3.5-3.2-5.5-7.9-5.9-14L442.9,177L442.9,177z M445.1,177.1l2.9-64.5l0.1-7l-34,0.4l-0.1,7l2.1,72c0.4,16,6.7,30.7,22.1,37.3
		c17.6,7.5,39,1,49-15.3v15.3h18.1L519,112.8l0.1-7l-32.9-0.2l-0.1,7l-0.3,59.3c-0.5,6-2.3,11-5.5,15c-3.8,4.7-9.4,7-16.8,7
		C452.4,194,445.8,188.4,445.1,177.1L445.1,177.1z"/>
	
		<linearGradient id="SVGID_16_" gradientUnits="userSpaceOnUse" x1="1101.6238" y1="-790.2498" x2="1101.6238" y2="-209.4294" gradientTransform="matrix(0.3559 0 0 -0.3559 74.6591 -19.1524)">
		<stop  offset="0" style="stop-color:#D8E3F7"/>
		<stop  offset="1" style="stop-color:#FEFEFE"/>
	</linearGradient>
	<path class="st21" d="M487.3,215.3V200c-10,16.4-31.4,22.8-49,15.3c-15.5-6.6-21.7-21.4-22.1-37.3l-2.1-72l34-0.4l-3.1,67.9
		c-0.6,13.6,6.2,20.4,18.5,20.4c7.4,0,13-2.3,16.8-7c3.8-4.7,5.6-10.6,5.7-17.9l0.3-63.5l32.9,0.2l-13.8,109.6L487.3,215.3
		L487.3,215.3z"/>
	<g>
		<defs>
			<path id="SVGID_17_" d="M487.3,215.3V200c-10,16.4-31.4,22.8-49,15.3c-15.5-6.6-21.7-21.4-22.1-37.3l-2.1-72l34-0.4l-3.1,67.9
				c-0.6,13.6,6.2,20.4,18.5,20.4c7.4,0,13-2.3,16.8-7c3.8-4.7,5.6-10.6,5.7-17.9l0.3-63.5l32.9,0.2l-13.8,109.6L487.3,215.3
				L487.3,215.3z"/>
		</defs>
		<clipPath id="SVGID_18_">
			<use xlink:href="#SVGID_17_"  style="overflow:visible;"/>
		</clipPath>
		<g class="st22">
			<g>
				<defs>
					<filter id="Adobe_OpacityMaskFilter_3_" filterUnits="userSpaceOnUse" x="-150" y="-36.8" width="997.2" height="243.5">
						<feColorMatrix  type="matrix" values="1 0 0 0 0  0 1 0 0 0  0 0 1 0 0  0 0 0 1 0"/>
					</filter>
				</defs>
				<mask maskUnits="userSpaceOnUse" x="-150" y="-36.8" width="997.2" height="243.5" id="id11_1_">
					
						<linearGradient id="SVGID_19_" gradientUnits="userSpaceOnUse" x1="769.6936" y1="-495.8587" x2="769.6936" y2="-139.9442" gradientTransform="matrix(0.3559 0 0 -0.3559 74.6591 -19.1524)">
						<stop  offset="0" style="stop-color:#FFFFFF;stop-opacity:0.8588"/>
						<stop  offset="1" style="stop-color:#FFFFFF;stop-opacity:0"/>
					</linearGradient>
					<rect x="-151.7" y="-38.5" class="st23" width="1000.5" height="246.8"/>
				</mask>
				<path id="_1_3" class="st24" d="M48.2,188c244.6-62.3,668.5-31.1,799,18.7L742.8-31L-150-36.8L48.2,188L48.2,188z"/>
			</g>
		</g>
	</g>
	<g>
		<path class="st12" d="M487.3,215.3V200c-10,16.4-31.4,22.8-49,15.3c-15.5-6.6-21.7-21.4-22.1-37.3l-2.1-72l34-0.4l-3.1,67.9
			c-0.6,13.6,6.2,20.4,18.5,20.4c7.4,0,13-2.3,16.8-7c3.8-4.7,5.6-10.6,5.7-17.9l0.3-63.5l32.9,0.2l-13.8,109.6L487.3,215.3
			L487.3,215.3z M488.9,200v13.7H504l13.4-106.4l-29.5-0.2l-0.3,61.9c0,3.8-0.5,7.3-1.5,10.4c-1,3.2-2.5,6-4.5,8.5
			c-2.1,2.5-4.6,4.4-7.6,5.7c-3,1.2-6.4,1.9-10.4,1.9c-0.4,0-0.9,0-1.5,0c-5.9-0.3-10.5-2.1-13.7-5.5c-3.2-3.4-4.9-8.3-4.9-14.8
			c0-0.5,0-1.1,0-1.8l3-66.2l-30.8,0.3l2,70.4c0.2,8.2,2,16.1,5.9,22.6c3.4,5.7,8.4,10.4,15.3,13.3c8.5,3.6,17.9,3.8,26.4,1.2
			c8.4-2.6,15.9-8.1,20.7-15.9L488.9,200L488.9,200z"/>
	</g>
	<polygon class="st6" points="524.7,110.6 521.6,117.5 519.1,219 546.3,220.6 549.4,213.7 562.7,112.7 	"/>
	<path class="st7" d="M526.1,112.9l-2.3,5.1l-2.5,98.9l23.6,1.4l2.3-5.2l12.9-98.3L526.1,112.9L526.1,112.9z M524.7,110.6l-3.1,6.9
		L519.1,219l27.2,1.6l3.1-6.9l13.3-101L524.7,110.6L524.7,110.6z"/>
	
		<linearGradient id="SVGID_20_" gradientUnits="userSpaceOnUse" x1="1314.4224" y1="-790.2498" x2="1314.4224" y2="-209.4294" gradientTransform="matrix(0.3559 0 0 -0.3559 74.6591 -19.1524)">
		<stop  offset="0" style="stop-color:#D8E3F7"/>
		<stop  offset="1" style="stop-color:#FEFEFE"/>
	</linearGradient>
	<polygon class="st25" points="522.2,212.1 524.7,110.6 562.7,112.7 549.4,213.7 	"/>
	<g>
		<defs>
			<polygon id="SVGID_21_" points="522.2,212.1 524.7,110.6 562.7,112.7 549.4,213.7 522.2,212.1 			"/>
		</defs>
		<clipPath id="SVGID_22_">
			<use xlink:href="#SVGID_21_"  style="overflow:visible;"/>
		</clipPath>
		<g class="st26">
			<g>
				<defs>
					<filter id="Adobe_OpacityMaskFilter_4_" filterUnits="userSpaceOnUse" x="-150" y="-36.8" width="997.2" height="243.5">
						<feColorMatrix  type="matrix" values="1 0 0 0 0  0 1 0 0 0  0 0 1 0 0  0 0 0 1 0"/>
					</filter>
				</defs>
				<mask maskUnits="userSpaceOnUse" x="-150" y="-36.8" width="997.2" height="243.5" id="id14_1_">
					
						<linearGradient id="SVGID_23_" gradientUnits="userSpaceOnUse" x1="769.6936" y1="-495.8587" x2="769.6936" y2="-139.9442" gradientTransform="matrix(0.3559 0 0 -0.3559 74.6591 -19.1524)">
						<stop  offset="0" style="stop-color:#FFFFFF;stop-opacity:0.8588"/>
						<stop  offset="1" style="stop-color:#FFFFFF;stop-opacity:0"/>
					</linearGradient>
					<rect x="-151.7" y="-38.5" class="st27" width="1000.5" height="246.8"/>
				</mask>
				<path id="_1_4" class="st28" d="M48.2,188c244.6-62.3,668.5-31.1,799,18.7L742.8-31L-150-36.8L48.2,188L48.2,188z"/>
			</g>
		</g>
	</g>
	<g>
		<path class="st12" d="M522.2,212.1l2.6-101.5l38,2.1l-13.3,101L522.2,212.1L522.2,212.1z M526.3,112.2l-2.5,98.4L548,212
			l12.9-97.9C560.9,114.2,526.3,112.2,526.3,112.2z"/>
	</g>
	<polygon class="st6" points="655.6,133.3 651.9,139.6 593.3,195.2 657.7,192.7 655.6,224.1 651.7,230.6 557.2,223.5 558.5,201.3 
		562.4,194.8 615.4,140.5 566,141.9 567.4,114.6 571.2,108 660,113.2 655.8,133.1 	"/>
	<path class="st7" d="M655.6,133.3l-3.8,6.3l-58.6,55.6l64.4-2.5l-2.2,31.4l-3.9,6.6l-94.5-7.1l1.3-22.2l3.9-6.6l53-54.3l-49.4,1.4
		l1.3-27.3l3.9-6.6l88.7,5.2l-4.2,19.9L655.6,133.3L655.6,133.3z M650.1,138.2l3.6-6l3.6-17l-84.8-4.9l-2.9,4.9l-1.2,24.4l47-1.3
		l1.6,3.8l-52.8,54.1l-3.5,5.9l-1.1,19.5l90.9,6.9l2.9-4.9l1.9-28.4l-62,2.4l-1.6-3.8L650.1,138.2L650.1,138.2z"/>
	
		<linearGradient id="SVGID_24_" gradientUnits="userSpaceOnUse" x1="1505.8687" y1="-790.2498" x2="1505.8687" y2="-209.4294" gradientTransform="matrix(0.3559 0 0 -0.3559 74.6591 -19.1524)">
		<stop  offset="0" style="stop-color:#D8E3F7"/>
		<stop  offset="1" style="stop-color:#FEFEFE"/>
	</linearGradient>
	<polygon class="st29" points="561.1,217 562.4,194.8 621.8,133.9 569.9,135.3 571.2,108 660,113.2 655.8,133.1 590.2,195.3 
		657.7,192.7 655.6,224.1 	"/>
	<g>
		<defs>
			<polygon id="SVGID_25_" points="561.1,217 562.4,194.8 621.8,133.9 569.9,135.3 571.2,108 660,113.1 655.8,133.1 590.2,195.3 
				657.7,192.7 655.6,224 561.1,216.9 			"/>
		</defs>
		<clipPath id="SVGID_26_">
			<use xlink:href="#SVGID_25_"  style="overflow:visible;"/>
		</clipPath>
		<g class="st30">
			<g>
				<defs>
					<filter id="Adobe_OpacityMaskFilter_5_" filterUnits="userSpaceOnUse" x="-150" y="-36.8" width="997.2" height="243.5">
						<feColorMatrix  type="matrix" values="1 0 0 0 0  0 1 0 0 0  0 0 1 0 0  0 0 0 1 0"/>
					</filter>
				</defs>
				<mask maskUnits="userSpaceOnUse" x="-150" y="-36.8" width="997.2" height="243.5" id="id17_1_">
					
						<linearGradient id="SVGID_27_" gradientUnits="userSpaceOnUse" x1="769.6936" y1="-495.8587" x2="769.6936" y2="-139.9442" gradientTransform="matrix(0.3559 0 0 -0.3559 74.6591 -19.1524)">
						<stop  offset="0" style="stop-color:#FFFFFF;stop-opacity:0.8588"/>
						<stop  offset="1" style="stop-color:#FFFFFF;stop-opacity:0"/>
					</linearGradient>
					<rect x="-151.7" y="-38.5" class="st31" width="1000.5" height="246.8"/>
				</mask>
				<path id="_1_5" class="st32" d="M48.2,188c244.6-62.3,668.5-31.1,799,18.7L742.8-31L-150-36.8L48.2,188L48.2,188z"/>
			</g>
		</g>
	</g>
	<g>
		<path class="st12" d="M561.1,217l1.3-22.2l59.4-60.9l-51.9,1.4l1.3-27.3l88.7,5.2l-4.2,19.9l-65.6,62.2l67.6-2.6l-2.2,31.4
			L561.1,217L561.1,217z M564,195.4l-1.2,20l91.3,6.9l1.9-28l-65.8,2.5l-1.1-2.7l65.2-61.9l3.7-17.6l-85.3-5l-1.2,24l50.2-1.4
			l1.2,2.7L564,195.4L564,195.4z"/>
	</g>
	
		<linearGradient id="SVGID_28_" gradientUnits="userSpaceOnUse" x1="1723.7119" y1="-687.9636" x2="1737.4641" y2="-459.4388" gradientTransform="matrix(0.3559 0 0 -0.3559 74.6591 -19.1524)">
		<stop  offset="0" style="stop-color:#D040B3"/>
		<stop  offset="1" style="stop-color:#DC71C7"/>
	</linearGradient>
	<polygon class="st33" points="683.5,174.8 680.6,178.3 678.2,224.9 689.5,225.7 692.4,222.2 701.5,175.1 	"/>
	<path class="st34" d="M684.5,177.1l-1.8,2.1l-2.3,43.7l8,0.5l1.8-2.2l8.5-43.9L684.5,177.1L684.5,177.1z M683.5,174.8l-2.9,3.5
		l-2.4,46.6l11.3,0.7l2.9-3.5l9.1-47.1L683.5,174.8L683.5,174.8z"/>
	
		<linearGradient id="SVGID_29_" gradientUnits="userSpaceOnUse" x1="1721.6106" y1="-689.7339" x2="1744.5092" y2="-461.8671" gradientTransform="matrix(0.3559 0 0 -0.3559 74.6591 -19.1524)">
		<stop  offset="0" style="stop-color:#DC71C7"/>
		<stop  offset="1" style="stop-color:#EEB6E2"/>
	</linearGradient>
	<polygon class="st35" points="681.1,221.4 683.5,174.8 701.5,175.1 692.4,222.2 	"/>
	<g>
		<defs>
			<polygon id="SVGID_30_" points="681.1,221.4 683.5,174.8 701.4,175.1 692.4,222.2 681,221.4 			"/>
		</defs>
		<clipPath id="SVGID_31_">
			<use xlink:href="#SVGID_30_"  style="overflow:visible;"/>
		</clipPath>
		<g class="st36">
			<g>
				<defs>
					<filter id="Adobe_OpacityMaskFilter_6_" filterUnits="userSpaceOnUse" x="-145.6" y="-17.1" width="997.2" height="243.5">
						<feColorMatrix  type="matrix" values="1 0 0 0 0  0 1 0 0 0  0 0 1 0 0  0 0 0 1 0"/>
					</filter>
				</defs>
				<mask maskUnits="userSpaceOnUse" x="-145.6" y="-17.1" width="997.2" height="243.5" id="id20_1_">
					
						<linearGradient id="SVGID_32_" gradientUnits="userSpaceOnUse" x1="782.1957" y1="-551.3284" x2="782.1957" y2="-195.414" gradientTransform="matrix(0.3559 0 0 -0.3559 74.6591 -19.1524)">
						<stop  offset="0" style="stop-color:#FFFFFF;stop-opacity:0.5922"/>
						<stop  offset="1" style="stop-color:#FFFFFF;stop-opacity:0"/>
					</linearGradient>
					<rect x="-147.2" y="-18.8" class="st37" width="1000.5" height="246.8"/>
				</mask>
				<path id="_1_6" class="st38" d="M52.7,207.7c244.6-62.3,668.5-31.1,799,18.7L747.3-11.3l-892.9-5.8
					C-145.6-17.1,52.7,207.7,52.7,207.7z"/>
			</g>
		</g>
	</g>
	<polygon class="st3" points="681.1,221.4 683.5,174.8 701.5,175.1 692.4,222.2 	"/>
	
		<linearGradient id="SVGID_33_" gradientUnits="userSpaceOnUse" x1="1716.1726" y1="-678.3901" x2="1762.1013" y2="-371.168" gradientTransform="matrix(0.3559 0 0 -0.3559 74.6591 -19.1524)">
		<stop  offset="0" style="stop-color:#EEB6E2"/>
		<stop  offset="1" style="stop-color:#FEFEFE"/>
	</linearGradient>
	<path class="st39" d="M681.1,221.4l2.4-46.6l17.9,0.3l-9.1,47.1L681.1,221.4L681.1,221.4z M685,176.4l-2.3,43.5l8.4,0.6l8.4-43.9
		L685,176.4L685,176.4z"/>
	
		<linearGradient id="SVGID_34_" gradientUnits="userSpaceOnUse" x1="1833.8109" y1="-705.2414" x2="1842.1675" y2="-415.4564" gradientTransform="matrix(0.3559 0 0 -0.3559 74.6591 -19.1524)">
		<stop  offset="0" style="stop-color:#D040B3"/>
		<stop  offset="1" style="stop-color:#DC71C7"/>
	</linearGradient>
	<path class="st40" d="M729,214.4c3.8,0.3,6.9-0.6,9.2-2.4c1.1-2.4,1.8-5.5,2-9.2c0.7-11.4-3.4-17.4-12.5-18
		c-3.8-0.3-6.9,0.5-9.2,2.4c-1.1,2.4-1.8,5.4-2,9.1C715.8,207.8,719.9,213.8,729,214.4L729,214.4z M752.7,216.8c0,0-0.1,0.1-0.1,0.2
		l-3.3,4.4c-1,1.3-2,2.4-3.2,3.5c-2.6,2.4-5.8,4.2-9.5,5.4c-3.7,1.2-7.7,1.6-12,1.3c-4.6-0.3-8.6-1.3-12.1-3
		c-3.5-1.7-6.4-3.9-8.7-6.7c-2.3-2.8-4-6-5.1-9.8s-1.4-7.8-1.1-12.2c0.3-4.4,1.2-8.5,2.8-12c0.9-2,1.9-3.8,3.2-5.5l3.5-4.7
		c1-1.3,2.1-2.5,3.2-3.6c2.7-2.4,5.9-4.2,9.5-5.4c3.7-1.2,7.7-1.6,12.2-1.3c4.4,0.3,8.4,1.3,11.8,2.9c3.4,1.6,6.3,3.8,8.6,6.6
		c2.3,2.7,4,6,5.1,9.7c1.1,3.7,1.5,7.9,1.2,12.4c-0.3,4.5-1.2,8.5-2.8,12.1C755.1,213.2,754,215,752.7,216.8L752.7,216.8
		L752.7,216.8z"/>
	<path class="st34" d="M729,214.4c3.8,0.3,6.9-0.6,9.2-2.4c1.1-2.4,1.8-5.5,2-9.2c0.7-11.4-3.4-17.4-12.5-18
		c-3.8-0.3-6.9,0.5-9.2,2.4c-1.1,2.4-1.8,5.4-2,9.1C715.8,207.8,719.9,213.8,729,214.4L729,214.4z M752.7,216.8l-3.4,4.6
		c-1,1.3-2,2.4-3.2,3.5c-2.6,2.4-5.8,4.2-9.5,5.4c-3.7,1.2-7.7,1.6-12,1.3c-4.6-0.3-8.6-1.3-12.1-3c-3.5-1.7-6.4-3.9-8.7-6.7
		c-2.3-2.8-4-6-5.1-9.8s-1.4-7.8-1.1-12.2c0.3-4.4,1.2-8.5,2.8-12c0.9-2,1.9-3.8,3.2-5.5l3.5-4.7c1-1.3,2.1-2.5,3.2-3.6
		c2.7-2.4,5.9-4.2,9.5-5.4c3.7-1.2,7.7-1.6,12.2-1.3c4.4,0.3,8.4,1.3,11.8,2.9c3.4,1.6,6.3,3.8,8.6,6.6c2.3,2.7,4,6,5.1,9.7
		c1.1,3.7,1.5,7.9,1.2,12.4c-0.3,4.5-1.2,8.5-2.8,12.1C755.1,213.2,754,215,752.7,216.8L752.7,216.8L752.7,216.8z M739.6,213.7
		c-2.8,2.2-6.4,3.2-10.7,2.9c-5.3-0.4-9.1-2.3-11.6-5.9c-2.4-3.4-3.3-8.3-3-14.5c0.1-1.9,0.4-3.7,0.7-5.3c0.4-1.7,0.9-3.2,1.5-4.5
		l0.6-0.8c1.4-1.1,3-1.9,4.9-2.4c1.8-0.5,3.7-0.6,5.9-0.5c5.3,0.4,9.1,2.3,11.6,5.9c2.4,3.4,3.3,8.2,3,14.4v0
		c-0.1,1.9-0.4,3.7-0.7,5.4c-0.4,1.7-0.9,3.2-1.5,4.6L739.6,213.7L739.6,213.7z M750.8,215.6l0.2-0.3c0.6-0.7,1.1-1.5,1.6-2.4
		c0.5-0.8,1-1.8,1.4-2.7c0.7-1.6,1.3-3.4,1.8-5.3c0.4-1.9,0.7-3.9,0.9-6c0.1-2.2,0.1-4.2-0.1-6.1c-0.2-1.9-0.5-3.7-1.1-5.5
		c-0.5-1.7-1.1-3.3-1.9-4.8c-0.8-1.5-1.7-2.8-2.7-4.1c-1.1-1.2-2.2-2.4-3.5-3.3c-1.3-1-2.8-1.9-4.3-2.6c-1.5-0.7-3.3-1.4-5.1-1.8
		c-1.8-0.4-3.8-0.7-5.9-0.9c-2.1-0.1-4.2-0.1-6.1,0.1c-1.9,0.2-3.7,0.6-5.3,1.1c-1.7,0.5-3.2,1.2-4.7,2.1c-1.5,0.8-2.8,1.8-4,2.9
		c-0.5,0.5-1.1,1-1.5,1.5c-0.5,0.5-1,1.1-1.4,1.7l-3.5,4.7c-0.6,0.8-1.1,1.6-1.6,2.4c-0.5,0.8-0.9,1.7-1.3,2.6
		c-0.7,1.7-1.3,3.4-1.8,5.3c-0.4,1.9-0.7,3.9-0.9,6c-0.1,2.1-0.1,4.1,0.1,5.9c0.2,1.9,0.5,3.7,1,5.5c0.5,1.7,1.1,3.3,1.9,4.8
		c0.8,1.5,1.7,2.9,2.7,4.1c1.1,1.2,2.2,2.4,3.6,3.4c1.3,1,2.8,1.9,4.4,2.7c1.6,0.8,3.3,1.4,5.2,1.8c1.9,0.5,3.9,0.8,6.1,0.9
		c2.1,0.1,4,0.1,5.9-0.1c1.8-0.2,3.6-0.6,5.3-1.1c1.6-0.5,3.2-1.2,4.7-2.1c1.4-0.8,2.8-1.8,4-2.9c1.1-1,2-2,2.9-3.2L750.8,215.6
		L750.8,215.6z"/>
	
		<linearGradient id="SVGID_35_" gradientUnits="userSpaceOnUse" x1="1838.4585" y1="-707.6881" x2="1847.1442" y2="-419.2191" gradientTransform="matrix(0.3559 0 0 -0.3559 74.6591 -19.1524)">
		<stop  offset="0" style="stop-color:#DC71C7"/>
		<stop  offset="1" style="stop-color:#EEB6E2"/>
	</linearGradient>
	<path class="st41" d="M729,214.4c9.1,0.6,14-4.8,14.8-16.3c0.7-11.4-3.4-17.4-12.5-18c-9.1-0.6-14,4.8-14.8,16.2
		C715.8,207.8,719.9,213.8,729,214.4z M728.2,226.9c-4.6-0.3-8.6-1.3-12.1-3c-3.5-1.7-6.4-3.9-8.7-6.7c-2.3-2.8-4-6-5.1-9.8
		c-1.1-3.7-1.4-7.8-1.1-12.2c0.3-4.4,1.2-8.4,2.8-12c1.6-3.6,3.7-6.6,6.4-9c2.7-2.4,5.9-4.2,9.5-5.4c3.7-1.2,7.7-1.6,12.2-1.3
		c4.4,0.3,8.4,1.3,11.8,2.9c3.4,1.6,6.3,3.8,8.6,6.6c2.3,2.7,4,6,5.1,9.7c1.1,3.7,1.5,7.9,1.2,12.4c-0.3,4.5-1.2,8.5-2.8,12.1
		c-1.6,3.5-3.7,6.5-6.3,9c-2.6,2.4-5.8,4.2-9.5,5.4C736.5,226.8,732.5,227.2,728.2,226.9L728.2,226.9z"/>
	<g>
		<defs>
			<path id="SVGID_36_" d="M729,214.4c9.1,0.6,14-4.8,14.8-16.3c0.7-11.4-3.4-17.4-12.5-18c-9.1-0.6-14,4.8-14.8,16.2
				C715.8,207.8,719.9,213.8,729,214.4z M728.2,226.9c-4.6-0.3-8.6-1.3-12.1-3c-3.5-1.7-6.4-3.9-8.7-6.7c-2.3-2.8-4-6-5.1-9.8
				c-1.1-3.7-1.4-7.8-1.1-12.2c0.3-4.4,1.2-8.4,2.8-12c1.6-3.6,3.7-6.6,6.4-9c2.7-2.4,5.9-4.2,9.5-5.4c3.7-1.2,7.7-1.6,12.2-1.3
				c4.4,0.3,8.4,1.3,11.8,2.9c3.4,1.6,6.3,3.8,8.6,6.6c2.3,2.7,4,6,5.1,9.7c1.1,3.7,1.5,7.9,1.2,12.4c-0.3,4.5-1.2,8.5-2.8,12.1
				c-1.6,3.5-3.7,6.5-6.3,9c-2.6,2.4-5.8,4.2-9.5,5.4C736.5,226.8,732.5,227.2,728.2,226.9L728.2,226.9z"/>
		</defs>
		<clipPath id="SVGID_37_">
			<use xlink:href="#SVGID_36_"  style="overflow:visible;"/>
		</clipPath>
		<g class="st42">
			<g>
				<defs>
					<filter id="Adobe_OpacityMaskFilter_7_" filterUnits="userSpaceOnUse" x="-145.6" y="-17.1" width="997.2" height="243.5">
						<feColorMatrix  type="matrix" values="1 0 0 0 0  0 1 0 0 0  0 0 1 0 0  0 0 0 1 0"/>
					</filter>
				</defs>
				<mask maskUnits="userSpaceOnUse" x="-145.6" y="-17.1" width="997.2" height="243.5" id="id23_1_">
					
						<linearGradient id="SVGID_38_" gradientUnits="userSpaceOnUse" x1="782.1957" y1="-551.3284" x2="782.1957" y2="-195.414" gradientTransform="matrix(0.3559 0 0 -0.3559 74.6591 -19.1524)">
						<stop  offset="0" style="stop-color:#FFFFFF;stop-opacity:0.5922"/>
						<stop  offset="1" style="stop-color:#FFFFFF;stop-opacity:0"/>
					</linearGradient>
					<rect x="-147.2" y="-18.8" class="st43" width="1000.5" height="246.8"/>
				</mask>
				<path id="_1_7" class="st44" d="M52.7,207.7c244.6-62.3,668.5-31.1,799,18.7L747.3-11.3l-892.9-5.8
					C-145.6-17.1,52.7,207.7,52.7,207.7z"/>
			</g>
		</g>
	</g>
	<path class="st3" d="M729,214.4c9.1,0.6,14-4.8,14.8-16.3c0.7-11.4-3.4-17.4-12.5-18c-9.1-0.6-14,4.8-14.8,16.2
		C715.8,207.8,719.9,213.8,729,214.4z M728.2,226.9c-4.6-0.3-8.6-1.3-12.1-3c-3.5-1.7-6.4-3.9-8.7-6.7c-2.3-2.8-4-6-5.1-9.8
		c-1.1-3.7-1.4-7.8-1.1-12.2c0.3-4.4,1.2-8.4,2.8-12c1.6-3.6,3.7-6.6,6.4-9c2.7-2.4,5.9-4.2,9.5-5.4c3.7-1.2,7.7-1.6,12.2-1.3
		c4.4,0.3,8.4,1.3,11.8,2.9c3.4,1.6,6.3,3.8,8.6,6.6c2.3,2.7,4,6,5.1,9.7c1.1,3.7,1.5,7.9,1.2,12.4c-0.3,4.5-1.2,8.5-2.8,12.1
		c-1.6,3.5-3.7,6.5-6.3,9c-2.6,2.4-5.8,4.2-9.5,5.4C736.5,226.8,732.5,227.2,728.2,226.9L728.2,226.9z"/>
	
		<linearGradient id="SVGID_39_" gradientUnits="userSpaceOnUse" x1="1832.4054" y1="-697.7506" x2="1859.4492" y2="-429.7455" gradientTransform="matrix(0.3559 0 0 -0.3559 74.6591 -19.1524)">
		<stop  offset="0" style="stop-color:#EEB6E2"/>
		<stop  offset="1" style="stop-color:#FEFEFE"/>
	</linearGradient>
	<path class="st45" d="M729,214.4c9.1,0.6,14-4.8,14.8-16.3c0.7-11.4-3.4-17.4-12.5-18c-9.1-0.6-14,4.8-14.8,16.2
		C715.8,207.8,719.9,213.8,729,214.4z M728.2,226.9c-4.6-0.3-8.6-1.3-12.1-3c-3.5-1.7-6.4-3.9-8.7-6.7c-2.3-2.8-4-6-5.1-9.8
		c-1.1-3.7-1.4-7.8-1.1-12.2c0.3-4.4,1.2-8.4,2.8-12c1.6-3.6,3.7-6.6,6.4-9c2.7-2.4,5.9-4.2,9.5-5.4c3.7-1.2,7.7-1.6,12.2-1.3
		c4.4,0.3,8.4,1.3,11.8,2.9c3.4,1.6,6.3,3.8,8.6,6.6c2.3,2.7,4,6,5.1,9.7c1.1,3.7,1.5,7.9,1.2,12.4c-0.3,4.5-1.2,8.5-2.8,12.1
		c-1.6,3.5-3.7,6.5-6.3,9c-2.6,2.4-5.8,4.2-9.5,5.4C736.5,226.8,732.5,227.2,728.2,226.9L728.2,226.9z M740.7,211.9
		c-2.8,3.1-6.7,4.5-11.8,4.1c-5.1-0.3-8.8-2.2-11.1-5.6c-2.3-3.3-3.2-8-2.8-14v-0.1c0.4-6,2-10.6,4.7-13.5c2.8-3,6.7-4.4,11.7-4.1
		h0.1c5.1,0.3,8.8,2.2,11.1,5.6c2.3,3.3,3.2,7.9,2.9,13.9v0.1C745,204.3,743.4,208.9,740.7,211.9L740.7,211.9z M722.1,224.4
		c1.9,0.5,4,0.8,6.2,0.9c2.1,0.1,4.1,0.1,6-0.1s3.7-0.6,5.4-1.1c1.7-0.6,3.3-1.3,4.8-2.1s2.8-1.8,4.1-3c1.2-1.1,2.4-2.4,3.4-3.8
		c1-1.4,1.8-3,2.6-4.6c0.7-1.7,1.3-3.5,1.8-5.4c0.4-1.9,0.7-4,0.9-6.1c0.1-2.2,0.1-4.3-0.1-6.2c-0.2-2-0.5-3.8-1.1-5.6
		c-0.5-1.8-1.2-3.4-2-4.9c-0.8-1.5-1.7-2.9-2.8-4.2c-1.1-1.3-2.3-2.4-3.6-3.4c-1.4-1-2.8-1.9-4.4-2.7c-1.6-0.8-3.3-1.4-5.2-1.8
		c-1.9-0.5-3.9-0.8-6-0.9c-2.2-0.1-4.2-0.1-6.2,0.1c-1.9,0.2-3.7,0.6-5.5,1.1c-1.7,0.6-3.3,1.3-4.8,2.1c-1.5,0.8-2.9,1.8-4.1,3
		s-2.4,2.4-3.4,3.8c-1,1.4-1.9,3-2.6,4.7c-0.7,1.7-1.4,3.5-1.8,5.4c-0.4,1.9-0.7,4-0.9,6.1c-0.1,2.1-0.1,4.1,0.1,6.1s0.5,3.8,1,5.6
		c0.5,1.8,1.1,3.4,1.9,5c0.8,1.5,1.7,2.9,2.8,4.2c1.1,1.3,2.3,2.5,3.7,3.5s2.9,2,4.5,2.8C718.4,223.3,720.2,223.9,722.1,224.4
		L722.1,224.4z"/>
	<path class="st6" d="M546.8,62.4c11.9,0,21.5,9.6,21.5,21.5c0,3.5-0.8,6.8-2.3,9.8l-2.4,4.6c-3.6,7-10.8,11.7-19.2,11.7
		c-11.9,0-21.5-9.6-21.5-21.5c0-3.5,0.8-6.8,2.3-9.8l2.4-4.6C531.2,67.2,538.5,62.4,546.8,62.4z"/>
	<path class="st7" d="M546.8,62.4c11.9,0,21.5,9.6,21.5,21.5c0,3.5-0.8,6.8-2.3,9.8l-2.4,4.6c-3.6,7-10.8,11.7-19.2,11.7
		c-11.9,0-21.5-9.6-21.5-21.5c0-3.5,0.8-6.8,2.3-9.8l2.4-4.6C531.2,67.2,538.5,62.4,546.8,62.4z M560.5,70.3
		c-3.5-3.5-8.3-5.6-13.6-5.6c-3.7,0-7.1,1-10,2.8c-3,1.8-5.5,4.5-7.1,7.7l-2.4,4.6c-0.7,1.3-1.2,2.8-1.6,4.3
		c-0.4,1.4-0.5,2.9-0.5,4.5c0,5.3,2.2,10.1,5.6,13.6c3.5,3.5,8.3,5.6,13.6,5.6c3.7,0,7.1-1,10-2.8c3-1.8,5.5-4.5,7.1-7.7l2.4-4.6
		c0.7-1.3,1.2-2.8,1.6-4.3c0.4-1.4,0.5-2.9,0.5-4.5C566.1,78.6,564,73.8,560.5,70.3z"/>
	<g>
		
			<linearGradient id="SVGID_40_" gradientUnits="userSpaceOnUse" x1="1326.8258" y1="-790.2498" x2="1326.8258" y2="-209.4294" gradientTransform="matrix(0.3559 0 0 -0.3559 74.6591 -19.1524)">
			<stop  offset="0" style="stop-color:#D8E3F7"/>
			<stop  offset="1" style="stop-color:#FEFEFE"/>
		</linearGradient>
		<path class="st46" d="M546.8,62.4c11.9,0,21.5,9.6,21.5,21.5s-9.6,21.5-21.5,21.5s-21.5-9.6-21.5-21.5S535,62.4,546.8,62.4z"/>
		<path id="_1_8" class="st12" d="M546.8,62.4c11.9,0,21.5,9.6,21.5,21.5s-9.6,21.5-21.5,21.5s-21.5-9.6-21.5-21.5
			S535,62.4,546.8,62.4z M560.9,69.8c-3.6-3.6-8.6-5.8-14.1-5.8c-5.5,0-10.5,2.2-14.1,5.8l0,0c-3.6,3.6-5.8,8.6-5.8,14.1
			s2.2,10.5,5.8,14.1l0,0c3.6,3.6,8.6,5.8,14.1,5.8c5.5,0,10.5-2.2,14.1-5.8s5.8-8.6,5.8-14.1S564.5,73.4,560.9,69.8z"/>
	</g>
	
		<linearGradient id="SVGID_41_" gradientUnits="userSpaceOnUse" x1="1725.4506" y1="-688.0682" x2="1739.2029" y2="-459.5434" gradientTransform="matrix(0.3559 0 0 -0.3559 74.6591 -19.1524)">
		<stop  offset="0" style="stop-color:#D040B3"/>
		<stop  offset="1" style="stop-color:#DC71C7"/>
	</linearGradient>
	<path class="st47" d="M694,145.8c7-0.2,12.8,5.2,13,12.2c0.1,3.9-1.5,7.5-4.3,9.9l-3.5,3.1c-2.1,1.9-4.9,3-7.9,3.1
		c-7,0.2-12.8-5.2-13-12.2c-0.1-3.9,1.5-7.5,4.3-9.9l3.3-2.9c0,0,0,0,0.1,0l0.2-0.1C688.2,147.1,691,145.9,694,145.8L694,145.8z"/>
	<path class="st34" d="M694,145.8c7-0.2,12.8,5.2,13,12.2c0.1,3.9-1.5,7.5-4.3,9.9l-3.5,3.1c-2.1,1.9-4.9,3-7.9,3.1
		c-7,0.2-12.8-5.2-13-12.2c-0.1-3.9,1.5-7.5,4.3-9.9l3.5-3.1C688.2,147.1,691,145.9,694,145.8z M701.5,150.8
		c-1.9-1.8-4.6-2.9-7.4-2.8c-1.2,0-2.4,0.3-3.5,0.7c-1.1,0.4-2.1,1.1-3,1.9l-3.6,3.1c-1.1,1-2.1,2.2-2.7,3.7
		c-0.6,1.4-0.9,2.9-0.8,4.4c0.1,2.9,1.3,5.4,3.3,7.2c1.9,1.8,4.6,2.9,7.4,2.8c1.2,0,2.4-0.3,3.5-0.7c1.1-0.4,2.2-1.1,3-1.8l3.6-3.1
		c1.1-1,2.1-2.2,2.7-3.7c0.6-1.4,0.9-2.9,0.8-4.4C704.7,155.2,703.5,152.7,701.5,150.8L701.5,150.8z"/>
	
		<linearGradient id="SVGID_42_" gradientUnits="userSpaceOnUse" x1="1740.3611" y1="-540.9138" x2="1743.8485" y2="-419.0514" gradientTransform="matrix(0.3559 0 0 -0.3559 74.6591 -19.1524)">
		<stop  offset="0" style="stop-color:#DC71C7"/>
		<stop  offset="1" style="stop-color:#EEB6E2"/>
	</linearGradient>
	<path class="st48" d="M694,145.8c7-0.2,12.8,5.2,13,12.2c0.2,7-5.2,12.8-12.2,13c-7,0.2-12.8-5.2-13-12.2
		C681.6,151.8,687.1,146,694,145.8z"/>
	
		<linearGradient id="SVGID_43_" gradientUnits="userSpaceOnUse" x1="1714.7523" y1="-678.1778" x2="1760.681" y2="-370.9557" gradientTransform="matrix(0.3559 0 0 -0.3559 74.6591 -19.1524)">
		<stop  offset="0" style="stop-color:#EEB6E2"/>
		<stop  offset="1" style="stop-color:#FEFEFE"/>
	</linearGradient>
	<path class="st49" d="M694,145.8c7-0.2,12.8,5.2,13,12.2c0.2,7-5.2,12.8-12.2,13c-7,0.2-12.8-5.2-13-12.2
		C681.6,151.8,687.1,146,694,145.8z M702,150.3c-2.1-1.9-4.8-3.1-7.9-3h0c-3,0.1-5.7,1.4-7.6,3.5c-1.9,2.1-3.1,4.8-3,7.9v0
		c0.1,3,1.4,5.7,3.5,7.6c2.1,1.9,4.8,3.1,7.9,3c3-0.1,5.8-1.4,7.7-3.5c1.9-2.1,3.1-4.8,3-7.9C705.3,154.9,704,152.2,702,150.3
		L702,150.3z"/>
	
		<linearGradient id="SVGID_44_" gradientUnits="userSpaceOnUse" x1="1668.865" y1="-693.2101" x2="1671.3655" y2="-610.3674" gradientTransform="matrix(0.3559 0 0 -0.3559 74.6591 -19.1524)">
		<stop  offset="0" style="stop-color:#D040B3"/>
		<stop  offset="1" style="stop-color:#DC71C7"/>
	</linearGradient>
	<path class="st50" d="M669.6,209.2c4.1-0.1,7.5,3.1,7.7,7.2c0,1.4-0.3,2.7-0.9,3.9l-1.9,3.5c-1.2,2.2-3.6,3.7-6.3,3.8
		c-4.1,0.1-7.5-3.1-7.7-7.2c0-1.4,0.3-2.7,0.9-3.9l1.9-3.5C664.5,210.8,666.9,209.2,669.6,209.2L669.6,209.2z"/>
	<path class="st34" d="M669.6,209.2c4.1-0.1,7.5,3.1,7.7,7.2c0,1.4-0.3,2.7-0.9,3.9l-1.9,3.5c-1.2,2.2-3.6,3.7-6.3,3.8
		c-4.1,0.1-7.5-3.1-7.7-7.2c0-1.4,0.3-2.7,0.9-3.9l1.9-3.5C664.5,210.8,666.9,209.2,669.6,209.2L669.6,209.2z M673.4,212.8
		c-1-0.9-2.3-1.5-3.7-1.4c-0.9,0-1.8,0.3-2.5,0.7c-0.8,0.5-1.4,1.1-1.8,1.9l-1.9,3.5c-0.2,0.4-0.4,0.8-0.5,1.3
		c-0.1,0.5-0.2,0.9-0.1,1.4c0,1.4,0.7,2.7,1.6,3.6c1,0.9,2.3,1.5,3.7,1.4c0.9,0,1.8-0.3,2.5-0.7c0.8-0.5,1.4-1.1,1.8-1.9l1.9-3.5
		c0.2-0.4,0.4-0.8,0.5-1.3c0.1-0.5,0.2-0.9,0.1-1.4C675,215,674.3,213.7,673.4,212.8L673.4,212.8z"/>
	
		<linearGradient id="SVGID_45_" gradientUnits="userSpaceOnUse" x1="1671.6713" y1="-687.3246" x2="1673.7111" y2="-615.3389" gradientTransform="matrix(0.3559 0 0 -0.3559 74.6591 -19.1524)">
		<stop  offset="0" style="stop-color:#DC71C7"/>
		<stop  offset="1" style="stop-color:#EEB6E2"/>
	</linearGradient>
	<path class="st51" d="M669.6,209.2c4.1-0.1,7.5,3.1,7.7,7.2c0.1,4.1-3.1,7.5-7.2,7.7c-4.1,0.1-7.5-3.1-7.7-7.2
		S665.5,209.3,669.6,209.2z"/>
	
		<linearGradient id="SVGID_46_" gradientUnits="userSpaceOnUse" x1="1670.3579" y1="-684.4564" x2="1687.137" y2="-501.3997" gradientTransform="matrix(0.3559 0 0 -0.3559 74.6591 -19.1524)">
		<stop  offset="0" style="stop-color:#EEB6E2"/>
		<stop  offset="1" style="stop-color:#FEFEFE"/>
	</linearGradient>
	<path class="st52" d="M669.6,209.2c4.1-0.1,7.5,3.1,7.7,7.2c0.1,4.1-3.1,7.5-7.2,7.7c-4.1,0.1-7.5-3.1-7.7-7.2
		S665.5,209.3,669.6,209.2z M673.8,212.3c-1.1-1-2.6-1.6-4.2-1.6h0c-1.6,0.1-3,0.8-4,1.8c-1,1.1-1.6,2.6-1.6,4.2v0
		c0.1,1.6,0.8,3,1.8,4.1c1.1,1,2.6,1.6,4.2,1.6c1.6,0,3.1-0.7,4.1-1.8c1-1.1,1.6-2.6,1.6-4.2C675.6,214.8,674.9,213.3,673.8,212.3z"
		/>
</g>
</svg>
