<svg  xmlns="http://www.w3.org/2000/svg" viewBox="0 0 269.77 84.16"><defs><style>.cls-1{fill:#fff;}.cls-2{fill:#dd4566;}</style></defs><title>Fichier 2</title><g id="Calque_2" data-name="Calque 2"><g id="Calque_1-2" data-name="Calque 1"><path class="cls-1" d="M63.44,19.82a20.43,20.43,0,0,0-15.32,6.57,22.18,22.18,0,0,0-6.31,15.93,19.78,19.78,0,0,0,6.31,14.81,21.29,21.29,0,0,0,15.32,6.06H81.15V51.33H63.44q-5.32,0-6.6-3.61H76.93a6.56,6.56,0,0,0,5.14-2.35,8.46,8.46,0,0,0,2.06-5.78,18.81,18.81,0,0,0-5.93-14A20.26,20.26,0,0,0,63.44,19.82ZM56.84,36q1.36-4.36,6.6-4.36a9.36,9.36,0,0,1,3.31.51,4.66,4.66,0,0,1,1.94,1.21,4.39,4.39,0,0,1,.81,1.36A4,4,0,0,1,69.72,36Zm24.59,4.43a.79.79,0,0,1-.9-.88,15.36,15.36,0,0,0-4.86-11.44,16.81,16.81,0,0,0-12.23-4.73c-.62,0-.92-.3-.91-.9a.82.82,0,0,1,.91-.9,18.6,18.6,0,0,1,13.49,5.25,17.08,17.08,0,0,1,5.4,12.72A.79.79,0,0,1,81.43,40.47Z"/><path class="cls-1" d="M195.35,19.82a7,7,0,0,0-5.1,2.11,6.89,6.89,0,0,0-2.13,5.1V43.2a7.19,7.19,0,1,1-14.37,0V27a6.89,6.89,0,0,0-2.13-5.1A7.19,7.19,0,0,0,159.34,27V43.2a21.53,21.53,0,0,0,21.6,21.62,20.81,20.81,0,0,0,15.29-6.31,20.85,20.85,0,0,0,6.3-15.31V27a7.2,7.2,0,0,0-7.18-7.21Zm-24.3,8.08a.78.78,0,0,1-.9-.87,3.69,3.69,0,0,0-3.61-3.61.79.79,0,0,1-.9-.9.81.81,0,0,1,.9-.9A5.39,5.39,0,0,1,172,27,.78.78,0,0,1,171.05,27.9Zm28.78,0a.78.78,0,0,1-.9-.87,3.69,3.69,0,0,0-3.6-3.61.79.79,0,0,1-.88-.9.79.79,0,0,1,.88-.9,5.39,5.39,0,0,1,5.4,5.41A.78.78,0,0,1,199.83,27.9Z"/><path class="cls-1" d="M216.88,19.82A7.2,7.2,0,0,0,209.7,27V63.19h14.41V27a6.89,6.89,0,0,0-2.13-5.1A7,7,0,0,0,216.88,19.82Zm4.53,8.08a.78.78,0,0,1-.9-.87,3.69,3.69,0,0,0-3.61-3.61.79.79,0,0,1-.9-.9.81.81,0,0,1,.9-.9A5.39,5.39,0,0,1,222.31,27,.78.78,0,0,1,221.41,27.9Z"/><path class="cls-1" d="M216.88,0a6.86,6.86,0,0,0-5.07,2.13,7,7,0,0,0-2.11,5.1,6.88,6.88,0,0,0,2.11,5.07,6.88,6.88,0,0,0,5.07,2.11,7.05,7.05,0,0,0,5.1-2.06,6.87,6.87,0,0,0,2.13-5.14,7,7,0,0,0-2.13-5A6.88,6.88,0,0,0,216.88,0Zm4.53,8.11a.81.81,0,0,1-.9-.9,3.46,3.46,0,0,0-1.08-2.53A3.46,3.46,0,0,0,216.9,3.6a.79.79,0,0,1-.9-.9.81.81,0,0,1,.9-.9,5.24,5.24,0,0,1,3.83,1.58,5.24,5.24,0,0,1,1.58,3.83A.79.79,0,0,1,221.41,8.11Z"/><path class="cls-1" d="M147,52.73A31.49,31.49,0,0,0,154,32.41a31.56,31.56,0,0,0-9.28-22.95,31.49,31.49,0,0,0-45,0A31.59,31.59,0,0,0,90.4,32.41a31.59,31.59,0,0,0,9.27,23,30.31,30.31,0,0,0,22.5,9.46,30.86,30.86,0,0,0,13.64-3l6.42,7.65a7.2,7.2,0,0,0,10.14.9,7,7,0,0,0,2.55-4.89,7,7,0,0,0-1.65-5.28ZM121.37,1.8a29,29,0,0,1,21.54,9,30.28,30.28,0,0,1,8.82,22c0,.88,0,1.27-.9,1.27s-1.05-.39-1.05-1.27a28,28,0,0,0-8-20.24,28.6,28.6,0,0,0-20.33-8.92c-.87,0-1.33,0-1.33-.86S120.49,1.8,121.37,1.8Zm.8,49.53q-7.78,0-12-5.34T106,32.31A20.9,20.9,0,0,1,110.21,19q4.17-5.33,12-5.33c5.2,0,9.18,1.78,12,5.33a21,21,0,0,1,4.17,13.31A25.11,25.11,0,0,1,137,40.77L130,32.5l-11,9.26,7.6,9.05A18.58,18.58,0,0,1,122.17,51.33Z"/><path class="cls-1" d="M266.3,33.05q3.46-3.69,3.47-6.59a6.46,6.46,0,0,0-6.28-6.29H235.76a6.22,6.22,0,0,0-4.44,1.76,5.57,5.57,0,0,0-1.85,4.17,5.5,5.5,0,0,0,1.85,4.24,6.34,6.34,0,0,0,4.44,1.7h14L230.35,52.38V63.19h39.42V51.33H249ZM263.49,22a4.38,4.38,0,0,1,3.16,1.34A4.27,4.27,0,0,1,268,26.46a.79.79,0,0,1-.9.9.81.81,0,0,1-.9-.9,2.56,2.56,0,0,0-.81-1.9,2.7,2.7,0,0,0-1.91-.79.79.79,0,0,1-.88-.9A.79.79,0,0,1,263.49,22Z"/><path class="cls-1" d="M14.41,7.21a6.93,6.93,0,0,0-2.13-5.08A7,7,0,0,0,7.19,0,6.92,6.92,0,0,0,2.11,2.11,6.93,6.93,0,0,0,0,7.21v56H39.42V51.33h-25ZM7.21,1.8A5.22,5.22,0,0,1,11,3.38a5.24,5.24,0,0,1,1.58,3.83.79.79,0,0,1-.9.9.81.81,0,0,1-.9-.9A3.46,3.46,0,0,0,9.73,4.68,3.44,3.44,0,0,0,7.21,3.6q-.93,0-.9-.9A.8.8,0,0,1,7.21,1.8Z"/><path class="cls-2" d="M220.74,75.15c2.18-.31,3.38-1.87,3.38-4.31,0-2.59-1.34-4.53-4.46-4.53H212a2.65,2.65,0,0,0-1,.16,2.11,2.11,0,0,0-1.34,2.28V81.57c0,1.61.74,2.44,2.32,2.44h7.76c3,0,4.39-1.94,4.39-4.5C224.17,77.14,223,75.51,220.74,75.15Zm-2.92-3.93H218c.67,0,1,.24,1,.74s-.31.74-1,.74h-3.47V71.22Zm-3.28,7.88V77.62H218c.67,0,1,.24,1,.74s-.31.74-1,.74h-3.47Z"/><path class="cls-2" d="M238.12,79.1h-7.36V77.47h4.78a2.07,2.07,0,0,0,2.16-2.32,2,2,0,0,0-2.16-2.28h-4.78V71.22h7.31a2.37,2.37,0,0,0,2.44-2.47,2.34,2.34,0,0,0-2.44-2.44h-9.73a2.14,2.14,0,0,0-2.42,2.44V81.57A2.15,2.15,0,0,0,228.34,84h9.78a2.46,2.46,0,1,0,0-4.91Z"/><path class="cls-2" d="M254.84,68.75a2.35,2.35,0,0,0-2.47-2.44h-8.26a2.35,2.35,0,0,0-2.47,2.44,2.39,2.39,0,0,0,2.47,2.47h1.72V81.71a2.3,2.3,0,0,0,2.42,2.42,2.32,2.32,0,0,0,2.45-2.42V71.22h1.67A2.39,2.39,0,0,0,254.84,68.75Z"/><path class="cls-2" d="M269.58,80.85l-5.46-13.11A2.26,2.26,0,0,0,262,66.16a2.49,2.49,0,0,0-2.61,2.35,2.28,2.28,0,0,0,.19,1l3.21,7.72h-2.4l.27-.65a2.32,2.32,0,0,0,.19-.94,2.52,2.52,0,0,0-2.61-2.39A2.39,2.39,0,0,0,256,74.84l-2.71,6a2.6,2.6,0,0,0-.17,1,2.47,2.47,0,0,0,2.64,2.33,2.29,2.29,0,0,0,2.11-1.61l.43-.93h6.23l.41.93a2.23,2.23,0,0,0,2.13,1.61,2.52,2.52,0,0,0,2.66-2.33A2.72,2.72,0,0,0,269.58,80.85Z"/></g></g></svg>
